SplineFontDB: 2.0
FontName: ArundinaSerif
FullName: Arundina Serif
FamilyName: Arundina Serif
Weight: Book
Copyright: Copyright (c) 2003 by Bitstream, Inc. All Rights Reserved.\nCopyright (c) 2007 by Software Industry Promotion Agency (Public Organization). All Rights Reserved.
Version: 2.2
ItalicAngle: 0
UnderlinePosition: -153
UnderlineWidth: 102
Ascent: 1638
Descent: 410
Order2: 1
XUID: [1021 375 425136265 6775759]
FSType: 0
OS2Version: 2
OS2_WeightWidthSlopeOnly: 0
OS2_UseTypoMetrics: 1
CreationTime: 1131303360
ModificationTime: 1195297776
PfmFamily: 17
TTFWeight: 400
TTFWidth: 5
LineGap: 37
VLineGap: 0
Panose: 2 11 3 0 2 2 2 2 2 4
OS2TypoAscent: 0
OS2TypoAOffset: 1
OS2TypoDescent: -410
OS2TypoDOffset: 1
OS2TypoLinegap: 0
OS2WinAscent: 41
OS2WinAOffset: 1
OS2WinDescent: 111
OS2WinDOffset: 1
HheadAscent: 41
HheadAOffset: 1
HheadDescent: -111
HheadDOffset: 1
OS2SubXSize: 1434
OS2SubYSize: 1331
OS2SubXOff: 0
OS2SubYOff: 287
OS2SupXSize: 1434
OS2SupYSize: 1331
OS2SupXOff: 0
OS2SupYOff: 977
OS2StrikeYSize: 102
OS2StrikeYPos: 512
OS2FamilyClass: 261
OS2Vendor: 'BLWK'
Lookup: 4 0 0 "'frac' Diagonal Fractions in Latin lookup 0"  {"'frac' Diagonal Fractions in Latin lookup 0 subtable"  } ['frac' ('latn' <'dflt' > ) ]
Lookup: 6 0 0 "'liga' Standard Ligatures in Latin lookup 1"  {"'liga' Standard Ligatures in Latin lookup 1 subtable"  } ['liga' ('latn' <'dflt' > ) ]
Lookup: 6 0 0 "'liga' Standard Ligatures in Latin lookup 2"  {"'liga' Standard Ligatures in Latin lookup 2 subtable"  } ['liga' ('latn' <'dflt' > ) ]
Lookup: 6 0 0 "'liga' Standard Ligatures in Latin lookup 3"  {"'liga' Standard Ligatures in Latin lookup 3 subtable"  } ['liga' ('latn' <'dflt' > ) ]
Lookup: 6 0 0 "'liga' Standard Ligatures in Latin lookup 4"  {"'liga' Standard Ligatures in Latin lookup 4 subtable"  } ['liga' ('latn' <'dflt' > ) ]
Lookup: 6 0 0 "'liga' Standard Ligatures in Latin lookup 5"  {"'liga' Standard Ligatures in Latin lookup 5 subtable"  } ['liga' ('latn' <'dflt' > ) ]

StartChar: .notdef
Encoding: 65536 -1 0
Width: 1083
VWidth: 3198
Flags: W
HStem: 0 162<253 839> 1331 162<253 836>
VStem: 0 162<323 1171> 918 166<326 1163>
Fore
0 1493 m 1,0,-1
 1084 1493 l 1,1,-1
 1084 0 l 1,2,-1
 0 0 l 1,3,-1
 0 1493 l 1,0,-1
839 162 m 1,4,5
 800 220 800 220 763 273 c 128,-1,6
 726 326 726 326 691 378.5 c 128,-1,7
 656 431 656 431 619.5 485.5 c 128,-1,8
 583 540 583 540 543 601 c 1,9,10
 503 543 503 543 467 491 c 128,-1,11
 431 439 431 439 397.5 386 c 128,-1,12
 364 333 364 333 329 278 c 128,-1,13
 294 223 294 223 253 162 c 1,14,-1
 839 162 l 1,4,5
836 1331 m 1,15,-1
 253 1331 l 1,16,-1
 281 1285 l 2,17,18
 314 1235 314 1235 346 1188.5 c 128,-1,19
 378 1142 378 1142 408.5 1094 c 128,-1,20
 439 1046 439 1046 471 998 c 128,-1,21
 503 950 503 950 540 895 c 1,22,-1
 836 1331 l 1,15,-1
162 323 m 1,23,24
 234 428 234 428 301.5 532.5 c 128,-1,25
 369 637 369 637 445 748 c 1,26,27
 403 809 403 809 369.5 859 c 128,-1,28
 336 909 336 909 304 958 c 128,-1,29
 272 1007 272 1007 238.5 1057 c 128,-1,30
 205 1107 205 1107 162 1171 c 1,31,-1
 162 323 l 1,23,24
918 326 m 1,32,-1
 918 1163 l 1,33,34
 882 1110 882 1110 848.5 1058.5 c 128,-1,35
 815 1007 815 1007 780 958 c 128,-1,36
 745 909 745 909 711.5 856 c 128,-1,37
 678 803 678 803 640 748 c 1,38,-1
 918 326 l 1,32,-1
EndSplineSet
EndChar
StartChar: exclam
Encoding: 33 33 4
Width: 821
VWidth: 3198
Flags: W
HStem: -28 265<317.708 503.808> 1473 20G<281 540>
VStem: 278 265<11.1924 196.778> 348 125<419 759.835>
Fore
278 106 m 0,0,1
 278 159 278 159 316.5 198 c 128,-1,2
 355 237 355 237 412 237 c 0,3,4
 467 237 467 237 505 198 c 128,-1,5
 543 159 543 159 543 106 c 0,6,7
 543 48 543 48 505 10 c 128,-1,8
 467 -28 467 -28 412 -28 c 0,9,10
 355 -28 355 -28 316.5 10 c 128,-1,11
 278 48 278 48 278 106 c 0,0,1
281 1493 m 1,12,-1
 540 1493 l 1,13,-1
 473 672 l 1,14,-1
 473 419 l 1,15,-1
 348 419 l 1,16,-1
 348 672 l 1,17,-1
 281 1493 l 1,12,-1
EndSplineSet
EndChar
StartChar: quotedbl
Encoding: 34 34 5
Width: 940
VWidth: 3198
Flags: W
HStem: 937 556<201 361 583 742 201 742 201 201>
VStem: 201 160<937 1493> 583 159<937 1493>
Fore
361 1493 m 1,0,-1
 361 937 l 1,1,-1
 201 937 l 1,2,-1
 201 1493 l 1,3,-1
 361 1493 l 1,0,-1
742 1493 m 1,4,-1
 742 937 l 1,5,-1
 583 937 l 1,6,-1
 583 1493 l 1,7,-1
 742 1493 l 1,4,-1
EndSplineSet
EndChar
StartChar: numbersign
Encoding: 35 35 6
Width: 1713
VWidth: 3198
Flags: W
HStem: 0 21G<364 539.146 815 993.903> 412 153<156 467 675 921 1129 1443> 903 153<272 589 800 1043 1251 1557>
Fore
1043 903 m 1,0,-1
 757 903 l 1,1,-1
 675 565 l 1,2,-1
 959 565 l 1,3,-1
 1043 903 l 1,0,-1
903 1471 m 1,4,-1
 800 1056 l 1,5,-1
 1081 1056 l 1,6,-1
 1184 1471 l 1,7,-1
 1356 1471 l 1,8,-1
 1251 1056 l 1,9,-1
 1557 1056 l 1,10,-1
 1557 903 l 1,11,-1
 1212 903 l 1,12,-1
 1129 565 l 1,13,-1
 1443 565 l 1,14,-1
 1443 412 l 1,15,-1
 1090 412 l 1,16,-1
 989 0 l 1,17,-1
 815 0 l 1,18,-1
 921 412 l 1,19,-1
 640 412 l 1,20,-1
 534 0 l 1,21,-1
 364 0 l 1,22,-1
 467 412 l 1,23,-1
 156 412 l 1,24,-1
 156 565 l 1,25,-1
 506 565 l 1,26,-1
 589 903 l 1,27,-1
 272 903 l 1,28,-1
 272 1056 l 1,29,-1
 626 1056 l 1,30,-1
 729 1471 l 1,31,-1
 903 1471 l 1,4,-1
EndSplineSet
EndChar
StartChar: dollar
Encoding: 36 36 7
Width: 1300
VWidth: 3198
Flags: W
HStem: -31 98<405.482 589 690 830.372> 1187 101<449.55 589 690 836.906> 1534 20G<589 690>
VStem: 173 199<863.385 1097.56> 176 108<182.645 348> 589 101<-301 -31 67 522 768 1187 1288 1554> 921 211<169.375 413.573>
Fore
690 67 m 1,0,1
 803 77 803 77 862 133 c 128,-1,2
 921 189 921 189 921 281 c 0,3,4
 921 369 921 369 863.5 429 c 128,-1,5
 806 489 806 489 690 522 c 1,6,-1
 690 67 l 1,0,1
589 1187 m 1,7,8
 486 1181 486 1181 429 1127.5 c 128,-1,9
 372 1074 372 1074 372 985 c 0,10,11
 372 909 372 909 424 854.5 c 128,-1,12
 476 800 476 800 589 768 c 1,13,-1
 589 1187 l 1,7,8
176 70 m 1,14,-1
 176 348 l 1,15,-1
 284 348 l 1,16,17
 287 211 287 211 364.5 140.5 c 128,-1,18
 442 70 442 70 589 67 c 1,19,-1
 589 553 l 1,20,21
 361 617 361 617 267 700.5 c 128,-1,22
 173 784 173 784 173 921 c 0,23,24
 173 1081 173 1081 283.5 1178.5 c 128,-1,25
 394 1276 394 1276 589 1288 c 1,26,-1
 589 1554 l 1,27,-1
 690 1554 l 1,28,-1
 690 1288 l 1,29,30
 790 1279 790 1279 884.5 1255 c 128,-1,31
 979 1231 979 1231 1065 1190 c 1,32,-1
 1065 928 l 1,33,-1
 959 928 l 1,34,35
 946 1043 946 1043 877.5 1110.5 c 128,-1,36
 809 1178 809 1178 690 1187 c 1,37,-1
 690 736 l 1,38,39
 934 668 934 668 1033 581.5 c 128,-1,40
 1132 495 1132 495 1132 348 c 0,41,42
 1132 186 1132 186 1017.5 85 c 128,-1,43
 903 -16 903 -16 690 -31 c 1,44,-1
 690 -301 l 1,45,-1
 589 -301 l 1,46,-1
 589 -31 l 1,47,48
 492 -28 492 -28 389.5 -3 c 128,-1,49
 287 22 287 22 176 70 c 1,14,-1
EndSplineSet
EndChar
StartChar: percent
Encoding: 37 37 8
Width: 1944
VWidth: 3198
Flags: W
HStem: -28 92<1380.54 1594.21> 707 89<351.115 563.863 1397.85 1576.82> 1426 94<351.115 563.075>
VStem: 112 160<890.74 1332.39> 643 160<890.74 1332.39> 1142 160<157.9 599.74> 1673 160<157.9 597.375>
Fore
458 1426 m 256,0,1
 372 1426 372 1426 322 1343 c 128,-1,2
 272 1260 272 1260 272 1113 c 0,3,4
 272 962 272 962 322 879 c 128,-1,5
 372 796 372 796 458 796 c 256,6,7
 543 796 543 796 593 879 c 128,-1,8
 643 962 643 962 643 1113 c 0,9,10
 643 1260 643 1260 593 1343 c 128,-1,11
 543 1426 543 1426 458 1426 c 256,0,1
1487 693 m 256,12,13
 1401 693 1401 693 1351.5 609 c 128,-1,14
 1302 525 1302 525 1302 378 c 256,15,16
 1302 230 1302 230 1351.5 147 c 128,-1,17
 1401 64 1401 64 1487 64 c 256,18,19
 1574 64 1574 64 1623.5 147 c 128,-1,20
 1673 230 1673 230 1673 378 c 256,21,22
 1673 525 1673 525 1623.5 609 c 128,-1,23
 1574 693 1574 693 1487 693 c 256,12,13
1487 784 m 256,24,25
 1648 784 1648 784 1740.5 673 c 128,-1,26
 1833 562 1833 562 1833 378 c 256,27,28
 1833 192 1833 192 1740.5 82 c 128,-1,29
 1648 -28 1648 -28 1487 -28 c 256,30,31
 1327 -28 1327 -28 1234.5 82 c 128,-1,32
 1142 192 1142 192 1142 378 c 0,33,34
 1142 565 1142 565 1234.5 674.5 c 128,-1,35
 1327 784 1327 784 1487 784 c 256,24,25
1362 1520 m 1,36,-1
 1516 1520 l 1,37,-1
 583 -28 l 1,38,-1
 428 -28 l 1,39,-1
 1362 1520 l 1,36,-1
458 1520 m 0,40,41
 614 1520 614 1520 708.5 1409 c 128,-1,42
 803 1298 803 1298 803 1113 c 0,43,44
 803 925 803 925 710 816 c 128,-1,45
 617 707 617 707 458 707 c 256,46,47
 297 707 297 707 204.5 816 c 128,-1,48
 112 925 112 925 112 1113 c 0,49,50
 112 1298 112 1298 204.5 1409 c 128,-1,51
 297 1520 297 1520 458 1520 c 0,40,41
EndSplineSet
EndChar
StartChar: ampersand
Encoding: 38 38 9
Width: 1822
VWidth: 3198
Flags: W
HStem: -28 120<560.426 950.973> 0 106<1490 1727> 742 106<1215 1395 1516 1688> 1413 107<629.114 907.764>
VStem: 147 201<300.258 655.207> 355 192<1079 1333.8> 1395 121<543.349 742>
Fore
1107 230 m 1,0,-1
 525 845 l 1,1,2
 436 764 436 764 392 675 c 128,-1,3
 348 586 348 586 348 483 c 0,4,5
 348 317 348 317 463.5 204.5 c 128,-1,6
 579 92 579 92 751 92 c 0,7,8
 854 92 854 92 944 127 c 128,-1,9
 1034 162 1034 162 1107 230 c 1,0,-1
1727 0 m 1,10,-1
 1324 0 l 1,11,-1
 1187 144 l 1,12,13
 1084 58 1084 58 964.5 15 c 128,-1,14
 845 -28 845 -28 707 -28 c 0,15,16
 448 -28 448 -28 297.5 104.5 c 128,-1,17
 147 237 147 237 147 461 c 0,18,19
 147 595 147 595 222 710 c 128,-1,20
 297 825 297 825 454 925 c 1,21,22
 403 985 403 985 379 1046 c 128,-1,23
 355 1107 355 1107 355 1174 c 0,24,25
 355 1334 355 1334 470.5 1427 c 128,-1,26
 586 1520 586 1520 781 1520 c 0,27,28
 851 1520 851 1520 938.5 1503.5 c 128,-1,29
 1026 1487 1026 1487 1142 1452 c 1,30,-1
 1142 1193 l 1,31,-1
 1029 1193 l 1,32,33
 1014 1298 1014 1298 951.5 1355.5 c 128,-1,34
 889 1413 889 1413 778 1413 c 0,35,36
 675 1413 675 1413 611 1355.5 c 128,-1,37
 547 1298 547 1298 547 1209 c 0,38,39
 547 1148 547 1148 580.5 1087 c 128,-1,40
 614 1026 614 1026 723 915 c 2,41,-1
 1238 372 l 1,42,43
 1309 451 1309 451 1347 544 c 128,-1,44
 1385 637 1385 637 1395 742 c 1,45,-1
 1215 742 l 1,46,-1
 1215 848 l 1,47,-1
 1688 848 l 1,48,-1
 1688 742 l 1,49,-1
 1516 742 l 1,50,51
 1501 611 1501 611 1451 497.5 c 128,-1,52
 1401 384 1401 384 1318 287 c 1,53,-1
 1490 106 l 1,54,-1
 1727 106 l 1,55,-1
 1727 0 l 1,10,-1
EndSplineSet
EndChar
StartChar: quotesingle
Encoding: 39 39 10
Width: 562
VWidth: 3198
Flags: W
HStem: 937 556<201 361 201 361 201 201>
VStem: 201 160<937 1493>
Fore
361 1493 m 1,0,-1
 361 937 l 1,1,-1
 201 937 l 1,2,-1
 201 1493 l 1,3,-1
 361 1493 l 1,0,-1
EndSplineSet
EndChar
StartChar: parenleft
Encoding: 40 40 11
Width: 799
VWidth: 3198
Flags: W
HStem: 1534 20G<531 653>
VStem: 162 202<236.078 999.225> 162 491
Fore
653 -320 m 1,0,1
 409 -211 409 -211 285.5 25.5 c 128,-1,2
 162 262 162 262 162 617 c 0,3,4
 162 976 162 976 285.5 1211 c 128,-1,5
 409 1446 409 1446 653 1554 c 1,6,-1
 653 1459 l 1,7,8
 498 1349 498 1349 431 1157 c 128,-1,9
 364 965 364 965 364 617 c 256,10,11
 364 269 364 269 431 76.5 c 128,-1,12
 498 -116 498 -116 653 -220 c 1,13,-1
 653 -320 l 1,0,1
EndSplineSet
EndChar
StartChar: parenright
Encoding: 41 41 12
Width: 799
VWidth: 3198
Flags: W
HStem: 1534 20G<144 267>
VStem: 144 493 436 201<236.078 999.225>
Fore
144 -320 m 1,0,-1
 144 -220 l 1,1,2
 297 -116 297 -116 366.5 76.5 c 128,-1,3
 436 269 436 269 436 617 c 256,4,5
 436 965 436 965 366.5 1157 c 128,-1,6
 297 1349 297 1349 144 1459 c 1,7,-1
 144 1554 l 1,8,9
 390 1446 390 1446 513.5 1211 c 128,-1,10
 637 976 637 976 637 617 c 0,11,12
 637 262 637 262 513.5 25.5 c 128,-1,13
 390 -211 390 -211 144 -320 c 1,0,-1
EndSplineSet
EndChar
StartChar: asterisk
Encoding: 42 42 13
Width: 1022
VWidth: 3198
Flags: W
HStem: 1500 20G<445 579>
VStem: 445 134<589 779.5 779.5 779.5 779.5 970 1138 1329 1329 1329 1329 1520 589 1520 589 589>
Fore
992 1238 m 1,0,-1
 601 1056 l 1,1,-1
 992 870 l 1,2,-1
 915 751 l 1,3,-1
 565 970 l 1,4,-1
 579 589 l 1,5,-1
 445 589 l 1,6,-1
 458 970 l 1,7,-1
 109 751 l 1,8,-1
 31 870 l 1,9,-1
 422 1053 l 1,10,-1
 31 1238 l 1,11,-1
 109 1356 l 1,12,-1
 458 1138 l 1,13,-1
 445 1520 l 1,14,-1
 579 1520 l 1,15,-1
 565 1138 l 1,16,-1
 915 1356 l 1,17,-1
 992 1238 l 1,0,-1
EndSplineSet
EndChar
StartChar: plus
Encoding: 43 43 14
Width: 1713
VWidth: 3198
Flags: W
HStem: 0 21G<778 937> 559 164<217 778 937 1496>
VStem: 778 159<0 559 723 1282>
Fore
937 1282 m 1,0,-1
 937 723 l 1,1,-1
 1496 723 l 1,2,-1
 1496 559 l 1,3,-1
 937 559 l 1,4,-1
 937 0 l 1,5,-1
 778 0 l 1,6,-1
 778 559 l 1,7,-1
 217 559 l 1,8,-1
 217 723 l 1,9,-1
 778 723 l 1,10,-1
 778 1282 l 1,11,-1
 937 1282 l 1,0,-1
EndSplineSet
EndChar
StartChar: comma
Encoding: 44 44 15
Width: 651
VWidth: 3198
Flags: W
HStem: -278 504<153 256 256 256>
VStem: 256 195<5.50098 226>
Fore
73 -198 m 1,0,1
 166 -128 166 -128 211 -35 c 128,-1,2
 256 58 256 58 256 192 c 2,3,-1
 256 226 l 1,4,-1
 451 226 l 1,5,6
 445 55 445 55 371 -67 c 128,-1,7
 297 -189 297 -189 153 -278 c 1,8,-1
 73 -198 l 1,0,1
EndSplineSet
EndChar
StartChar: hyphen
Encoding: 45 45 16
Width: 690
VWidth: 3198
Flags: W
HStem: 470 156<89 601>
VStem: 89 512<470 626 470 626 470 470>
Fore
89 626 m 1,0,-1
 601 626 l 1,1,-1
 601 470 l 1,2,-1
 89 470 l 1,3,-1
 89 626 l 1,0,-1
EndSplineSet
EndChar
StartChar: period
Encoding: 46 46 17
Width: 651
VWidth: 3198
Flags: W
HStem: -28 265<231.708 418.293>
VStem: 192 266<11.1924 196.778>
Fore
192 106 m 0,0,1
 192 159 192 159 230.5 198 c 128,-1,2
 269 237 269 237 326 237 c 0,3,4
 381 237 381 237 419.5 198 c 128,-1,5
 458 159 458 159 458 106 c 0,6,7
 458 48 458 48 419.5 10 c 128,-1,8
 381 -28 381 -28 326 -28 c 0,9,10
 269 -28 269 -28 230.5 10 c 128,-1,11
 192 48 192 48 192 106 c 0,0,1
EndSplineSet
EndChar
StartChar: slash
Encoding: 47 47 18
Width: 690
VWidth: 3198
Flags: W
HStem: 1473 20G<524.697 690>
VStem: 0 690<-192 1493 -192 -192>
Fore
531 1493 m 1,0,-1
 690 1493 l 1,1,-1
 159 -192 l 1,2,-1
 0 -192 l 1,3,-1
 531 1493 l 1,0,-1
EndSplineSet
EndChar
StartChar: zero
Encoding: 48 48 19
Width: 1300
VWidth: 3198
Flags: W
HStem: -28 98<515.077 788.716> 1420 100<515.077 788.716>
VStem: 134 211<382.425 1108.06> 956 212<382.425 1108.06>
Fore
653 70 m 256,0,1
 806 70 806 70 881 238 c 128,-1,2
 956 406 956 406 956 745 c 256,3,4
 956 1084 956 1084 881 1252 c 128,-1,5
 806 1420 806 1420 653 1420 c 256,6,7
 498 1420 498 1420 421.5 1252 c 128,-1,8
 345 1084 345 1084 345 745 c 256,9,10
 345 406 345 406 421.5 238 c 128,-1,11
 498 70 498 70 653 70 c 256,0,1
653 -28 m 0,12,13
 406 -28 406 -28 270 175 c 128,-1,14
 134 378 134 378 134 745 c 256,15,16
 134 1113 134 1113 270 1316.5 c 128,-1,17
 406 1520 406 1520 653 1520 c 0,18,19
 895 1520 895 1520 1031.5 1316.5 c 128,-1,20
 1168 1113 1168 1113 1168 745 c 256,21,22
 1168 378 1168 378 1031.5 175 c 128,-1,23
 895 -28 895 -28 653 -28 c 0,12,13
EndSplineSet
EndChar
StartChar: one
Encoding: 49 49 20
Width: 1300
VWidth: 3198
Flags: W
HStem: 0 106<290 550 751 1010> 1500 20G<583.412 751>
VStem: 250 760<106 1151 1612 1871> 550 201<106 1346>
Fore
290 0 m 1,0,-1
 290 106 l 1,1,-1
 550 106 l 1,2,-1
 550 1346 l 1,3,-1
 250 1151 l 1,4,-1
 250 1282 l 1,5,-1
 614 1520 l 1,6,-1
 751 1520 l 1,7,-1
 751 106 l 1,8,-1
 1010 106 l 1,9,-1
 1010 0 l 1,10,-1
 290 0 l 1,0,-1
EndSplineSet
EndChar
StartChar: two
Encoding: 50 50 21
Width: 1300
VWidth: 3198
Flags: W
HStem: 0 162<361 985> 1420 100<387.81 743.305>
VStem: 150 112<1135 1292.35> 870 211<921.711 1288.02> 985 116<162 348>
Fore
262 1135 m 1,0,-1
 150 1135 l 1,1,-1
 150 1401 l 1,2,3
 256 1459 256 1459 364.5 1489.5 c 128,-1,4
 473 1520 473 1520 576 1520 c 0,5,6
 809 1520 809 1520 945 1406 c 128,-1,7
 1081 1292 1081 1292 1081 1101 c 0,8,9
 1081 879 1081 879 775 576 c 0,10,11
 751 553 751 553 739 540 c 2,12,-1
 361 162 l 1,13,-1
 985 162 l 1,14,-1
 985 348 l 1,15,-1
 1101 348 l 1,16,-1
 1101 0 l 1,17,-1
 141 0 l 1,18,-1
 141 109 l 1,19,-1
 592 559 l 2,20,21
 742 711 742 711 806 836.5 c 128,-1,22
 870 962 870 962 870 1101 c 0,23,24
 870 1251 870 1251 792 1335.5 c 128,-1,25
 714 1420 714 1420 576 1420 c 0,26,27
 431 1420 431 1420 353 1349.5 c 128,-1,28
 275 1279 275 1279 262 1135 c 1,0,-1
EndSplineSet
EndChar
StartChar: three
Encoding: 51 51 22
Width: 1300
VWidth: 3198
Flags: W
HStem: -28 98<442.488 793.342> 757 103<486 756.614> 1420 100<471.721 781.45>
VStem: 156 995<195 361 70 403 70 70> 156 113<205.433 361> 198 113<1168 1307.54> 885 202<990.611 1317.28> 940 211<215.444 598.449>
Fore
198 1429 m 1,0,1
 317 1474 317 1474 424 1497 c 128,-1,2
 531 1520 531 1520 623 1520 c 0,3,4
 845 1520 845 1520 966 1425.5 c 128,-1,5
 1087 1331 1087 1331 1087 1163 c 0,6,7
 1087 1026 1087 1026 1002.5 937 c 128,-1,8
 918 848 918 848 764 815 c 1,9,10
 946 787 946 787 1048.5 680 c 128,-1,11
 1151 573 1151 573 1151 403 c 0,12,13
 1151 195 1151 195 1010.5 83.5 c 128,-1,14
 870 -28 870 -28 604 -28 c 0,15,16
 489 -28 489 -28 377 -4.5 c 128,-1,17
 265 19 265 19 156 70 c 1,18,-1
 156 361 l 1,19,-1
 269 361 l 1,20,21
 278 217 278 217 364.5 143.5 c 128,-1,22
 451 70 451 70 611 70 c 0,23,24
 764 70 764 70 852 158.5 c 128,-1,25
 940 247 940 247 940 400 c 0,26,27
 940 576 940 576 848.5 666.5 c 128,-1,28
 757 757 757 757 583 757 c 2,29,-1
 486 757 l 1,30,-1
 486 860 l 1,31,-1
 537 860 l 2,32,33
 714 860 714 860 799.5 932 c 128,-1,34
 885 1004 885 1004 885 1151 c 0,35,36
 885 1282 885 1282 813.5 1351 c 128,-1,37
 742 1420 742 1420 608 1420 c 256,38,39
 473 1420 473 1420 398 1356 c 128,-1,40
 323 1292 323 1292 311 1168 c 1,41,-1
 198 1168 l 1,42,-1
 198 1429 l 1,0,1
EndSplineSet
EndChar
StartChar: four
Encoding: 52 52 23
Width: 1300
VWidth: 3198
Flags: W
HStem: 0 106<473 714 915 1154> 400 106<205 714 915 1199> 1500 20G<704.082 915>
VStem: 714 201<106 400 506 1298>
Fore
714 506 m 1,0,-1
 714 1298 l 1,1,-1
 205 506 l 1,2,-1
 714 506 l 1,0,-1
1154 0 m 1,3,-1
 473 0 l 1,4,-1
 473 106 l 1,5,-1
 714 106 l 1,6,-1
 714 400 l 1,7,-1
 64 400 l 1,8,-1
 64 509 l 1,9,-1
 717 1520 l 1,10,-1
 915 1520 l 1,11,-1
 915 506 l 1,12,-1
 1199 506 l 1,13,-1
 1199 400 l 1,14,-1
 915 400 l 1,15,-1
 915 106 l 1,16,-1
 1154 106 l 1,17,-1
 1154 0 l 1,3,-1
EndSplineSet
EndChar
StartChar: five
Encoding: 53 53 24
Width: 1300
VWidth: 3198
Flags: W
HStem: -28 98<453.645 780.87> 873 100<485.198 779.256> 1327 166<345 1029>
VStem: 173 972<237 361 70 473 70 70> 173 114<202.362 361> 241 104<903 1327> 934 211<244.8 701.915>
Fore
1029 1493 m 1,0,-1
 1029 1327 l 1,1,-1
 345 1327 l 1,2,-1
 345 903 l 1,3,4
 397 937 397 937 467 955 c 128,-1,5
 537 973 537 973 623 973 c 0,6,7
 864 973 864 973 1004.5 838.5 c 128,-1,8
 1145 704 1145 704 1145 473 c 0,9,10
 1145 237 1145 237 1002.5 104.5 c 128,-1,11
 860 -28 860 -28 604 -28 c 0,12,13
 503 -28 503 -28 395 -4.5 c 128,-1,14
 287 19 287 19 173 70 c 1,15,-1
 173 361 l 1,16,-1
 287 361 l 1,17,18
 297 217 297 217 377.5 143.5 c 128,-1,19
 458 70 458 70 604 70 c 0,20,21
 764 70 764 70 849 174 c 128,-1,22
 934 278 934 278 934 473 c 256,23,24
 934 668 934 668 849 770.5 c 128,-1,25
 764 873 764 873 604 873 c 0,26,27
 515 873 515 873 446.5 841 c 128,-1,28
 378 809 378 809 326 742 c 1,29,-1
 241 742 l 1,30,-1
 241 1493 l 1,31,-1
 1029 1493 l 1,0,-1
EndSplineSet
EndChar
StartChar: six
Encoding: 54 54 25
Width: 1300
VWidth: 3198
Flags: W
HStem: -28 98<515.301 824.443> 873 97<509.258 823.292> 1215 21G<976 1093> 1420 100<548.797 866.768>
VStem: 137 208<821 1053.06> 137 241<353.583 888.678> 962 212<244.911 707.067>
Fore
668 70 m 256,0,1
 809 70 809 70 885.5 172.5 c 128,-1,2
 962 275 962 275 962 470 c 256,3,4
 962 665 962 665 885.5 769 c 128,-1,5
 809 873 809 873 668 873 c 0,6,7
 525 873 525 873 451.5 772.5 c 128,-1,8
 378 672 378 672 378 483 c 0,9,10
 378 284 378 284 453 177 c 128,-1,11
 528 70 528 70 668 70 c 256,0,1
345 821 m 1,12,13
 412 895 412 895 497.5 932.5 c 128,-1,14
 583 970 583 970 690 970 c 0,15,16
 915 970 915 970 1044.5 837 c 128,-1,17
 1174 704 1174 704 1174 470 c 0,18,19
 1174 244 1174 244 1034.5 108 c 128,-1,20
 895 -28 895 -28 662 -28 c 0,21,22
 409 -28 409 -28 273 160 c 128,-1,23
 137 348 137 348 137 697 c 0,24,25
 137 1087 137 1087 297.5 1303.5 c 128,-1,26
 458 1520 458 1520 751 1520 c 0,27,28
 831 1520 831 1520 917.5 1505 c 128,-1,29
 1004 1490 1004 1490 1093 1459 c 1,30,-1
 1093 1215 l 1,31,-1
 982 1215 l 1,32,33
 970 1315 970 1315 906 1367.5 c 128,-1,34
 842 1420 842 1420 729 1420 c 0,35,36
 537 1420 537 1420 441 1273 c 128,-1,37
 345 1126 345 1126 345 821 c 1,12,13
EndSplineSet
EndChar
StartChar: seven
Encoding: 55 55 26
Width: 1300
VWidth: 3198
Flags: W
HStem: 0 21G<422 581.354> 1327 166<287 979>
VStem: 173 114<1145 1327> 173 981<1391 1493 1145 1391 1493 1493>
Fore
1154 1391 m 1,0,-1
 573 0 l 1,1,-1
 422 0 l 1,2,-1
 979 1327 l 1,3,-1
 287 1327 l 1,4,-1
 287 1145 l 1,5,-1
 173 1145 l 1,6,-1
 173 1493 l 1,7,-1
 1154 1493 l 1,8,-1
 1154 1391 l 1,0,-1
EndSplineSet
EndChar
StartChar: eight
Encoding: 56 56 27
Width: 1300
VWidth: 3198
Flags: W
HStem: -28 98<481.923 820.571> 745 100<501.08 804.562> 1420 100<495.963 807.529>
VStem: 137 211<211.151 596.819> 186 204<957.578 1311.19> 912 205<959.144 1311.19> 953 210<209.484 598.537>
Fore
953 406 m 256,0,1
 953 565 953 565 873 655 c 128,-1,2
 793 745 793 745 653 745 c 0,3,4
 509 745 509 745 428.5 655 c 128,-1,5
 348 565 348 565 348 406 c 256,6,7
 348 247 348 247 428.5 158.5 c 128,-1,8
 509 70 509 70 653 70 c 0,9,10
 793 70 793 70 873 158.5 c 128,-1,11
 953 247 953 247 953 406 c 256,0,1
912 1132 m 256,12,13
 912 1270 912 1270 843.5 1345 c 128,-1,14
 775 1420 775 1420 653 1420 c 0,15,16
 528 1420 528 1420 459 1345 c 128,-1,17
 390 1270 390 1270 390 1132 c 256,18,19
 390 995 390 995 459 920 c 128,-1,20
 528 845 528 845 653 845 c 0,21,22
 775 845 775 845 843.5 920 c 128,-1,23
 912 995 912 995 912 1132 c 256,12,13
806 793 m 1,24,25
 976 771 976 771 1069.5 668 c 128,-1,26
 1163 565 1163 565 1163 406 c 0,27,28
 1163 198 1163 198 1030.5 85 c 128,-1,29
 898 -28 898 -28 653 -28 c 0,30,31
 403 -28 403 -28 270 85 c 128,-1,32
 137 198 137 198 137 406 c 0,33,34
 137 565 137 565 231.5 668 c 128,-1,35
 326 771 326 771 498 793 c 1,36,37
 345 821 345 821 265.5 909.5 c 128,-1,38
 186 998 186 998 186 1132 c 0,39,40
 186 1312 186 1312 311 1416 c 128,-1,41
 436 1520 436 1520 653 1520 c 0,42,43
 867 1520 867 1520 992 1416 c 128,-1,44
 1117 1312 1117 1312 1117 1132 c 0,45,46
 1117 998 1117 998 1035 909.5 c 128,-1,47
 953 821 953 821 806 793 c 1,24,25
EndSplineSet
EndChar
StartChar: nine
Encoding: 57 57 28
Width: 1300
VWidth: 3198
Flags: W
HStem: -28 98<440.862 752.585> 522 95<476.604 791.399> 1420 100<476.846 787.564>
VStem: 128 211<783.427 1247.94> 925 238<597.713 1143.18> 959 204<430.287 668>
Fore
959 668 m 1,0,1
 889 595 889 595 803 558.5 c 128,-1,2
 717 522 717 522 608 522 c 0,3,4
 384 522 384 522 256 654.5 c 128,-1,5
 128 787 128 787 128 1020 c 0,6,7
 128 1248 128 1248 267 1384 c 128,-1,8
 406 1520 406 1520 640 1520 c 0,9,10
 895 1520 895 1520 1029 1331 c 128,-1,11
 1163 1142 1163 1142 1163 793 c 0,12,13
 1163 400 1163 400 1004 186 c 128,-1,14
 845 -28 845 -28 550 -28 c 0,15,16
 470 -28 470 -28 383.5 -14 c 128,-1,17
 297 0 297 0 208 31 c 1,18,-1
 208 278 l 1,19,-1
 320 278 l 1,20,21
 333 180 333 180 398.5 125 c 128,-1,22
 464 70 464 70 573 70 c 0,23,24
 764 70 764 70 858.5 215.5 c 128,-1,25
 953 361 953 361 959 668 c 1,0,1
634 1420 m 256,26,27
 492 1420 492 1420 415.5 1317.5 c 128,-1,28
 339 1215 339 1215 339 1020 c 256,29,30
 339 825 339 825 415.5 721 c 128,-1,31
 492 617 492 617 634 617 c 256,32,33
 775 617 775 617 850 717.5 c 128,-1,34
 925 818 925 818 925 1007 c 0,35,36
 925 1206 925 1206 850 1313 c 128,-1,37
 775 1420 775 1420 634 1420 c 256,26,27
EndSplineSet
EndChar
StartChar: colon
Encoding: 58 58 29
Width: 690
VWidth: 3198
Flags: W
HStem: -28 265<253.192 438.262> 623 266<253.192 439.808>
VStem: 214 265<11.1924 196.778 663.222 847.746>
Fore
214 106 m 0,0,1
 214 159 214 159 252 198 c 128,-1,2
 290 237 290 237 345 237 c 256,3,4
 400 237 400 237 439.5 198 c 128,-1,5
 479 159 479 159 479 106 c 0,6,7
 479 48 479 48 441 10 c 128,-1,8
 403 -28 403 -28 345 -28 c 256,9,10
 287 -28 287 -28 250.5 10 c 128,-1,11
 214 48 214 48 214 106 c 0,0,1
214 754 m 256,12,13
 214 809 214 809 252 849 c 128,-1,14
 290 889 290 889 345 889 c 0,15,16
 403 889 403 889 441 850.5 c 128,-1,17
 479 812 479 812 479 754 c 256,18,19
 479 697 479 697 441 660 c 128,-1,20
 403 623 403 623 345 623 c 0,21,22
 290 623 290 623 252 662 c 128,-1,23
 214 701 214 701 214 754 c 256,12,13
EndSplineSet
EndChar
StartChar: semicolon
Encoding: 59 59 30
Width: 690
VWidth: 3198
Flags: W
HStem: 623 266<256.707 443.292>
VStem: 217 266<663.222 847.746> 256 195<5.50098 226>
Fore
73 -198 m 1,0,1
 166 -128 166 -128 211 -35 c 128,-1,2
 256 58 256 58 256 192 c 2,3,-1
 256 226 l 1,4,-1
 451 226 l 1,5,6
 445 55 445 55 371 -67 c 128,-1,7
 297 -189 297 -189 153 -278 c 1,8,-1
 73 -198 l 1,0,1
217 754 m 256,9,10
 217 809 217 809 255.5 849 c 128,-1,11
 294 889 294 889 348 889 c 0,12,13
 406 889 406 889 444.5 849 c 128,-1,14
 483 809 483 809 483 754 c 256,15,16
 483 701 483 701 444.5 662 c 128,-1,17
 406 623 406 623 348 623 c 0,18,19
 294 623 294 623 255.5 662 c 128,-1,20
 217 701 217 701 217 754 c 256,9,10
EndSplineSet
EndChar
StartChar: less
Encoding: 60 60 31
Width: 1713
VWidth: 3198
Flags: W
Fore
1496 1020 m 1,0,-1
 461 640 l 1,1,-1
 1496 265 l 1,2,-1
 1496 92 l 1,3,-1
 217 559 l 1,4,-1
 217 726 l 1,5,-1
 1496 1190 l 1,6,-1
 1496 1020 l 1,0,-1
EndSplineSet
EndChar
StartChar: equal
Encoding: 61 61 32
Width: 1713
VWidth: 3198
Flags: W
HStem: 358 160<217 1496> 764 161<217 1496>
VStem: 217 1279<358 518 764 925 358 925 358 358>
Fore
217 925 m 1,0,-1
 1496 925 l 1,1,-1
 1496 764 l 1,2,-1
 217 764 l 1,3,-1
 217 925 l 1,0,-1
217 518 m 1,4,-1
 1496 518 l 1,5,-1
 1496 358 l 1,6,-1
 217 358 l 1,7,-1
 217 518 l 1,4,-1
EndSplineSet
EndChar
StartChar: greater
Encoding: 62 62 33
Width: 1713
VWidth: 3198
Flags: W
Fore
217 1020 m 1,0,-1
 217 1190 l 1,1,-1
 1496 726 l 1,2,-1
 1496 559 l 1,3,-1
 217 92 l 1,4,-1
 217 265 l 1,5,-1
 1254 640 l 1,6,-1
 217 1020 l 1,0,-1
EndSplineSet
EndChar
StartChar: question
Encoding: 63 63 34
Width: 1096
VWidth: 3198
Flags: W
HStem: -28 265<399.676 586.808> 1420 100<390.954 673.797>
VStem: 361 265<11.1924 196.778> 431 122<397 653> 787 211<934.778 1302.39>
Fore
361 106 m 0,0,1
 361 159 361 159 398.5 198 c 128,-1,2
 436 237 436 237 492 237 c 256,3,4
 550 237 550 237 588 198 c 128,-1,5
 626 159 626 159 626 106 c 0,6,7
 626 48 626 48 588 10 c 128,-1,8
 550 -28 550 -28 492 -28 c 256,9,10
 436 -28 436 -28 398.5 10 c 128,-1,11
 361 48 361 48 361 106 c 0,0,1
141 1426 m 1,12,13
 247 1474 247 1474 341.5 1497 c 128,-1,14
 436 1520 436 1520 522 1520 c 0,15,16
 742 1520 742 1520 870 1413 c 128,-1,17
 998 1306 998 1306 998 1123 c 0,18,19
 998 937 998 937 888 820.5 c 128,-1,20
 778 704 778 704 553 653 c 1,21,-1
 553 397 l 1,22,-1
 431 397 l 1,23,-1
 431 726 l 1,24,25
 608 768 608 768 697.5 869 c 128,-1,26
 787 970 787 970 787 1126 c 0,27,28
 787 1263 787 1263 713.5 1341.5 c 128,-1,29
 640 1420 640 1420 515 1420 c 0,30,31
 400 1420 400 1420 328 1354 c 128,-1,32
 256 1288 256 1288 237 1168 c 1,33,-1
 141 1168 l 1,34,-1
 141 1426 l 1,12,13
EndSplineSet
EndChar
StartChar: at
Encoding: 64 64 35
Width: 2045
VWidth: 3198
Flags: W
HStem: -355 102<807.782 1322.93> 86 115<891.847 1163.29> 870 115<891.847 1165.94> 1337 106<896.191 1350.13>
VStem: 134 171<252.822 824.998> 601 180<325.136 746.494> 1292 157<195 247 315.357 758.373 825 965> 1807 97<440.04 889.927>
Fore
1292 247 m 1,0,1
 1235 166 1235 166 1161 126 c 128,-1,2
 1087 86 1087 86 995 86 c 0,3,4
 818 86 818 86 709.5 211 c 128,-1,5
 601 336 601 336 601 537 c 0,6,7
 601 736 601 736 709.5 860.5 c 128,-1,8
 818 985 818 985 995 985 c 0,9,10
 1087 985 1087 985 1161 947 c 128,-1,11
 1235 909 1235 909 1292 825 c 1,12,-1
 1292 965 l 1,13,-1
 1449 965 l 1,14,-1
 1449 195 l 1,15,16
 1618 230 1618 230 1712.5 354.5 c 128,-1,17
 1807 479 1807 479 1807 668 c 0,18,19
 1807 781 1807 781 1773.5 880 c 128,-1,20
 1740 979 1740 979 1673 1062 c 0,21,22
 1568 1196 1568 1196 1414 1266.5 c 128,-1,23
 1260 1337 1260 1337 1084 1337 c 0,24,25
 992 1337 992 1337 903.5 1317.5 c 128,-1,26
 815 1298 815 1298 729 1260 c 0,27,28
 528 1168 528 1168 416.5 979 c 128,-1,29
 305 790 305 790 305 543 c 0,30,31
 305 378 305 378 355.5 235 c 128,-1,32
 406 92 406 92 498 -9 c 0,33,34
 608 -128 608 -128 758.5 -190.5 c 128,-1,35
 909 -253 909 -253 1081 -253 c 0,36,37
 1209 -253 1209 -253 1321.5 -214.5 c 128,-1,38
 1434 -176 1434 -176 1529 -98 c 1,39,-1
 1584 -170 l 1,40,41
 1474 -262 1474 -262 1336.5 -308.5 c 128,-1,42
 1199 -355 1199 -355 1037 -355 c 0,43,44
 854 -355 854 -355 688 -289 c 128,-1,45
 522 -223 522 -223 397 -98 c 0,46,47
 269 25 269 25 201.5 190 c 128,-1,48
 134 355 134 355 134 543 c 0,49,50
 134 726 134 726 201.5 889.5 c 128,-1,51
 269 1053 269 1053 397 1181 c 0,52,53
 525 1306 525 1306 696 1374.5 c 128,-1,54
 867 1443 867 1443 1062 1443 c 0,55,56
 1276 1443 1276 1443 1451.5 1359.5 c 128,-1,57
 1627 1276 1627 1276 1749 1120 c 0,58,59
 1823 1020 1823 1020 1863.5 906.5 c 128,-1,60
 1904 793 1904 793 1904 668 c 0,61,62
 1904 400 1904 400 1740.5 244.5 c 128,-1,63
 1577 89 1577 89 1292 86 c 1,64,-1
 1292 247 l 1,0,1
1292 486 m 2,65,-1
 1292 589 l 2,66,67
 1292 714 1292 714 1221.5 792 c 128,-1,68
 1151 870 1151 870 1037 870 c 0,69,70
 915 870 915 870 848 781.5 c 128,-1,71
 781 693 781 693 781 537 c 0,72,73
 781 378 781 378 848 289.5 c 128,-1,74
 915 201 915 201 1037 201 c 0,75,76
 1151 201 1151 201 1221.5 281 c 128,-1,77
 1292 361 1292 361 1292 486 c 2,65,-1
EndSplineSet
EndChar
StartChar: A
Encoding: 65 65 36
Width: 1477
VWidth: 3198
Flags: W
HStem: 0 106<-12 119 244 406 956 1123 1349 1496> 436 104<409 959> 1473 20G<645.3 825.657>
Fore
409 540 m 1,0,-1
 959 540 l 1,1,-1
 684 1251 l 1,2,-1
 409 540 l 1,0,-1
-12 0 m 1,3,-1
 -12 106 l 1,4,-1
 119 106 l 1,5,-1
 653 1493 l 1,6,-1
 818 1493 l 1,7,-1
 1349 106 l 1,8,-1
 1496 106 l 1,9,-1
 1496 0 l 1,10,-1
 956 0 l 1,11,-1
 956 106 l 1,12,-1
 1123 106 l 1,13,-1
 998 436 l 1,14,-1
 369 436 l 1,15,-1
 244 106 l 1,16,-1
 406 106 l 1,17,-1
 406 0 l 1,18,-1
 -12 0 l 1,3,-1
EndSplineSet
EndChar
StartChar: B
Encoding: 66 66 37
Width: 1502
VWidth: 3198
Flags: W
HStem: 0 106<112 305 506 1018.88> 754 106<506 973.936> 1385 108<112 305 506 973.936>
VStem: 305 201<106 754 860 1385> 1074 232<956.886 1289.47> 1151 228<233.213 620.956>
Fore
506 106 m 1,0,-1
 806 106 l 2,1,2
 985 106 985 106 1068 184 c 128,-1,3
 1151 262 1151 262 1151 431 c 256,4,5
 1151 601 1151 601 1068 677.5 c 128,-1,6
 985 754 985 754 806 754 c 2,7,-1
 506 754 l 1,8,-1
 506 106 l 1,0,-1
506 860 m 1,9,-1
 757 860 l 2,10,11
 925 860 925 860 999.5 922.5 c 128,-1,12
 1074 985 1074 985 1074 1123 c 256,13,14
 1074 1260 1074 1260 999.5 1322.5 c 128,-1,15
 925 1385 925 1385 757 1385 c 2,16,-1
 506 1385 l 1,17,-1
 506 860 l 1,9,-1
112 0 m 1,18,-1
 112 106 l 1,19,-1
 305 106 l 1,20,-1
 305 1385 l 1,21,-1
 112 1385 l 1,22,-1
 112 1493 l 1,23,-1
 851 1493 l 2,24,25
 1074 1493 1074 1493 1190 1401 c 128,-1,26
 1306 1309 1306 1309 1306 1123 c 0,27,28
 1306 992 1306 992 1225.5 911.5 c 128,-1,29
 1145 831 1145 831 992 815 c 1,30,31
 1184 790 1184 790 1281.5 692.5 c 128,-1,32
 1379 595 1379 595 1379 431 c 0,33,34
 1379 211 1379 211 1240 105.5 c 128,-1,35
 1101 0 1101 0 803 0 c 2,36,-1
 112 0 l 1,18,-1
EndSplineSet
EndChar
StartChar: C
Encoding: 67 67 38
Width: 1566
VWidth: 3198
Flags: W
HStem: -28 105<617.026 1045.3> 1413 107<617.051 1067.44>
VStem: 116 229<449.991 1040.84> 1260 183<211.335 397>
Fore
1443 397 m 1,0,1
 1379 186 1379 186 1222 79 c 128,-1,2
 1065 -28 1065 -28 828 -28 c 0,3,4
 681 -28 681 -28 556 21 c 128,-1,5
 431 70 431 70 336 166 c 0,6,7
 223 281 223 281 169.5 423 c 128,-1,8
 116 565 116 565 116 745 c 0,9,10
 116 1093 116 1093 315.5 1306.5 c 128,-1,11
 515 1520 515 1520 845 1520 c 0,12,13
 970 1520 970 1520 1106 1488 c 128,-1,14
 1242 1456 1242 1456 1401 1391 c 1,15,-1
 1401 1046 l 1,16,-1
 1288 1046 l 1,17,18
 1254 1235 1254 1235 1141.5 1324 c 128,-1,19
 1029 1413 1029 1413 828 1413 c 0,20,21
 589 1413 589 1413 467 1242 c 128,-1,22
 345 1071 345 1071 345 745 c 256,23,24
 345 419 345 419 467 248 c 128,-1,25
 589 77 589 77 828 77 c 0,26,27
 995 77 995 77 1103.5 157 c 128,-1,28
 1212 237 1212 237 1260 397 c 1,29,-1
 1443 397 l 1,0,1
EndSplineSet
EndChar
StartChar: D
Encoding: 68 68 39
Width: 1639
VWidth: 3198
Flags: W
HStem: 0 106<112 305 506 950.638> 1385 108<112 305 506 952.169>
VStem: 305 201<106 1385> 1292 231<460.561 1036.17>
Fore
506 106 m 1,0,-1
 690 106 l 2,1,2
 982 106 982 106 1137 272.5 c 128,-1,3
 1292 439 1292 439 1292 748 c 256,4,5
 1292 1059 1292 1059 1137 1222 c 128,-1,6
 982 1385 982 1385 690 1385 c 2,7,-1
 506 1385 l 1,8,-1
 506 106 l 1,0,-1
112 0 m 1,9,-1
 112 106 l 1,10,-1
 305 106 l 1,11,-1
 305 1385 l 1,12,-1
 112 1385 l 1,13,-1
 112 1493 l 1,14,-1
 707 1493 l 2,15,16
 1093 1493 1093 1493 1308 1297 c 128,-1,17
 1523 1101 1523 1101 1523 748 c 256,18,19
 1523 397 1523 397 1306.5 198.5 c 128,-1,20
 1090 0 1090 0 707 0 c 2,21,-1
 112 0 l 1,9,-1
EndSplineSet
EndChar
StartChar: E
Encoding: 69 69 40
Width: 1492
VWidth: 3198
Flags: W
HStem: 0 122<506 1209> 0 106<112 305> 748 122<506 995> 1370 123<506 1190> 1385 108<112 305>
VStem: 305 201<122 748 870 1370> 995 122<559 748 870 1056> 1190 125<1160 1370> 1209 122<122 333>
Fore
112 0 m 1,0,-1
 112 106 l 1,1,-1
 305 106 l 1,2,-1
 305 1385 l 1,3,-1
 112 1385 l 1,4,-1
 112 1493 l 1,5,-1
 1315 1493 l 1,6,-1
 1315 1160 l 1,7,-1
 1190 1160 l 1,8,-1
 1190 1370 l 1,9,-1
 506 1370 l 1,10,-1
 506 870 l 1,11,-1
 995 870 l 1,12,-1
 995 1056 l 1,13,-1
 1117 1056 l 1,14,-1
 1117 559 l 1,15,-1
 995 559 l 1,16,-1
 995 748 l 1,17,-1
 506 748 l 1,18,-1
 506 122 l 1,19,-1
 1209 122 l 1,20,-1
 1209 333 l 1,21,-1
 1331 333 l 1,22,-1
 1331 0 l 1,23,-1
 112 0 l 1,0,-1
EndSplineSet
EndChar
StartChar: F
Encoding: 70 70 41
Width: 1419
VWidth: 3198
Flags: W
HStem: 0 106<112 305 506 745> 748 122<506 1014> 1370 123<506 1212> 1385 108<112 305>
VStem: 305 201<106 748 870 1370> 1014 124<559 748 870 1056> 1212 122<1160 1370>
Fore
112 0 m 1,0,-1
 112 106 l 1,1,-1
 305 106 l 1,2,-1
 305 1385 l 1,3,-1
 112 1385 l 1,4,-1
 112 1493 l 1,5,-1
 1334 1493 l 1,6,-1
 1334 1160 l 1,7,-1
 1212 1160 l 1,8,-1
 1212 1370 l 1,9,-1
 506 1370 l 1,10,-1
 506 870 l 1,11,-1
 1014 870 l 1,12,-1
 1014 1056 l 1,13,-1
 1138 1056 l 1,14,-1
 1138 559 l 1,15,-1
 1014 559 l 1,16,-1
 1014 748 l 1,17,-1
 506 748 l 1,18,-1
 506 106 l 1,19,-1
 745 106 l 1,20,-1
 745 0 l 1,21,-1
 112 0 l 1,0,-1
EndSplineSet
EndChar
StartChar: G
Encoding: 71 71 42
Width: 1633
VWidth: 3198
Flags: W
HStem: -28 105<632.065 1101.32> 576 105<992 1270> 1413 107<626.676 1093.43>
VStem: 116 229<447.096 1046.43> 1270 204<192 576>
Fore
1312 1046 m 1,0,1
 1276 1235 1276 1235 1166 1324 c 128,-1,2
 1056 1413 1056 1413 857 1413 c 0,3,4
 598 1413 598 1413 471.5 1247 c 128,-1,5
 345 1081 345 1081 345 745 c 0,6,7
 345 415 345 415 474.5 246 c 128,-1,8
 604 77 604 77 860 77 c 0,9,10
 973 77 973 77 1077 105.5 c 128,-1,11
 1181 134 1181 134 1270 192 c 1,12,-1
 1270 576 l 1,13,-1
 992 576 l 1,14,-1
 992 681 l 1,15,-1
 1474 681 l 1,16,-1
 1474 125 l 1,17,18
 1340 48 1340 48 1187 10 c 128,-1,19
 1034 -28 1034 -28 860 -28 c 0,20,21
 522 -28 522 -28 319 183 c 128,-1,22
 116 394 116 394 116 745 c 0,23,24
 116 1101 116 1101 319 1310.5 c 128,-1,25
 522 1520 522 1520 867 1520 c 0,26,27
 995 1520 995 1520 1132.5 1489.5 c 128,-1,28
 1270 1459 1270 1459 1423 1401 c 1,29,-1
 1423 1046 l 1,30,-1
 1312 1046 l 1,0,1
EndSplineSet
EndChar
StartChar: H
Encoding: 72 72 43
Width: 1783
VWidth: 3198
Flags: W
HStem: 0 106<112 305 506 697 1087 1279 1480 1673> 748 122<506 1279> 1385 108<112 305 506 697 1087 1279 1480 1673>
VStem: 305 201<106 748 870 1385> 1279 201<106 748 870 1385>
Fore
112 0 m 1,0,-1
 112 106 l 1,1,-1
 305 106 l 1,2,-1
 305 1385 l 1,3,-1
 112 1385 l 1,4,-1
 112 1493 l 1,5,-1
 697 1493 l 1,6,-1
 697 1385 l 1,7,-1
 506 1385 l 1,8,-1
 506 870 l 1,9,-1
 1279 870 l 1,10,-1
 1279 1385 l 1,11,-1
 1087 1385 l 1,12,-1
 1087 1493 l 1,13,-1
 1673 1493 l 1,14,-1
 1673 1385 l 1,15,-1
 1480 1385 l 1,16,-1
 1480 106 l 1,17,-1
 1673 106 l 1,18,-1
 1673 0 l 1,19,-1
 1087 0 l 1,20,-1
 1087 106 l 1,21,-1
 1279 106 l 1,22,-1
 1279 748 l 1,23,-1
 506 748 l 1,24,-1
 506 106 l 1,25,-1
 697 106 l 1,26,-1
 697 0 l 1,27,-1
 112 0 l 1,0,-1
EndSplineSet
EndChar
StartChar: I
Encoding: 73 73 44
Width: 808
VWidth: 3198
Flags: W
HStem: 0 106<112 305 506 697> 1385 108<112 305 506 697>
VStem: 305 201<106 1385>
Fore
506 106 m 1,0,-1
 697 106 l 1,1,-1
 697 0 l 1,2,-1
 112 0 l 1,3,-1
 112 106 l 1,4,-1
 305 106 l 1,5,-1
 305 1385 l 1,6,-1
 112 1385 l 1,7,-1
 112 1493 l 1,8,-1
 697 1493 l 1,9,-1
 697 1385 l 1,10,-1
 506 1385 l 1,11,-1
 506 106 l 1,0,-1
EndSplineSet
EndChar
StartChar: J
Encoding: 74 74 45
Width: 821
VWidth: 3198
Flags: W
HStem: -425 105<13.7725 261.463> 1385 108<103 333 537 726>
VStem: -173 899<-358 1493 76 265> -173 115<-268.426 -122> 333 204<-229.681 1385>
Fore
-173 -358 m 1,0,-1
 -173 -122 l 1,1,-1
 -58 -122 l 1,2,3
 -55 -220 -55 -220 -12 -270 c 128,-1,4
 31 -320 31 -320 122 -320 c 0,5,6
 241 -320 241 -320 287 -245 c 128,-1,7
 333 -170 333 -170 333 48 c 2,8,-1
 333 1385 l 1,9,-1
 103 1385 l 1,10,-1
 103 1493 l 1,11,-1
 726 1493 l 1,12,-1
 726 1385 l 1,13,-1
 537 1385 l 1,14,-1
 537 42 l 2,15,16
 537 -208 537 -208 438 -316.5 c 128,-1,17
 339 -425 339 -425 119 -425 c 0,18,19
 48 -425 48 -425 -25 -407.5 c 128,-1,20
 -98 -390 -98 -390 -173 -358 c 1,0,-1
EndSplineSet
EndChar
StartChar: K
Encoding: 75 75 46
Width: 1527
VWidth: 3198
Flags: W
HStem: 0 106<112 305 506 697 1391 1560> 1385 108<112 305 506 697 985 1148 1315 1480>
VStem: 305 201<106 707 821 1385>
Fore
112 0 m 1,0,-1
 112 106 l 1,1,-1
 305 106 l 1,2,-1
 305 1385 l 1,3,-1
 112 1385 l 1,4,-1
 112 1493 l 1,5,-1
 697 1493 l 1,6,-1
 697 1385 l 1,7,-1
 506 1385 l 1,8,-1
 506 821 l 1,9,-1
 1148 1385 l 1,10,-1
 985 1385 l 1,11,-1
 985 1493 l 1,12,-1
 1480 1493 l 1,13,-1
 1480 1385 l 1,14,-1
 1315 1385 l 1,15,-1
 675 821 l 1,16,-1
 1391 106 l 1,17,-1
 1560 106 l 1,18,-1
 1560 0 l 1,19,-1
 1215 0 l 1,20,-1
 506 707 l 1,21,-1
 506 106 l 1,22,-1
 697 106 l 1,23,-1
 697 0 l 1,24,-1
 112 0 l 1,0,-1
EndSplineSet
EndChar
StartChar: L
Encoding: 76 76 47
Width: 1358
VWidth: 3198
Flags: W
HStem: 0 122<506 1187> 0 106<112 305> 1385 108<112 305 506 697>
VStem: 305 201<122 1385> 1187 125<122 372>
Fore
112 0 m 1,0,-1
 112 106 l 1,1,-1
 305 106 l 1,2,-1
 305 1385 l 1,3,-1
 112 1385 l 1,4,-1
 112 1493 l 1,5,-1
 697 1493 l 1,6,-1
 697 1385 l 1,7,-1
 506 1385 l 1,8,-1
 506 122 l 1,9,-1
 1187 122 l 1,10,-1
 1187 372 l 1,11,-1
 1312 372 l 1,12,-1
 1312 0 l 1,13,-1
 112 0 l 1,0,-1
EndSplineSet
EndChar
StartChar: M
Encoding: 77 77 48
Width: 2094
VWidth: 3198
Flags: W
HStem: 0 106<112 305 425 617 1401 1590 1794 1983> 1385 108<103 305 1794 1993>
VStem: 305 120<106 1260> 1590 204<106 1260>
Fore
112 0 m 1,0,-1
 112 106 l 1,1,-1
 305 106 l 1,2,-1
 305 1385 l 1,3,-1
 103 1385 l 1,4,-1
 103 1493 l 1,5,-1
 537 1493 l 1,6,-1
 1062 428 l 1,7,-1
 1584 1493 l 1,8,-1
 1993 1493 l 1,9,-1
 1993 1385 l 1,10,-1
 1794 1385 l 1,11,-1
 1794 106 l 1,12,-1
 1983 106 l 1,13,-1
 1983 0 l 1,14,-1
 1401 0 l 1,15,-1
 1401 106 l 1,16,-1
 1590 106 l 1,17,-1
 1590 1260 l 1,18,-1
 1078 217 l 1,19,-1
 937 217 l 1,20,-1
 425 1260 l 1,21,-1
 425 106 l 1,22,-1
 617 106 l 1,23,-1
 617 0 l 1,24,-1
 112 0 l 1,0,-1
EndSplineSet
EndChar
StartChar: N
Encoding: 78 78 49
Width: 1789
VWidth: 3198
Flags: W
HStem: -28 21G<1363.75 1501> 0 106<98 301 422 623> 1385 108<98 301 1178 1379 1501 1702>
VStem: 301 121<106 1227> 1379 122<317 1385>
Fore
98 0 m 1,0,-1
 98 106 l 1,1,-1
 301 106 l 1,2,-1
 301 1385 l 1,3,-1
 98 1385 l 1,4,-1
 98 1493 l 1,5,-1
 483 1493 l 1,6,-1
 1379 317 l 1,7,-1
 1379 1385 l 1,8,-1
 1178 1385 l 1,9,-1
 1178 1493 l 1,10,-1
 1702 1493 l 1,11,-1
 1702 1385 l 1,12,-1
 1501 1385 l 1,13,-1
 1501 -28 l 1,14,-1
 1379 -28 l 1,15,-1
 422 1227 l 1,16,-1
 422 106 l 1,17,-1
 623 106 l 1,18,-1
 623 0 l 1,19,-1
 98 0 l 1,0,-1
EndSplineSet
EndChar
StartChar: O
Encoding: 79 79 50
Width: 1678
VWidth: 3198
Flags: W
HStem: -28 105<619.666 1058.75> 1413 107<622.289 1054.93>
VStem: 116 229<447.855 1040.96> 1334 229<454.289 1041.79>
Fore
839 77 m 0,0,1
 1084 77 1084 77 1209 246 c 128,-1,2
 1334 415 1334 415 1334 745 c 256,3,4
 1334 1074 1334 1074 1209 1243.5 c 128,-1,5
 1084 1413 1084 1413 839 1413 c 0,6,7
 595 1413 595 1413 470 1243.5 c 128,-1,8
 345 1074 345 1074 345 745 c 256,9,10
 345 415 345 415 470 246 c 128,-1,11
 595 77 595 77 839 77 c 0,0,1
839 -28 m 0,12,13
 687 -28 687 -28 559 21 c 128,-1,14
 431 70 431 70 336 166 c 0,15,16
 223 281 223 281 169.5 421.5 c 128,-1,17
 116 562 116 562 116 745 c 0,18,19
 116 925 116 925 169.5 1067 c 128,-1,20
 223 1209 223 1209 336 1321 c 0,21,22
 436 1420 436 1420 560 1470 c 128,-1,23
 684 1520 684 1520 839 1520 c 0,24,25
 1163 1520 1163 1520 1363 1306.5 c 128,-1,26
 1563 1093 1563 1093 1563 745 c 0,27,28
 1563 565 1563 565 1507.5 421.5 c 128,-1,29
 1452 278 1452 278 1343 166 c 0,30,31
 1245 70 1245 70 1118.5 21 c 128,-1,32
 992 -28 992 -28 839 -28 c 0,12,13
EndSplineSet
EndChar
StartChar: P
Encoding: 80 80 51
Width: 1377
VWidth: 3198
Flags: W
HStem: 0 106<112 305 506 736> 653 104<506 949.494> 1385 108<112 305 506 949.494>
VStem: 305 201<106 653 757 1385> 1074 232<884.438 1260.14>
Fore
506 757 m 1,0,-1
 771 757 l 2,1,2
 918 757 918 757 996 839 c 128,-1,3
 1074 921 1074 921 1074 1071 c 0,4,5
 1074 1224 1074 1224 996 1304.5 c 128,-1,6
 918 1385 918 1385 771 1385 c 2,7,-1
 506 1385 l 1,8,-1
 506 757 l 1,0,-1
112 0 m 1,9,-1
 112 106 l 1,10,-1
 305 106 l 1,11,-1
 305 1385 l 1,12,-1
 112 1385 l 1,13,-1
 112 1493 l 1,14,-1
 818 1493 l 2,15,16
 1043 1493 1043 1493 1174.5 1380 c 128,-1,17
 1306 1267 1306 1267 1306 1071 c 0,18,19
 1306 879 1306 879 1174.5 766 c 128,-1,20
 1043 653 1043 653 818 653 c 2,21,-1
 506 653 l 1,22,-1
 506 106 l 1,23,-1
 736 106 l 1,24,-1
 736 0 l 1,25,-1
 112 0 l 1,9,-1
EndSplineSet
EndChar
StartChar: Q
Encoding: 81 81 52
Width: 1678
VWidth: 3198
Flags: W
HStem: -326 182<1134.9 1349> -28 105<627.047 864> 1413 107<622.289 1054.93>
VStem: 116 229<445.88 1040.96> 1334 229<448.105 1041.79>
Fore
864 -28 m 1,0,1
 522 -28 522 -28 319 181 c 128,-1,2
 116 390 116 390 116 745 c 0,3,4
 116 925 116 925 169.5 1067 c 128,-1,5
 223 1209 223 1209 336 1321 c 0,6,7
 436 1420 436 1420 560 1470 c 128,-1,8
 684 1520 684 1520 839 1520 c 0,9,10
 1163 1520 1163 1520 1363 1306.5 c 128,-1,11
 1563 1093 1563 1093 1563 745 c 0,12,13
 1563 448 1563 448 1415 246.5 c 128,-1,14
 1267 45 1267 45 1001 -12 c 1,15,16
 1056 -80 1056 -80 1132.5 -112 c 128,-1,17
 1209 -144 1209 -144 1318 -144 c 2,18,-1
 1349 -144 l 1,19,-1
 1349 -326 l 1,20,21
 1181 -320 1181 -320 1060.5 -245 c 128,-1,22
 940 -170 940 -170 864 -28 c 1,0,1
839 77 m 0,23,24
 1084 77 1084 77 1209 246 c 128,-1,25
 1334 415 1334 415 1334 745 c 256,26,27
 1334 1074 1334 1074 1209 1243.5 c 128,-1,28
 1084 1413 1084 1413 839 1413 c 0,29,30
 595 1413 595 1413 470 1243.5 c 128,-1,31
 345 1074 345 1074 345 745 c 256,32,33
 345 415 345 415 470 246 c 128,-1,34
 595 77 595 77 839 77 c 0,23,24
EndSplineSet
EndChar
StartChar: R
Encoding: 82 82 53
Width: 1541
VWidth: 3198
Flags: W
HStem: 0 106<112 305 506 717 1407 1590> 693 107<506 880.786> 1385 108<112 305 506 988.403>
VStem: 305 201<106 693 800 1385> 1093 231<906.59 1280.23>
Fore
982 742 m 1,0,1
 1049 723 1049 723 1100 676 c 128,-1,2
 1151 629 1151 629 1190 550 c 2,3,-1
 1407 106 l 1,4,-1
 1590 106 l 1,5,-1
 1590 0 l 1,6,-1
 1238 0 l 1,7,-1
 1004 473 l 2,8,9
 937 611 937 611 882.5 652 c 128,-1,10
 828 693 828 693 729 693 c 2,11,-1
 506 693 l 1,12,-1
 506 106 l 1,13,-1
 717 106 l 1,14,-1
 717 0 l 1,15,-1
 112 0 l 1,16,-1
 112 106 l 1,17,-1
 305 106 l 1,18,-1
 305 1385 l 1,19,-1
 112 1385 l 1,20,-1
 112 1493 l 1,21,-1
 870 1493 l 2,22,23
 1087 1493 1087 1493 1205.5 1387.5 c 128,-1,24
 1324 1282 1324 1282 1324 1093 c 0,25,26
 1324 940 1324 940 1237.5 852 c 128,-1,27
 1151 764 1151 764 982 742 c 1,0,1
506 800 m 1,28,-1
 800 800 l 2,29,30
 953 800 953 800 1023 871.5 c 128,-1,31
 1093 943 1093 943 1093 1093 c 0,32,33
 1093 1242 1093 1242 1023 1313.5 c 128,-1,34
 953 1385 953 1385 800 1385 c 2,35,-1
 506 1385 l 1,36,-1
 506 800 l 1,28,-1
EndSplineSet
EndChar
StartChar: S
Encoding: 83 83 54
Width: 1400
VWidth: 3198
Flags: W
HStem: -28 105<512.147 917.111> 1413 107<480.447 860.592>
VStem: 173 196<1015.2 1308.44> 192 113<231.429 412> 1053 201<197.773 505.258> 1065 113<1113 1269.3>
Fore
192 70 m 1,0,-1
 192 412 l 1,1,-1
 305 412 l 1,2,3
 311 244 311 244 404.5 160.5 c 128,-1,4
 498 77 498 77 687 77 c 0,5,6
 867 77 867 77 960 147 c 128,-1,7
 1053 217 1053 217 1053 355 c 0,8,9
 1053 464 1053 464 996.5 520 c 128,-1,10
 940 576 940 576 757 634 c 2,11,-1
 559 690 l 2,12,13
 345 757 345 757 259 853.5 c 128,-1,14
 173 950 173 950 173 1120 c 0,15,16
 173 1312 173 1312 307.5 1416 c 128,-1,17
 442 1520 442 1520 684 1520 c 0,18,19
 790 1520 790 1520 913.5 1497 c 128,-1,20
 1037 1474 1037 1474 1178 1429 c 1,21,-1
 1178 1113 l 1,22,-1
 1065 1113 l 1,23,24
 1049 1270 1049 1270 959.5 1341.5 c 128,-1,25
 870 1413 870 1413 690 1413 c 0,26,27
 531 1413 531 1413 450 1347.5 c 128,-1,28
 369 1282 369 1282 369 1160 c 0,29,30
 369 1056 369 1056 430.5 993.5 c 128,-1,31
 492 931 492 931 690 873 c 2,32,-1
 876 815 l 2,33,34
 1078 754 1078 754 1166 659.5 c 128,-1,35
 1254 565 1254 565 1254 406 c 0,36,37
 1254 192 1254 192 1115 82 c 128,-1,38
 976 -28 976 -28 701 -28 c 0,39,40
 576 -28 576 -28 448 -4.5 c 128,-1,41
 320 19 320 19 192 70 c 1,0,-1
EndSplineSet
EndChar
StartChar: T
Encoding: 84 84 55
Width: 1364
VWidth: 3198
Flags: W
HStem: 0 106<390 583 784 976> 1373 120<144 583 784 1221>
VStem: 19 125<1138 1373> 583 201<106 1373> 1221 122<1138 1373>
Fore
390 0 m 1,0,-1
 390 106 l 1,1,-1
 583 106 l 1,2,-1
 583 1373 l 1,3,-1
 144 1373 l 1,4,-1
 144 1138 l 1,5,-1
 19 1138 l 1,6,-1
 19 1493 l 1,7,-1
 1343 1493 l 1,8,-1
 1343 1138 l 1,9,-1
 1221 1138 l 1,10,-1
 1221 1373 l 1,11,-1
 784 1373 l 1,12,-1
 784 106 l 1,13,-1
 976 106 l 1,14,-1
 976 0 l 1,15,-1
 390 0 l 1,0,-1
EndSplineSet
EndChar
StartChar: U
Encoding: 85 85 56
Width: 1725
VWidth: 3198
Flags: W
HStem: -28 131<671.834 1140.64> 1385 108<95 287 489 678 1129 1321 1443 1635>
VStem: 287 202<305.25 1385> 1321 122<303.375 1385>
Fore
287 1385 m 1,0,-1
 95 1385 l 1,1,-1
 95 1493 l 1,2,-1
 678 1493 l 1,3,-1
 678 1385 l 1,4,-1
 489 1385 l 1,5,-1
 489 614 l 2,6,7
 489 326 489 326 582 214.5 c 128,-1,8
 675 103 675 103 906 103 c 256,9,10
 1135 103 1135 103 1228 214.5 c 128,-1,11
 1321 326 1321 326 1321 614 c 2,12,-1
 1321 1385 l 1,13,-1
 1129 1385 l 1,14,-1
 1129 1493 l 1,15,-1
 1635 1493 l 1,16,-1
 1635 1385 l 1,17,-1
 1443 1385 l 1,18,-1
 1443 595 l 2,19,20
 1443 253 1443 253 1312 112.5 c 128,-1,21
 1181 -28 1181 -28 867 -28 c 256,22,23
 553 -28 553 -28 420 114 c 128,-1,24
 287 256 287 256 287 595 c 2,25,-1
 287 1385 l 1,0,-1
EndSplineSet
EndChar
StartChar: V
Encoding: 86 86 57
Width: 1477
VWidth: 3198
Flags: W
HStem: 0 21G<651.332 838.668> 1385 108<-19 128 358 525 1071 1238 1362 1510>
Fore
358 1385 m 1,0,-1
 800 241 l 1,1,-1
 1238 1385 l 1,2,-1
 1071 1385 l 1,3,-1
 1071 1493 l 1,4,-1
 1510 1493 l 1,5,-1
 1510 1385 l 1,6,-1
 1362 1385 l 1,7,-1
 831 0 l 1,8,-1
 659 0 l 1,9,-1
 128 1385 l 1,10,-1
 -19 1385 l 1,11,-1
 -19 1493 l 1,12,-1
 525 1493 l 1,13,-1
 525 1385 l 1,14,-1
 358 1385 l 1,0,-1
EndSplineSet
EndChar
StartChar: W
Encoding: 87 87 58
Width: 2103
VWidth: 3198
Flags: W
HStem: 0 21G<544.31 719.63 1389.42 1565.65> 1385 108<9 156 369 553 1669 1840 1951 2097>
Fore
1560 0 m 1,0,-1
 1395 0 l 1,1,-1
 1056 1215 l 1,2,-1
 714 0 l 1,3,-1
 550 0 l 1,4,-1
 156 1385 l 1,5,-1
 9 1385 l 1,6,-1
 9 1493 l 1,7,-1
 553 1493 l 1,8,-1
 553 1385 l 1,9,-1
 369 1385 l 1,10,-1
 678 281 l 1,11,-1
 1020 1493 l 1,12,-1
 1181 1493 l 1,13,-1
 1526 269 l 1,14,-1
 1840 1385 l 1,15,-1
 1669 1385 l 1,16,-1
 1669 1493 l 1,17,-1
 2097 1493 l 1,18,-1
 2097 1385 l 1,19,-1
 1951 1385 l 1,20,-1
 1560 0 l 1,0,-1
EndSplineSet
EndChar
StartChar: X
Encoding: 88 88 59
Width: 1457
VWidth: 3198
Flags: W
HStem: 0 106<12 186 314 506 857 1034 1288 1446> 1385 108<19 180 436 611 889 1084 1212 1379>
Fore
678 640 m 1,0,-1
 314 106 l 1,1,-1
 506 106 l 1,2,-1
 506 0 l 1,3,-1
 12 0 l 1,4,-1
 12 106 l 1,5,-1
 186 106 l 1,6,-1
 614 732 l 1,7,-1
 180 1385 l 1,8,-1
 19 1385 l 1,9,-1
 19 1493 l 1,10,-1
 611 1493 l 1,11,-1
 611 1385 l 1,12,-1
 436 1385 l 1,13,-1
 754 906 l 1,14,-1
 1084 1385 l 1,15,-1
 889 1385 l 1,16,-1
 889 1493 l 1,17,-1
 1379 1493 l 1,18,-1
 1379 1385 l 1,19,-1
 1212 1385 l 1,20,-1
 815 809 l 1,21,-1
 1288 106 l 1,22,-1
 1446 106 l 1,23,-1
 1446 0 l 1,24,-1
 857 0 l 1,25,-1
 857 106 l 1,26,-1
 1034 106 l 1,27,-1
 678 640 l 1,0,-1
EndSplineSet
EndChar
StartChar: Y
Encoding: 89 89 60
Width: 1349
VWidth: 3198
Flags: W
HStem: 0 106<387 576 781 970> 1385 108<-22 116 358 531 934 1104 1227 1370>
VStem: 576 205<106 643>
Fore
387 0 m 1,0,-1
 387 106 l 1,1,-1
 576 106 l 1,2,-1
 576 643 l 1,3,-1
 116 1385 l 1,4,-1
 -22 1385 l 1,5,-1
 -22 1493 l 1,6,-1
 531 1493 l 1,7,-1
 531 1385 l 1,8,-1
 358 1385 l 1,9,-1
 729 781 l 1,10,-1
 1104 1385 l 1,11,-1
 934 1385 l 1,12,-1
 934 1493 l 1,13,-1
 1370 1493 l 1,14,-1
 1370 1385 l 1,15,-1
 1227 1385 l 1,16,-1
 781 662 l 1,17,-1
 781 106 l 1,18,-1
 970 106 l 1,19,-1
 970 0 l 1,20,-1
 387 0 l 1,0,-1
EndSplineSet
EndChar
StartChar: Z
Encoding: 90 90 61
Width: 1422
VWidth: 3198
Flags: W
HStem: 0 122<378 1218> 1370 123<250 1020>
VStem: 128 122<1145 1370> 1218 125<122 333>
Fore
92 0 m 1,0,-1
 92 70 l 1,1,-1
 1020 1370 l 1,2,-1
 250 1370 l 1,3,-1
 250 1145 l 1,4,-1
 128 1145 l 1,5,-1
 128 1493 l 1,6,-1
 1306 1493 l 1,7,-1
 1306 1420 l 1,8,-1
 378 122 l 1,9,-1
 1218 122 l 1,10,-1
 1218 333 l 1,11,-1
 1343 333 l 1,12,-1
 1343 0 l 1,13,-1
 92 0 l 1,0,-1
EndSplineSet
EndChar
StartChar: bracketleft
Encoding: 91 91 62
Width: 799
VWidth: 3198
Flags: W
HStem: -269 107<369 640> 1449 105<369 640>
VStem: 176 193<-162 1449> 176 464<-269 -162 1449 1554>
Fore
176 1554 m 1,0,-1
 640 1554 l 1,1,-1
 640 1449 l 1,2,-1
 369 1449 l 1,3,-1
 369 -162 l 1,4,-1
 640 -162 l 1,5,-1
 640 -269 l 1,6,-1
 176 -269 l 1,7,-1
 176 1554 l 1,0,-1
EndSplineSet
EndChar
StartChar: backslash
Encoding: 92 92 63
Width: 690
VWidth: 3198
Flags: W
HStem: 1473 20G<0 165.303>
VStem: 0 690<-192 1493 1493 1493>
Fore
159 1493 m 1,0,-1
 690 -192 l 1,1,-1
 531 -192 l 1,2,-1
 0 1493 l 1,3,-1
 159 1493 l 1,0,-1
EndSplineSet
EndChar
StartChar: bracketright
Encoding: 93 93 64
Width: 799
VWidth: 3198
Flags: W
HStem: -269 107<156 431> -269 1823<431 623 156 623 623 623> 1449 105<156 431>
VStem: 431 192<-162 1449>
Fore
623 1554 m 1,0,-1
 623 -269 l 1,1,-1
 156 -269 l 1,2,-1
 156 -162 l 1,3,-1
 431 -162 l 1,4,-1
 431 1449 l 1,5,-1
 156 1449 l 1,6,-1
 156 1554 l 1,7,-1
 623 1554 l 1,0,-1
EndSplineSet
EndChar
StartChar: asciicircum
Encoding: 94 94 65
Width: 1713
VWidth: 3198
Flags: W
HStem: 934 559<956 1496 956 956>
Fore
956 1493 m 1,0,-1
 1496 934 l 1,1,-1
 1343 934 l 1,2,-1
 857 1318 l 1,3,-1
 372 934 l 1,4,-1
 217 934 l 1,5,-1
 757 1493 l 1,6,-1
 956 1493 l 1,0,-1
EndSplineSet
EndChar
StartChar: underscore
Encoding: 95 95 66
Width: 1022
VWidth: 3198
Flags: W
HStem: -483 80<0 1023 0 1023 1.53064e-18 1.53064e-18>
Fore
1023 -403 m 1,0,-1
 1023 -483 l 1,1,-1
 0 -483 l 1,2,-1
 0 -403 l 1,3,-1
 1023 -403 l 1,0,-1
EndSplineSet
EndChar
StartChar: grave
Encoding: 96 96 67
Width: 1022
VWidth: 3198
Flags: W
HStem: 1260 375<369 626 369 369>
Fore
369 1635 m 1,0,-1
 626 1260 l 1,1,-1
 509 1260 l 1,2,-1
 170 1635 l 1,3,-1
 369 1635 l 1,0,-1
EndSplineSet
EndChar
StartChar: a
Encoding: 97 97 68
Width: 1218
VWidth: 3198
Flags: W
HStem: -28 105<401.223 683.059> 0 106<998 1163> 559 106<396.026 815> 992 98<407.042 710.439>
VStem: 103 205<168.343 476.539> 815 183<106 116 177.335 559 665 884.524>
Fore
815 333 m 2,0,-1
 815 559 l 1,1,-1
 576 559 l 2,2,3
 442 559 442 559 375 500.5 c 128,-1,4
 308 442 308 442 308 320 c 0,5,6
 308 208 308 208 375 142.5 c 128,-1,7
 442 77 442 77 559 77 c 0,8,9
 675 77 675 77 745 147 c 128,-1,10
 815 217 815 217 815 333 c 2,0,-1
998 662 m 2,11,-1
 998 106 l 1,12,-1
 1163 106 l 1,13,-1
 1163 0 l 1,14,-1
 815 0 l 1,15,-1
 815 116 l 1,16,17
 754 42 754 42 674.5 7 c 128,-1,18
 595 -28 595 -28 486 -28 c 0,19,20
 311 -28 311 -28 207 65.5 c 128,-1,21
 103 159 103 159 103 320 c 0,22,23
 103 483 103 483 221 574 c 128,-1,24
 339 665 339 665 556 665 c 2,25,-1
 815 665 l 1,26,-1
 815 739 l 2,27,28
 815 860 815 860 741.5 926 c 128,-1,29
 668 992 668 992 534 992 c 0,30,31
 425 992 425 992 359.5 942 c 128,-1,32
 294 892 294 892 278 793 c 1,33,-1
 186 793 l 1,34,-1
 186 1010 l 1,35,36
 281 1049 281 1049 371 1069.5 c 128,-1,37
 461 1090 461 1090 547 1090 c 0,38,39
 768 1090 768 1090 883 981.5 c 128,-1,40
 998 873 998 873 998 662 c 2,11,-1
EndSplineSet
Substitution2: "Single Substitution lookup 22 subtable" uni0E38
Substitution2: "Single Substitution lookup 22 subtable" uni0E38
EndChar
StartChar: b
Encoding: 98 98 69
Width: 1310
VWidth: 3198
Flags: W
HStem: -28 114<559.34 856.711> 0 106<61 237> 976 114<559.34 856.711> 1449 105<61 237>
VStem: 237 182<106 166 234.847 827.153 895 1449> 992 217<266.821 793.955>
Fore
237 106 m 1,0,-1
 237 1449 l 1,1,-1
 61 1449 l 1,2,-1
 61 1554 l 1,3,-1
 419 1554 l 1,4,-1
 419 895 l 1,5,6
 473 998 473 998 556.5 1044 c 128,-1,7
 640 1090 640 1090 764 1090 c 0,8,9
 959 1090 959 1090 1084 935.5 c 128,-1,10
 1209 781 1209 781 1209 531 c 256,11,12
 1209 281 1209 281 1084 126.5 c 128,-1,13
 959 -28 959 -28 764 -28 c 0,14,15
 640 -28 640 -28 556.5 18 c 128,-1,16
 473 64 473 64 419 166 c 1,17,-1
 419 0 l 1,18,-1
 61 0 l 1,19,-1
 61 106 l 1,20,-1
 237 106 l 1,0,-1
419 479 m 2,21,22
 419 287 419 287 492 186.5 c 128,-1,23
 565 86 565 86 707 86 c 256,24,25
 848 86 848 86 920 198.5 c 128,-1,26
 992 311 992 311 992 531 c 0,27,28
 992 754 992 754 920 865 c 128,-1,29
 848 976 848 976 707 976 c 256,30,31
 565 976 565 976 492 875.5 c 128,-1,32
 419 775 419 775 419 583 c 2,33,-1
 419 479 l 2,21,22
EndSplineSet
Substitution2: "Single Substitution lookup 22 subtable" uni0E39
Substitution2: "Single Substitution lookup 22 subtable" uni0E39
EndChar
StartChar: c
Encoding: 99 99 70
Width: 1144
VWidth: 3198
Flags: W
HStem: -28 98<462.75 782.541> 992 98<462.75 759.501>
VStem: 103 950<278 320 320 531 531 531> 103 214<278.226 784.75> 906 147<141.521 320>
Fore
1053 320 m 1,0,1
 1014 150 1014 150 903.5 61 c 128,-1,2
 793 -28 793 -28 617 -28 c 0,3,4
 384 -28 384 -28 243.5 125 c 128,-1,5
 103 278 103 278 103 531 c 0,6,7
 103 787 103 787 243.5 938.5 c 128,-1,8
 384 1090 384 1090 617 1090 c 0,9,10
 717 1090 717 1090 817.5 1066.5 c 128,-1,11
 918 1043 918 1043 1017 998 c 1,12,-1
 1017 726 l 1,13,-1
 912 726 l 1,14,15
 889 864 889 864 818.5 928 c 128,-1,16
 748 992 748 992 617 992 c 0,17,18
 470 992 470 992 393.5 876.5 c 128,-1,19
 317 761 317 761 317 531 c 256,20,21
 317 301 317 301 393.5 185.5 c 128,-1,22
 470 70 470 70 617 70 c 0,23,24
 736 70 736 70 807.5 132.5 c 128,-1,25
 879 195 879 195 906 320 c 1,26,-1
 1053 320 l 1,0,1
EndSplineSet
Substitution2: "Single Substitution lookup 22 subtable" uni0E3A
Substitution2: "Single Substitution lookup 22 subtable" uni0E3A
EndChar
StartChar: d
Encoding: 100 100 71
Width: 1310
VWidth: 3198
Flags: W
HStem: -28 114<456.449 751.062> 0 106<1074 1251> 976 114<456.449 751.062> 1449 105<717 889>
VStem: 103 214<266.821 796.168> 889 185<106 166 234.847 827.153 895 1449>
Fore
1074 106 m 1,0,-1
 1251 106 l 1,1,-1
 1251 0 l 1,2,-1
 889 0 l 1,3,-1
 889 166 l 1,4,5
 839 64 839 64 753.5 18 c 128,-1,6
 668 -28 668 -28 547 -28 c 0,7,8
 348 -28 348 -28 225.5 126.5 c 128,-1,9
 103 281 103 281 103 531 c 256,10,11
 103 781 103 781 225.5 935.5 c 128,-1,12
 348 1090 348 1090 547 1090 c 0,13,14
 668 1090 668 1090 753.5 1044 c 128,-1,15
 839 998 839 998 889 895 c 1,16,-1
 889 1449 l 1,17,-1
 717 1449 l 1,18,-1
 717 1554 l 1,19,-1
 1074 1554 l 1,20,-1
 1074 106 l 1,0,-1
889 479 m 2,21,-1
 889 583 l 2,22,23
 889 775 889 775 815.5 875.5 c 128,-1,24
 742 976 742 976 604 976 c 0,25,26
 464 976 464 976 390.5 865 c 128,-1,27
 317 754 317 754 317 531 c 0,28,29
 317 311 317 311 390.5 198.5 c 128,-1,30
 464 86 464 86 604 86 c 0,31,32
 742 86 742 86 815.5 186.5 c 128,-1,33
 889 287 889 287 889 479 c 2,21,-1
EndSplineSet
EndChar
StartChar: e
Encoding: 101 101 72
Width: 1211
VWidth: 3198
Flags: W
HStem: -28 98<466.953 807.355> 512 105<317 892> 992 98<458.658 760.269>
VStem: 103 214<279.669 512 617 783.984> 103 1007<515.285 612.717> 892 218<617 786.201> 943 147<144.323 320>
Fore
1110 512 m 1,0,-1
 317 512 l 1,1,-1
 317 503 l 2,2,3
 317 287 317 287 398 178.5 c 128,-1,4
 479 70 479 70 637 70 c 0,5,6
 757 70 757 70 834.5 132.5 c 128,-1,7
 912 195 912 195 943 320 c 1,8,-1
 1090 320 l 1,9,10
 1049 147 1049 147 929 59.5 c 128,-1,11
 809 -28 809 -28 617 -28 c 0,12,13
 384 -28 384 -28 243.5 125 c 128,-1,14
 103 278 103 278 103 531 c 256,15,16
 103 784 103 784 242 937 c 128,-1,17
 381 1090 381 1090 604 1090 c 0,18,19
 848 1090 848 1090 977.5 941.5 c 128,-1,20
 1107 793 1107 793 1110 512 c 1,0,-1
892 617 m 1,21,22
 885 806 885 806 813.5 899 c 128,-1,23
 742 992 742 992 604 992 c 0,24,25
 479 992 479 992 406 897.5 c 128,-1,26
 333 803 333 803 317 617 c 1,27,-1
 892 617 l 1,21,22
EndSplineSet
EndChar
StartChar: f
Encoding: 102 102 73
Width: 757
VWidth: 3198
Flags: W
HStem: 0 106<73 250 436 668> 956 106<73 250 436 729> 1459 95<488.055 722.932>
VStem: 250 186<106 956 1062 1398.49> 784 95<1306 1417.74>
Fore
879 1306 m 1,0,-1
 784 1306 l 1,1,2
 781 1379 781 1379 741 1419 c 128,-1,3
 701 1459 701 1459 620 1459 c 0,4,5
 518 1459 518 1459 477 1401 c 128,-1,6
 436 1343 436 1343 436 1199 c 2,7,-1
 436 1062 l 1,8,-1
 729 1062 l 1,9,-1
 729 956 l 1,10,-1
 436 956 l 1,11,-1
 436 106 l 1,12,-1
 668 106 l 1,13,-1
 668 0 l 1,14,-1
 73 0 l 1,15,-1
 73 106 l 1,16,-1
 250 106 l 1,17,-1
 250 956 l 1,18,-1
 73 956 l 1,19,-1
 73 1062 l 1,20,-1
 250 1062 l 1,21,-1
 250 1196 l 2,22,23
 250 1373 250 1373 343 1463.5 c 128,-1,24
 436 1554 436 1554 614 1554 c 0,25,26
 681 1554 681 1554 748 1543 c 128,-1,27
 815 1532 815 1532 879 1507 c 1,28,-1
 879 1306 l 1,0,-1
EndSplineSet
EndChar
StartChar: g
Encoding: 103 103 74
Width: 1310
VWidth: 3198
Flags: W
HStem: -454 99<426.318 760.901> -28 114<456.449 751.062> 956 106<1074 1251> 976 114<456.449 751.062>
VStem: 103 214<266.821 796.168> 889 185<-212 166 234.847 827.153 895 956>
Fore
1074 956 m 1,0,-1
 1074 22 l 2,1,2
 1074 -208 1074 -208 947.5 -331 c 128,-1,3
 821 -454 821 -454 589 -454 c 0,4,5
 486 -454 486 -454 390 -436.5 c 128,-1,6
 294 -419 294 -419 205 -378 c 1,7,-1
 205 -156 l 1,8,-1
 301 -156 l 1,9,10
 320 -259 320 -259 385.5 -307 c 128,-1,11
 451 -355 451 -355 576 -355 c 0,12,13
 739 -355 739 -355 814 -264 c 128,-1,14
 889 -173 889 -173 889 22 c 2,15,-1
 889 166 l 1,16,17
 839 64 839 64 753.5 18 c 128,-1,18
 668 -28 668 -28 547 -28 c 0,19,20
 348 -28 348 -28 225.5 126.5 c 128,-1,21
 103 281 103 281 103 531 c 256,22,23
 103 781 103 781 225.5 935.5 c 128,-1,24
 348 1090 348 1090 547 1090 c 0,25,26
 668 1090 668 1090 753.5 1044 c 128,-1,27
 839 998 839 998 889 895 c 1,28,-1
 889 1062 l 1,29,-1
 1251 1062 l 1,30,-1
 1251 956 l 1,31,-1
 1074 956 l 1,0,-1
889 583 m 2,32,33
 889 775 889 775 815.5 875.5 c 128,-1,34
 742 976 742 976 604 976 c 0,35,36
 464 976 464 976 390.5 865 c 128,-1,37
 317 754 317 754 317 531 c 0,38,39
 317 311 317 311 390.5 198.5 c 128,-1,40
 464 86 464 86 604 86 c 0,41,42
 742 86 742 86 815.5 186.5 c 128,-1,43
 889 287 889 287 889 479 c 2,44,-1
 889 583 l 2,32,33
EndSplineSet
EndChar
StartChar: h
Encoding: 104 104 75
Width: 1316
VWidth: 3198
Flags: W
HStem: 0 106<83 250 436 595 754 912 1096 1260> 956 134<581.851 837.775> 1449 105<73 250>
VStem: 250 186<106 829.148 873 1449> 912 184<106 875.118>
Fore
83 0 m 1,0,-1
 83 106 l 1,1,-1
 250 106 l 1,2,-1
 250 1449 l 1,3,-1
 73 1449 l 1,4,-1
 73 1554 l 1,5,-1
 436 1554 l 1,6,-1
 436 873 l 1,7,8
 486 982 486 982 566.5 1036 c 128,-1,9
 647 1090 647 1090 754 1090 c 0,10,11
 931 1090 931 1090 1013.5 989.5 c 128,-1,12
 1096 889 1096 889 1096 675 c 2,13,-1
 1096 106 l 1,14,-1
 1260 106 l 1,15,-1
 1260 0 l 1,16,-1
 754 0 l 1,17,-1
 754 106 l 1,18,-1
 912 106 l 1,19,-1
 912 617 l 2,20,21
 912 812 912 812 863.5 884 c 128,-1,22
 815 956 815 956 697 956 c 0,23,24
 565 956 565 956 500.5 863.5 c 128,-1,25
 436 771 436 771 436 592 c 2,26,-1
 436 106 l 1,27,-1
 595 106 l 1,28,-1
 595 0 l 1,29,-1
 83 0 l 1,0,-1
EndSplineSet
EndChar
StartChar: i
Encoding: 105 105 76
Width: 654
VWidth: 3198
Flags: W
HStem: 0 106<73 250 436 608> 956 106<73 250> 1279 228<232.551 390.451>
VStem: 198 227<1312 1472.45> 250 186<106 956>
Fore
198 1391 m 256,0,1
 198 1440 198 1440 231.5 1473.5 c 128,-1,2
 265 1507 265 1507 314 1507 c 0,3,4
 358 1507 358 1507 391.5 1473.5 c 128,-1,5
 425 1440 425 1440 425 1391 c 256,6,7
 425 1343 425 1343 393 1311 c 128,-1,8
 361 1279 361 1279 314 1279 c 256,9,10
 265 1279 265 1279 231.5 1311 c 128,-1,11
 198 1343 198 1343 198 1391 c 256,0,1
436 106 m 1,12,-1
 608 106 l 1,13,-1
 608 0 l 1,14,-1
 73 0 l 1,15,-1
 73 106 l 1,16,-1
 250 106 l 1,17,-1
 250 956 l 1,18,-1
 73 956 l 1,19,-1
 73 1062 l 1,20,-1
 436 1062 l 1,21,-1
 436 106 l 1,12,-1
EndSplineSet
EndChar
StartChar: j
Encoding: 106 106 77
Width: 632
VWidth: 3198
Flags: W
HStem: -454 99<-29.7601 191.97> 956 106<77 250> 1279 228<239.55 396.451>
VStem: 205 226<1312 1472.45> 250 186<-292.593 956>
Fore
205 1391 m 256,0,1
 205 1440 205 1440 238.5 1473.5 c 128,-1,2
 272 1507 272 1507 320 1507 c 0,3,4
 364 1507 364 1507 397.5 1473.5 c 128,-1,5
 431 1440 431 1440 431 1391 c 256,6,7
 431 1343 431 1343 400 1311 c 128,-1,8
 369 1279 369 1279 320 1279 c 256,9,10
 272 1279 272 1279 238.5 1311 c 128,-1,11
 205 1343 205 1343 205 1391 c 256,0,1
250 956 m 1,12,-1
 77 956 l 1,13,-1
 77 1062 l 1,14,-1
 436 1062 l 1,15,-1
 436 -106 l 2,16,17
 436 -269 436 -269 338.5 -361.5 c 128,-1,18
 241 -454 241 -454 67 -454 c 0,19,20
 -3 -454 -3 -454 -68.5 -438 c 128,-1,21
 -134 -422 -134 -422 -195 -390 c 1,22,-1
 -195 -170 l 1,23,-1
 -103 -170 l 1,24,25
 -92 -265 -92 -265 -50.5 -310 c 128,-1,26
 -9 -355 -9 -355 70 -355 c 0,27,28
 162 -355 162 -355 206 -294.5 c 128,-1,29
 250 -234 250 -234 250 -106 c 2,30,-1
 250 956 l 1,12,-1
EndSplineSet
EndChar
StartChar: k
Encoding: 107 107 78
Width: 1239
VWidth: 3198
Flags: W
HStem: 0 106<70 237 419 586 729 882 1101 1254> 956 106<714 867 1014 1196> 1449 105<61 237>
VStem: 237 182<106 406 543 1449>
Fore
586 0 m 1,0,-1
 70 0 l 1,1,-1
 70 106 l 1,2,-1
 237 106 l 1,3,-1
 237 1449 l 1,4,-1
 61 1449 l 1,5,-1
 61 1554 l 1,6,-1
 419 1554 l 1,7,-1
 419 543 l 1,8,-1
 867 956 l 1,9,-1
 714 956 l 1,10,-1
 714 1062 l 1,11,-1
 1196 1062 l 1,12,-1
 1196 956 l 1,13,-1
 1014 956 l 1,14,-1
 697 662 l 1,15,-1
 1101 106 l 1,16,-1
 1254 106 l 1,17,-1
 1254 0 l 1,18,-1
 729 0 l 1,19,-1
 729 106 l 1,20,-1
 882 106 l 1,21,-1
 565 543 l 1,22,-1
 419 406 l 1,23,-1
 419 106 l 1,24,-1
 586 106 l 1,25,-1
 586 0 l 1,0,-1
EndSplineSet
EndChar
StartChar: l
Encoding: 108 108 79
Width: 654
VWidth: 3198
Flags: W
HStem: 0 106<61 237 419 595> 1449 105<61 237>
VStem: 237 182<106 1449>
Fore
419 106 m 1,0,-1
 595 106 l 1,1,-1
 595 0 l 1,2,-1
 61 0 l 1,3,-1
 61 106 l 1,4,-1
 237 106 l 1,5,-1
 237 1449 l 1,6,-1
 61 1449 l 1,7,-1
 61 1554 l 1,8,-1
 419 1554 l 1,9,-1
 419 106 l 1,0,-1
EndSplineSet
EndChar
StartChar: m
Encoding: 109 109 80
Width: 1941
VWidth: 3198
Flags: W
HStem: 0 106<83 250 436 595 732 892 1078 1238 1376 1535 1721 1883> 956 134<579.527 823.392 1217.26 1463.39> 959 103<73 250>
VStem: 250 186<106 832.482 873 959> 892 186<106 829.148> 1535 186<106 879.918>
Fore
1062 857 m 1,0,1
 1113 973 1113 973 1196 1031.5 c 128,-1,2
 1279 1090 1279 1090 1388 1090 c 0,3,4
 1554 1090 1554 1090 1637.5 986 c 128,-1,5
 1721 882 1721 882 1721 675 c 2,6,-1
 1721 106 l 1,7,-1
 1883 106 l 1,8,-1
 1883 0 l 1,9,-1
 1376 0 l 1,10,-1
 1376 106 l 1,11,-1
 1535 106 l 1,12,-1
 1535 656 l 2,13,14
 1535 815 1535 815 1487.5 885.5 c 128,-1,15
 1440 956 1440 956 1327 956 c 0,16,17
 1206 956 1206 956 1142 863.5 c 128,-1,18
 1078 771 1078 771 1078 592 c 2,19,-1
 1078 106 l 1,20,-1
 1238 106 l 1,21,-1
 1238 0 l 1,22,-1
 732 0 l 1,23,-1
 732 106 l 1,24,-1
 892 106 l 1,25,-1
 892 662 l 2,26,27
 892 821 892 821 844 888.5 c 128,-1,28
 796 956 796 956 684 956 c 0,29,30
 562 956 562 956 499 863.5 c 128,-1,31
 436 771 436 771 436 592 c 2,32,-1
 436 106 l 1,33,-1
 595 106 l 1,34,-1
 595 0 l 1,35,-1
 83 0 l 1,36,-1
 83 106 l 1,37,-1
 250 106 l 1,38,-1
 250 959 l 1,39,-1
 73 959 l 1,40,-1
 73 1062 l 1,41,-1
 436 1062 l 1,42,-1
 436 873 l 1,43,44
 486 982 486 982 564.5 1036 c 128,-1,45
 643 1090 643 1090 742 1090 c 0,46,47
 867 1090 867 1090 950.5 1030 c 128,-1,48
 1034 970 1034 970 1062 857 c 1,0,1
EndSplineSet
EndChar
StartChar: n
Encoding: 110 110 81
Width: 1316
VWidth: 3198
Flags: W
HStem: 0 106<83 250 436 595 754 912 1096 1260> 956 106<73 250> 959 131<581.851 837.775>
VStem: 250 186<106 830.177 873 956> 912 184<106 878.342>
Fore
83 0 m 1,0,-1
 83 106 l 1,1,-1
 250 106 l 1,2,-1
 250 956 l 1,3,-1
 73 956 l 1,4,-1
 73 1062 l 1,5,-1
 436 1062 l 1,6,-1
 436 873 l 1,7,8
 486 982 486 982 566.5 1036 c 128,-1,9
 647 1090 647 1090 754 1090 c 0,10,11
 931 1090 931 1090 1013.5 989.5 c 128,-1,12
 1096 889 1096 889 1096 675 c 2,13,-1
 1096 106 l 1,14,-1
 1260 106 l 1,15,-1
 1260 0 l 1,16,-1
 754 0 l 1,17,-1
 754 106 l 1,18,-1
 912 106 l 1,19,-1
 912 617 l 2,20,21
 912 812 912 812 863.5 885.5 c 128,-1,22
 815 959 815 959 697 959 c 0,23,24
 565 959 565 959 500.5 865 c 128,-1,25
 436 771 436 771 436 592 c 2,26,-1
 436 106 l 1,27,-1
 595 106 l 1,28,-1
 595 0 l 1,29,-1
 83 0 l 1,0,-1
EndSplineSet
EndChar
StartChar: o
Encoding: 111 111 82
Width: 1230
VWidth: 3198
Flags: W
HStem: -28 98<465.883 768.128> 992 98<465.883 768.128>
VStem: 103 214<279.559 785.822> 915 214<277.153 785.822>
Fore
617 70 m 256,0,1
 764 70 764 70 839.5 187.5 c 128,-1,2
 915 305 915 305 915 531 c 256,3,4
 915 757 915 757 839.5 874.5 c 128,-1,5
 764 992 764 992 617 992 c 256,6,7
 470 992 470 992 393.5 874.5 c 128,-1,8
 317 757 317 757 317 531 c 256,9,10
 317 305 317 305 393.5 187.5 c 128,-1,11
 470 70 470 70 617 70 c 256,0,1
617 -28 m 256,12,13
 384 -28 384 -28 243.5 125 c 128,-1,14
 103 278 103 278 103 531 c 0,15,16
 103 787 103 787 243.5 938.5 c 128,-1,17
 384 1090 384 1090 617 1090 c 256,18,19
 851 1090 851 1090 990 938.5 c 128,-1,20
 1129 787 1129 787 1129 531 c 0,21,22
 1129 278 1129 278 990 125 c 128,-1,23
 851 -28 851 -28 617 -28 c 256,12,13
EndSplineSet
EndChar
StartChar: p
Encoding: 112 112 83
Width: 1310
VWidth: 3198
Flags: W
HStem: -425 105<61 237 419 595> -28 114<559.34 856.711> 956 106<61 237> 976 114<559.34 856.711>
VStem: 237 182<-320 166 234.847 827.153 895 956> 992 217<266.821 793.955>
Fore
419 583 m 2,0,-1
 419 479 l 2,1,2
 419 287 419 287 492 186.5 c 128,-1,3
 565 86 565 86 707 86 c 256,4,5
 848 86 848 86 920 198.5 c 128,-1,6
 992 311 992 311 992 531 c 0,7,8
 992 754 992 754 920 865 c 128,-1,9
 848 976 848 976 707 976 c 256,10,11
 565 976 565 976 492 875.5 c 128,-1,12
 419 775 419 775 419 583 c 2,0,-1
237 956 m 1,13,-1
 61 956 l 1,14,-1
 61 1062 l 1,15,-1
 419 1062 l 1,16,-1
 419 895 l 1,17,18
 473 998 473 998 556.5 1044 c 128,-1,19
 640 1090 640 1090 764 1090 c 0,20,21
 959 1090 959 1090 1084 935.5 c 128,-1,22
 1209 781 1209 781 1209 531 c 256,23,24
 1209 281 1209 281 1084 126.5 c 128,-1,25
 959 -28 959 -28 764 -28 c 0,26,27
 640 -28 640 -28 556.5 18 c 128,-1,28
 473 64 473 64 419 166 c 1,29,-1
 419 -320 l 1,30,-1
 595 -320 l 1,31,-1
 595 -425 l 1,32,-1
 61 -425 l 1,33,-1
 61 -320 l 1,34,-1
 237 -320 l 1,35,-1
 237 956 l 1,13,-1
EndSplineSet
EndChar
StartChar: q
Encoding: 113 113 84
Width: 1310
VWidth: 3198
Flags: W
HStem: -425 105<717 889 1074 1251> -28 114<456.449 751.062> 956 106<1074 1251> 976 114<456.449 751.062>
VStem: 103 214<266.821 796.168> 889 185<-320 166 234.847 827.153 895 956>
Fore
1074 956 m 1,0,-1
 1074 -320 l 1,1,-1
 1251 -320 l 1,2,-1
 1251 -425 l 1,3,-1
 717 -425 l 1,4,-1
 717 -320 l 1,5,-1
 889 -320 l 1,6,-1
 889 166 l 1,7,8
 839 64 839 64 753.5 18 c 128,-1,9
 668 -28 668 -28 547 -28 c 0,10,11
 348 -28 348 -28 225.5 126.5 c 128,-1,12
 103 281 103 281 103 531 c 256,13,14
 103 781 103 781 225.5 935.5 c 128,-1,15
 348 1090 348 1090 547 1090 c 0,16,17
 668 1090 668 1090 753.5 1044 c 128,-1,18
 839 998 839 998 889 895 c 1,19,-1
 889 1062 l 1,20,-1
 1251 1062 l 1,21,-1
 1251 956 l 1,22,-1
 1074 956 l 1,0,-1
889 583 m 2,23,24
 889 775 889 775 815.5 875.5 c 128,-1,25
 742 976 742 976 604 976 c 0,26,27
 464 976 464 976 390.5 865 c 128,-1,28
 317 754 317 754 317 531 c 0,29,30
 317 311 317 311 390.5 198.5 c 128,-1,31
 464 86 464 86 604 86 c 0,32,33
 742 86 742 86 815.5 186.5 c 128,-1,34
 889 287 889 287 889 479 c 2,35,-1
 889 583 l 2,23,24
EndSplineSet
EndChar
StartChar: r
Encoding: 114 114 85
Width: 977
VWidth: 3198
Flags: W
HStem: 0 106<83 250 436 647> 956 134<584.93 830.584> 959 103<73 250 73 979 73 73>
VStem: 250 186<106 816.951 873 959>
Fore
979 1065 m 1,0,-1
 979 800 l 1,1,-1
 873 800 l 1,2,3
 867 879 867 879 828.5 917.5 c 128,-1,4
 790 956 790 956 714 956 c 0,5,6
 579 956 579 956 507.5 862 c 128,-1,7
 436 768 436 768 436 592 c 2,8,-1
 436 106 l 1,9,-1
 647 106 l 1,10,-1
 647 0 l 1,11,-1
 83 0 l 1,12,-1
 83 106 l 1,13,-1
 250 106 l 1,14,-1
 250 959 l 1,15,-1
 73 959 l 1,16,-1
 73 1062 l 1,17,-1
 436 1062 l 1,18,-1
 436 873 l 1,19,20
 486 985 486 985 571 1037.5 c 128,-1,21
 656 1090 656 1090 781 1090 c 0,22,23
 825 1090 825 1090 875 1084 c 128,-1,24
 925 1078 925 1078 979 1065 c 1,0,-1
EndSplineSet
EndChar
StartChar: s
Encoding: 115 115 86
Width: 1047
VWidth: 3198
Flags: W
HStem: -28 98<354.682 688.475> 992 98<347.64 656.662>
VStem: 116 174<722.703 940.07> 116 104<162.969 308> 757 189<134.047 360.118> 781 108<775 906.567>
Fore
116 61 m 1,0,-1
 116 308 l 1,1,-1
 220 308 l 1,2,3
 223 189 223 189 296 129.5 c 128,-1,4
 369 70 369 70 503 70 c 0,5,6
 626 70 626 70 691.5 116 c 128,-1,7
 757 162 757 162 757 253 c 0,8,9
 757 320 757 320 709.5 363 c 128,-1,10
 662 406 662 406 509 458 c 2,11,-1
 378 503 l 2,12,13
 241 547 241 547 178.5 612.5 c 128,-1,14
 116 678 116 678 116 781 c 0,15,16
 116 925 116 925 224.5 1007.5 c 128,-1,17
 333 1090 333 1090 522 1090 c 0,18,19
 604 1090 604 1090 697 1069.5 c 128,-1,20
 790 1049 790 1049 889 1004 c 1,21,-1
 889 775 l 1,22,-1
 781 775 l 1,23,24
 778 876 778 876 710.5 934 c 128,-1,25
 643 992 643 992 525 992 c 0,26,27
 409 992 409 992 349.5 952 c 128,-1,28
 290 912 290 912 290 828 c 0,29,30
 290 761 290 761 335.5 721 c 128,-1,31
 381 681 381 681 515 640 c 2,32,-1
 662 595 l 2,33,34
 812 547 812 547 879 476.5 c 128,-1,35
 946 406 946 406 946 294 c 0,36,37
 946 144 946 144 830 58 c 128,-1,38
 714 -28 714 -28 512 -28 c 0,39,40
 409 -28 409 -28 311.5 -8 c 128,-1,41
 214 12 214 12 116 61 c 1,0,-1
EndSplineSet
EndChar
StartChar: t
Encoding: 116 116 87
Width: 821
VWidth: 3198
Flags: W
HStem: -28 98<430.907 631.585> 956 106<61 220 406 751>
VStem: 220 186<108.181 956 1062 1391> 668 138<114.356 250>
Fore
220 956 m 1,0,-1
 61 956 l 1,1,-1
 61 1062 l 1,2,-1
 220 1062 l 1,3,-1
 220 1391 l 1,4,-1
 406 1391 l 1,5,-1
 406 1062 l 1,6,-1
 751 1062 l 1,7,-1
 751 956 l 1,8,-1
 406 956 l 1,9,-1
 406 281 l 2,10,11
 406 144 406 144 432 107 c 128,-1,12
 458 70 458 70 528 70 c 0,13,14
 601 70 601 70 633 113 c 128,-1,15
 665 156 665 156 668 250 c 1,16,-1
 806 250 l 1,17,18
 800 106 800 106 728 39 c 128,-1,19
 656 -28 656 -28 512 -28 c 0,20,21
 351 -28 351 -28 285.5 42 c 128,-1,22
 220 112 220 112 220 281 c 2,23,-1
 220 956 l 1,0,-1
EndSplineSet
EndChar
StartChar: u
Encoding: 117 117 88
Width: 1316
VWidth: 3198
Flags: W
HStem: -28 134<480.523 734.578> 0 106<1068 1242> 956 106<55 220 726 882>
VStem: 220 186<186.882 387 387 956> 882 186<106 189 234.823 956>
Fore
726 1062 m 1,0,-1
 1068 1062 l 1,1,-1
 1068 106 l 1,2,-1
 1242 106 l 1,3,-1
 1242 0 l 1,4,-1
 882 0 l 1,5,-1
 882 189 l 1,6,7
 831 83 831 83 751.5 27.5 c 128,-1,8
 672 -28 672 -28 565 -28 c 0,9,10
 387 -28 387 -28 303.5 72.5 c 128,-1,11
 220 173 220 173 220 387 c 2,12,-1
 220 956 l 1,13,-1
 55 956 l 1,14,-1
 55 1062 l 1,15,-1
 406 1062 l 1,16,-1
 406 445 l 2,17,18
 406 250 406 250 454.5 178 c 128,-1,19
 503 106 503 106 623 106 c 0,20,21
 751 106 751 106 816.5 200 c 128,-1,22
 882 294 882 294 882 473 c 2,23,-1
 882 956 l 1,24,-1
 726 956 l 1,25,-1
 726 1062 l 1,0,-1
EndSplineSet
EndChar
StartChar: v
Encoding: 118 118 89
Width: 1157
VWidth: 3198
Flags: W
HStem: 0 21G<497.841 648.243> 956 106<-6 116 314 483 751 912 1034 1151>
Fore
506 0 m 1,0,-1
 116 956 l 1,1,-1
 -6 956 l 1,2,-1
 -6 1062 l 1,3,-1
 483 1062 l 1,4,-1
 483 956 l 1,5,-1
 314 956 l 1,6,-1
 611 223 l 1,7,-1
 912 956 l 1,8,-1
 751 956 l 1,9,-1
 751 1062 l 1,10,-1
 1151 1062 l 1,11,-1
 1151 956 l 1,12,-1
 1034 956 l 1,13,-1
 640 0 l 1,14,-1
 506 0 l 1,0,-1
EndSplineSet
EndChar
StartChar: w
Encoding: 119 119 90
Width: 1752
VWidth: 3198
Flags: W
HStem: 0 21G<460.368 620.608 1131.39 1298.55> 956 106<31 150 342 515 1340 1493 1605 1727>
Fore
982 1062 m 1,0,-1
 1254 234 l 1,1,-1
 1493 956 l 1,2,-1
 1340 956 l 1,3,-1
 1340 1062 l 1,4,-1
 1727 1062 l 1,5,-1
 1727 956 l 1,6,-1
 1605 956 l 1,7,-1
 1292 0 l 1,8,-1
 1138 0 l 1,9,-1
 876 793 l 1,10,-1
 614 0 l 1,11,-1
 467 0 l 1,12,-1
 150 956 l 1,13,-1
 31 956 l 1,14,-1
 31 1062 l 1,15,-1
 515 1062 l 1,16,-1
 515 956 l 1,17,-1
 342 956 l 1,18,-1
 579 234 l 1,19,-1
 854 1062 l 1,20,-1
 982 1062 l 1,0,-1
EndSplineSet
EndChar
StartChar: x
Encoding: 120 120 91
Width: 1154
VWidth: 3198
Flags: W
HStem: 0 106<45 186 311 448 640 775 992 1129> 956 106<25 156 372 498 675 818 943 1084>
Fore
595 650 m 1,0,-1
 818 956 l 1,1,-1
 675 956 l 1,2,-1
 675 1062 l 1,3,-1
 1084 1062 l 1,4,-1
 1084 956 l 1,5,-1
 943 956 l 1,6,-1
 659 562 l 1,7,-1
 992 106 l 1,8,-1
 1129 106 l 1,9,-1
 1129 0 l 1,10,-1
 640 0 l 1,11,-1
 640 106 l 1,12,-1
 775 106 l 1,13,-1
 543 422 l 1,14,-1
 311 106 l 1,15,-1
 448 106 l 1,16,-1
 448 0 l 1,17,-1
 45 0 l 1,18,-1
 45 106 l 1,19,-1
 186 106 l 1,20,-1
 479 509 l 1,21,-1
 156 956 l 1,22,-1
 25 956 l 1,23,-1
 25 1062 l 1,24,-1
 498 1062 l 1,25,-1
 498 956 l 1,26,-1
 372 956 l 1,27,-1
 595 650 l 1,0,-1
EndSplineSet
EndChar
StartChar: y
Encoding: 121 121 92
Width: 1157
VWidth: 3198
Flags: W
HStem: -454 106<203.816 378.467> 956 106<-6 116 314 483 751 912 1034 1151>
Fore
442 -195 m 2,0,-1
 512 -19 l 1,1,-1
 116 956 l 1,2,-1
 -6 956 l 1,3,-1
 -6 1062 l 1,4,-1
 483 1062 l 1,5,-1
 483 956 l 1,6,-1
 314 956 l 1,7,-1
 611 223 l 1,8,-1
 912 956 l 1,9,-1
 751 956 l 1,10,-1
 751 1062 l 1,11,-1
 1151 1062 l 1,12,-1
 1151 956 l 1,13,-1
 1034 956 l 1,14,-1
 543 -241 l 2,15,16
 495 -364 495 -364 433.5 -409 c 128,-1,17
 372 -454 372 -454 262 -454 c 0,18,19
 214 -454 214 -454 165 -446.5 c 128,-1,20
 116 -439 116 -439 64 -422 c 1,21,-1
 64 -220 l 1,22,-1
 159 -220 l 1,23,24
 166 -287 166 -287 194.5 -317.5 c 128,-1,25
 223 -348 223 -348 281 -348 c 256,26,27
 339 -348 339 -348 372.5 -317.5 c 128,-1,28
 406 -287 406 -287 442 -195 c 2,0,-1
EndSplineSet
EndChar
StartChar: z
Encoding: 122 122 93
Width: 1077
VWidth: 3198
Flags: W
HStem: 0 106<320 895> 956 106<220 748>
VStem: 83 921<0 86 0 297 1.53064e-18 1.53064e-18> 116 104<771 956> 895 109<106 297>
Fore
83 0 m 1,0,-1
 83 86 l 1,1,-1
 748 956 l 1,2,-1
 220 956 l 1,3,-1
 220 771 l 1,4,-1
 116 771 l 1,5,-1
 116 1062 l 1,6,-1
 985 1062 l 1,7,-1
 985 976 l 1,8,-1
 320 106 l 1,9,-1
 895 106 l 1,10,-1
 895 297 l 1,11,-1
 1004 297 l 1,12,-1
 1004 0 l 1,13,-1
 83 0 l 1,0,-1
EndSplineSet
EndChar
StartChar: braceleft
Encoding: 123 123 94
Width: 1300
VWidth: 3198
Flags: W
HStem: -333 103<798.42 1046> 559 103<256 494.723> 1452 102<798.42 1046>
VStem: 256 790<-230 559 1256.45 1927.77> 565 186<-183.492 488.745 733.452 1404.77>
Fore
1046 -230 m 1,0,-1
 1046 -333 l 1,1,-1
 985 -333 l 2,2,3
 736 -333 736 -333 650.5 -259.5 c 128,-1,4
 565 -186 565 -186 565 36 c 2,5,-1
 565 294 l 2,6,7
 565 442 565 442 511.5 500.5 c 128,-1,8
 458 559 458 559 317 559 c 2,9,-1
 256 559 l 1,10,-1
 256 662 l 1,11,-1
 317 662 l 2,12,13
 458 662 458 662 511.5 721.5 c 128,-1,14
 565 781 565 781 565 931 c 2,15,-1
 565 1187 l 2,16,17
 565 1407 565 1407 650.5 1480.5 c 128,-1,18
 736 1554 736 1554 985 1554 c 2,19,-1
 1046 1554 l 1,20,-1
 1046 1452 l 1,21,-1
 979 1452 l 2,22,23
 839 1452 839 1452 795 1407 c 128,-1,24
 751 1362 751 1362 751 1221 c 2,25,-1
 751 934 l 2,26,27
 751 778 751 778 702 709 c 128,-1,28
 653 640 653 640 522 611 c 1,29,30
 653 576 653 576 702 510.5 c 128,-1,31
 751 445 751 445 751 287 c 2,32,-1
 751 0 l 2,33,34
 751 -141 751 -141 795 -185.5 c 128,-1,35
 839 -230 839 -230 979 -230 c 2,36,-1
 1046 -230 l 1,0,-1
EndSplineSet
EndChar
StartChar: bar
Encoding: 124 124 95
Width: 690
VWidth: 3198
Flags: W
HStem: -483 2046<265 425 265 425 265 265>
VStem: 265 160<-483 1563>
Fore
425 1563 m 1,0,-1
 425 -483 l 1,1,-1
 265 -483 l 1,2,-1
 265 1563 l 1,3,-1
 425 1563 l 1,0,-1
EndSplineSet
EndChar
StartChar: braceright
Encoding: 125 125 96
Width: 1300
VWidth: 3198
Flags: W
HStem: -333 103<256 503.846> 559 103<807.519 1046> 1452 102<256 507.179>
VStem: 256 790<-230 662 505.289 1177.12> 550 186<-184.086 487.773 735.289 1407.12>
Fore
256 -230 m 1,0,-1
 326 -230 l 2,1,2
 467 -230 467 -230 508.5 -185.5 c 128,-1,3
 550 -141 550 -141 550 0 c 2,4,-1
 550 287 l 2,5,6
 550 445 550 445 600 510.5 c 128,-1,7
 650 576 650 576 781 611 c 1,8,9
 650 640 650 640 600 709 c 128,-1,10
 550 778 550 778 550 934 c 2,11,-1
 550 1221 l 2,12,13
 550 1365 550 1365 508.5 1408.5 c 128,-1,14
 467 1452 467 1452 326 1452 c 2,15,-1
 256 1452 l 1,16,-1
 256 1554 l 1,17,-1
 320 1554 l 2,18,19
 565 1554 565 1554 650.5 1480.5 c 128,-1,20
 736 1407 736 1407 736 1187 c 2,21,-1
 736 931 l 2,22,23
 736 781 736 781 790.5 721.5 c 128,-1,24
 845 662 845 662 985 662 c 2,25,-1
 1046 662 l 1,26,-1
 1046 559 l 1,27,-1
 985 559 l 2,28,29
 845 559 845 559 790.5 500.5 c 128,-1,30
 736 442 736 442 736 294 c 2,31,-1
 736 36 l 2,32,33
 736 -186 736 -186 650.5 -259.5 c 128,-1,34
 565 -333 565 -333 320 -333 c 2,35,-1
 256 -333 l 1,36,-1
 256 -230 l 1,0,-1
EndSplineSet
EndChar
StartChar: asciitilde
Encoding: 126 126 97
Width: 1713
VWidth: 3198
Flags: W
HStem: 486 170<938.164 1306.99> 626 170<401.751 781.226>
Fore
1496 806 m 1,0,-1
 1496 659 l 1,1,2
 1398 573 1398 573 1308 529.5 c 128,-1,3
 1218 486 1218 486 1126 486 c 0,4,5
 1029 486 1029 486 857 553 c 2,6,-1
 845 556 l 2,7,8
 836 559 836 559 812 570 c 0,9,10
 665 626 665 626 573 626 c 256,11,12
 479 626 479 626 392 589.5 c 128,-1,13
 305 553 305 553 217 476 c 1,14,-1
 217 626 l 1,15,16
 317 717 317 717 406 756.5 c 128,-1,17
 495 796 495 796 589 796 c 0,18,19
 684 796 684 796 860 729 c 2,20,-1
 870 726 l 2,21,22
 879 723 879 723 903 714 c 0,23,24
 1046 656 1046 656 1142 656 c 0,25,26
 1235 656 1235 656 1322.5 692.5 c 128,-1,27
 1410 729 1410 729 1496 806 c 1,0,-1
EndSplineSet
EndChar
StartChar: nounicode-3-1-45
Encoding: 65540 -1 98
Width: 0
VWidth: 3198
Flags: W
HStem: -12 21G<-754 -6>
VStem: -754 748<-12 1887>
Fore
-6 -12 m 1,0,-1
 -754 -12 l 1,1,-1
 -754 1887 l 1,2,-1
 -6 1887 l 1,3,-1
 -6 -12 l 1,0,-1
EndSplineSet
EndChar
StartChar: uni0E10.alt1
Encoding: 63232 63232 99
Width: 1194
VWidth: 3198
Flags: W
HStem: 364 84<309.104 432.096> 665 77<305.511 425.27> 855.5 103.5<265 317.483 317.483 416.812 416.812 543.318> 989 146<856.042 1008.39> 1135 100<365.843 583.027>
VStem: 159 131<486.753 630.316> 876 186<517.173 740.294>
Fore
1132 1007 m 1,0,1
 1107 995 1107 995 1078 992 c 128,-1,2
 1049 989 1049 989 1017 989 c 0,3,4
 934 989 934 989 856 1006 c 128,-1,5
 778 1023 778 1023 697 1056 c 0,6,7
 634 1081 634 1081 593.5 1108 c 128,-1,8
 553 1135 553 1135 479 1135 c 0,9,10
 409 1135 409 1135 349.5 1076 c 128,-1,11
 290 1017 290 1017 265 959 c 1,12,-1
 323 959 l 2,13,14
 403 959 403 959 511.5 956 c 128,-1,15
 620 953 620 953 728 935.5 c 128,-1,16
 836 918 836 918 920 881.5 c 128,-1,17
 1004 845 1004 845 1037 781 c 0,18,19
 1053 745 1053 745 1057.5 710 c 128,-1,20
 1062 675 1062 675 1062 640 c 0,21,22
 1062 550 1062 550 1042.5 462.5 c 128,-1,23
 1023 375 1023 375 1004 287 c 0,24,25
 989 217 989 217 979.5 147 c 128,-1,26
 970 77 970 77 953 3 c 1,27,-1
 717 3 l 1,28,-1
 515 458 l 1,29,30
 489 415 489 415 449 389.5 c 128,-1,31
 409 364 409 364 361 364 c 0,32,33
 275 364 275 364 217 407.5 c 128,-1,34
 159 451 159 451 159 543 c 0,35,36
 159 650 159 650 228 696 c 128,-1,37
 297 742 297 742 394 742 c 0,38,39
 445 742 445 742 480 726.5 c 128,-1,40
 515 711 515 711 542.5 683.5 c 128,-1,41
 570 656 570 656 589 619.5 c 128,-1,42
 608 583 608 583 626 540 c 2,43,-1
 803 131 l 1,44,45
 831 259 831 259 853.5 387 c 128,-1,46
 876 515 876 515 876 650 c 0,47,48
 876 729 876 729 821 784 c 0,49,50
 793 812 793 812 716.5 827 c 128,-1,51
 640 842 640 842 549 848 c 128,-1,52
 458 854 458 854 372.5 855.5 c 128,-1,53
 287 857 287 857 247 857 c 0,54,55
 192 857 192 857 136 854 c 128,-1,56
 80 851 80 851 25 845 c 1,57,58
 80 1034 80 1034 194 1134.5 c 128,-1,59
 308 1235 308 1235 509 1235 c 0,60,61
 570 1235 570 1235 619 1219 c 128,-1,62
 668 1203 668 1203 711 1185.5 c 128,-1,63
 754 1168 754 1168 798 1151.5 c 128,-1,64
 842 1135 842 1135 892 1135 c 0,65,66
 956 1135 956 1135 1017 1161 c 128,-1,67
 1078 1187 1078 1187 1132 1215 c 1,68,-1
 1132 1007 l 1,0,1
448 543 m 0,69,70
 448 576 448 576 425.5 620.5 c 128,-1,71
 403 665 403 665 369 665 c 0,72,73
 323 665 323 665 306.5 628.5 c 128,-1,74
 290 592 290 592 290 556 c 256,75,76
 290 522 290 522 310 485 c 128,-1,77
 330 448 330 448 372 448 c 0,78,79
 409 448 409 448 428.5 478.5 c 128,-1,80
 448 509 448 509 448 543 c 0,69,70
EndSplineSet
EndChar
StartChar: uni0E34.alt1
Encoding: 63233 63233 100
Width: 0
VWidth: 3198
Flags: W
HStem: 1574 74<-1276 -1219.73> 1782 92<-1111.18 -833.76>
Fore
-1484 1577 m 1,0,1
 -1480 1584 l 1,2,3
 -1477 1590 l 2,4,5
 -1468 1612 -1468 1612 -1440.5 1658.5 c 128,-1,6
 -1413 1705 -1413 1705 -1359.5 1753 c 128,-1,7
 -1306 1801 -1306 1801 -1219 1837.5 c 128,-1,8
 -1132 1874 -1132 1874 -1004 1874 c 0,9,10
 -775 1874 -775 1874 -645 1762.5 c 128,-1,11
 -515 1651 -515 1651 -439 1459 c 1,12,-1
 -515 1462 l 1,13,14
 -583 1477 -583 1477 -651.5 1492 c 128,-1,15
 -720 1507 -720 1507 -778 1518 c 128,-1,16
 -836 1529 -836 1529 -874 1535 c 128,-1,17
 -912 1541 -912 1541 -918 1541 c 0,18,19
 -979 1551 -979 1551 -1052.5 1555.5 c 128,-1,20
 -1126 1560 -1126 1560 -1201 1565.5 c 128,-1,21
 -1276 1571 -1276 1571 -1349.5 1574 c 128,-1,22
 -1423 1577 -1423 1577 -1484 1577 c 1,0,1
-640 1574 m 1,23,24
 -711 1654 -711 1654 -801.5 1718 c 128,-1,25
 -892 1782 -892 1782 -1004 1782 c 0,26,27
 -1037 1782 -1037 1782 -1077 1770 c 128,-1,28
 -1117 1758 -1117 1758 -1155 1741 c 128,-1,29
 -1193 1724 -1193 1724 -1225 1700 c 128,-1,30
 -1257 1676 -1257 1676 -1276 1648 c 1,31,32
 -1117 1648 -1117 1648 -956.5 1630 c 128,-1,33
 -796 1612 -796 1612 -640 1574 c 1,23,24
EndSplineSet
EndChar
StartChar: uni0E35.alt1
Encoding: 63234 63234 101
Width: 0
VWidth: 3198
Flags: W
HStem: 1474 464<-562.998 -412 -620 -412 -412 -412> 1798 92<-1117.52 -814.673>
VStem: -620 208<1788 1938>
Fore
-412 1474 m 1,0,-1
 -483 1474 l 1,1,2
 -604 1504 -604 1504 -730.5 1526 c 128,-1,3
 -857 1548 -857 1548 -975 1562.5 c 128,-1,4
 -1093 1577 -1093 1577 -1197.5 1583.5 c 128,-1,5
 -1302 1590 -1302 1590 -1382 1590 c 2,6,-1
 -1468 1590 l 1,7,8
 -1376 1724 -1376 1724 -1251 1807 c 128,-1,9
 -1126 1890 -1126 1890 -956 1890 c 0,10,11
 -873 1890 -873 1890 -778.5 1866.5 c 128,-1,12
 -684 1843 -684 1843 -620 1788 c 1,13,-1
 -620 1938 l 1,14,-1
 -412 1938 l 1,15,-1
 -412 1474 l 1,0,-1
-565 1580 m 1,16,17
 -634 1679 -634 1679 -738 1738.5 c 128,-1,18
 -842 1798 -842 1798 -962 1798 c 0,19,20
 -1037 1798 -1037 1798 -1113.5 1759.5 c 128,-1,21
 -1190 1721 -1190 1721 -1235 1666 c 1,22,23
 -1120 1657 l 0,24,25
 -1004 1648 -1004 1648 -928 1638 c 0,26,27
 -836 1624 -836 1624 -747.5 1610 c 128,-1,28
 -659 1596 -659 1596 -565 1580 c 1,16,17
EndSplineSet
EndChar
StartChar: uni0E36.alt1
Encoding: 63235 63235 102
Width: 0
VWidth: 3198
Flags: W
HStem: 1791 99<-1138.32 -860.556> 1913 64<-634.466 -497.06>
VStem: -476 104<1735.95 1891.28>
Fore
-372 1810 m 0,0,1
 -372 1737 -372 1737 -416.5 1698.5 c 128,-1,2
 -461 1660 -461 1660 -531 1654 c 1,3,4
 -495 1605 -495 1605 -458.5 1553 c 128,-1,5
 -422 1501 -422 1501 -403 1446 c 1,6,7
 -454 1465 -454 1465 -505 1476 c 128,-1,8
 -556 1487 -556 1487 -611 1501 c 2,9,-1
 -623 1504 l 2,10,11
 -842 1545 -842 1545 -1045 1566 c 128,-1,12
 -1248 1587 -1248 1587 -1459 1587 c 1,13,14
 -1385 1733 -1385 1733 -1272.5 1811.5 c 128,-1,15
 -1160 1890 -1160 1890 -995 1890 c 0,16,17
 -937 1890 -937 1890 -874.5 1876 c 128,-1,18
 -812 1862 -812 1862 -757 1840 c 1,19,20
 -748 1910 -748 1910 -694 1943.5 c 128,-1,21
 -640 1977 -640 1977 -576 1977 c 0,22,23
 -492 1977 -492 1977 -432 1940.5 c 128,-1,24
 -372 1904 -372 1904 -372 1810 c 0,0,1
-476 1810 m 0,25,26
 -476 1855 -476 1855 -502 1884 c 128,-1,27
 -528 1913 -528 1913 -573 1913 c 0,28,29
 -614 1913 -614 1913 -632 1879.5 c 128,-1,30
 -650 1846 -650 1846 -650 1810 c 0,31,32
 -650 1782 -650 1782 -629 1748.5 c 128,-1,33
 -608 1715 -608 1715 -573 1715 c 0,34,35
 -531 1715 -531 1715 -503.5 1742 c 128,-1,36
 -476 1769 -476 1769 -476 1810 c 0,25,26
-604 1580 m 1,37,38
 -668 1663 -668 1663 -773.5 1727 c 128,-1,39
 -879 1791 -879 1791 -989 1791 c 0,40,41
 -1062 1791 -1062 1791 -1127.5 1759 c 128,-1,42
 -1193 1727 -1193 1727 -1238 1673 c 1,43,-1
 -1154 1666 l 2,44,45
 -1020 1654 -1020 1654 -884 1636 c 128,-1,46
 -748 1618 -748 1618 -604 1580 c 1,37,38
EndSplineSet
EndChar
StartChar: uni0E37.alt1
Encoding: 63236 63236 103
Width: 0
VWidth: 3198
Flags: W
HStem: 1810 91<-1121.65 -885.103>
VStem: -604 192<1798 1963>
Fore
-412 1474 m 1,0,1
 -678 1523 -678 1523 -940.5 1558 c 128,-1,2
 -1203 1593 -1203 1593 -1474 1599 c 1,3,4
 -1465 1624 -1465 1624 -1449.5 1645 c 128,-1,5
 -1434 1666 -1434 1666 -1416 1685 c 0,6,7
 -1324 1798 -1324 1798 -1214 1849.5 c 128,-1,8
 -1104 1901 -1104 1901 -959 1901 c 0,9,10
 -931 1901 l 0,11,12
 -903 1901 -903 1901 -882 1893 c 1,13,-1
 -882 1968 l 1,14,-1
 -690 1968 l 1,15,-1
 -690 1846 l 1,16,-1
 -604 1798 l 1,17,-1
 -604 1963 l 1,18,-1
 -412 1963 l 1,19,-1
 -412 1474 l 1,0,1
-531 1584 m 1,20,21
 -604 1676 -604 1676 -720 1743 c 128,-1,22
 -836 1810 -836 1810 -956 1810 c 0,23,24
 -1049 1810 -1049 1810 -1124 1773.5 c 128,-1,25
 -1199 1737 -1199 1737 -1263 1673 c 1,26,-1
 -1104 1660 l 2,27,28
 -1046 1654 -1046 1654 -1002.5 1651 c 128,-1,29
 -959 1648 -959 1648 -912 1641 c 2,30,-1
 -892 1638 l 2,31,32
 -796 1621 -796 1621 -709.5 1610 c 128,-1,33
 -623 1599 -623 1599 -531 1584 c 1,20,21
EndSplineSet
EndChar
StartChar: ellipsis
Encoding: 8230 8230 104
Width: 2045
VWidth: 3198
Flags: W
HStem: -28 265<248.738 433.808 930.769 1116.26 1613.71 1797.72>
VStem: 208 265<11.1924 196.778> 889 268<11.1924 196.778> 1574 266<11.1924 196.778>
Fore
1574 106 m 0,0,1
 1574 159 1574 159 1612.5 198 c 128,-1,2
 1651 237 1651 237 1705 237 c 256,3,4
 1758 237 1758 237 1799 198 c 128,-1,5
 1840 159 1840 159 1840 106 c 0,6,7
 1840 48 1840 48 1799 10 c 128,-1,8
 1758 -28 1758 -28 1705 -28 c 0,9,10
 1648 -28 1648 -28 1611 10 c 128,-1,11
 1574 48 1574 48 1574 106 c 0,0,1
889 106 m 0,12,13
 889 159 889 159 929.5 198 c 128,-1,14
 970 237 970 237 1023 237 c 256,15,16
 1078 237 1078 237 1117.5 198 c 128,-1,17
 1157 159 1157 159 1157 106 c 0,18,19
 1157 48 1157 48 1117.5 10 c 128,-1,20
 1078 -28 1078 -28 1023 -28 c 0,21,22
 965 -28 965 -28 927 10 c 128,-1,23
 889 48 889 48 889 106 c 0,12,13
208 106 m 0,24,25
 208 159 208 159 247.5 198 c 128,-1,26
 287 237 287 237 342 237 c 256,27,28
 397 237 397 237 435 198 c 128,-1,29
 473 159 473 159 473 106 c 0,30,31
 473 48 473 48 435 10 c 128,-1,32
 397 -28 397 -28 342 -28 c 0,33,34
 284 -28 284 -28 246 10 c 128,-1,35
 208 48 208 48 208 106 c 0,24,25
EndSplineSet
EndChar
StartChar: uni0E48.alt1
Encoding: 63237 63237 105
Width: 0
VWidth: 3198
Flags: W
HStem: 1501 412<-662 -476 -662 -476 -662 -662>
VStem: -662 186<1501 1913>
Fore
-662 1501 m 1,0,-1
 -662 1913 l 1,1,-1
 -476 1913 l 1,2,-1
 -476 1501 l 1,3,-1
 -662 1501 l 1,0,-1
EndSplineSet
Substitution2: "Single Substitution lookup 22 subtable" uni0E48.alt3
Substitution2: "Single Substitution lookup 22 subtable" uni0E48.alt3
EndChar
StartChar: uni0E49.alt1
Encoding: 63238 63238 106
Width: 0
VWidth: 3198
Flags: W
HStem: 1679 61<-946.534 -850.984> 1960 55<-950.831 -816.95>
VStem: -1081 116<1777.11 1926.53> -796 112<1776.45 1920.83> -464 189<1837.26 2008>
Fore
-275 2008 m 1,0,1
 -294 1862 -294 1862 -359.5 1764 c 128,-1,2
 -425 1666 -425 1666 -521 1605.5 c 128,-1,3
 -617 1545 -617 1545 -738.5 1516 c 128,-1,4
 -860 1487 -860 1487 -992 1477 c 1,5,-1
 -992 1568 l 1,6,7
 -946 1577 -946 1577 -900 1606 c 128,-1,8
 -854 1635 -854 1635 -848 1688 c 1,9,10
 -873 1679 -873 1679 -903 1679 c 0,11,12
 -976 1679 -976 1679 -1028.5 1726 c 128,-1,13
 -1081 1773 -1081 1773 -1081 1849 c 0,14,15
 -1081 1932 -1081 1932 -1017 1973.5 c 128,-1,16
 -953 2015 -953 2015 -879 2015 c 0,17,18
 -790 2015 -790 2015 -737 1967 c 128,-1,19
 -684 1919 -684 1919 -684 1826 c 0,20,21
 -684 1773 -684 1773 -708 1713.5 c 128,-1,22
 -732 1654 -732 1654 -764 1609 c 1,23,24
 -614 1654 -614 1654 -542 1754.5 c 128,-1,25
 -470 1855 -470 1855 -464 2008 c 1,26,-1
 -275 2008 l 1,0,1
-796 1855 m 256,27,28
 -796 1896 -796 1896 -820.5 1928 c 128,-1,29
 -845 1960 -845 1960 -889 1960 c 256,30,31
 -934 1960 -934 1960 -949.5 1923.5 c 128,-1,32
 -965 1887 -965 1887 -965 1852 c 0,33,34
 -965 1810 -965 1810 -945 1775 c 128,-1,35
 -925 1740 -925 1740 -879 1740 c 0,36,37
 -831 1740 -831 1740 -813.5 1776.5 c 128,-1,38
 -796 1813 -796 1813 -796 1855 c 256,27,28
EndSplineSet
Substitution2: "Single Substitution lookup 22 subtable" uni0E49.alt3
Substitution2: "Single Substitution lookup 22 subtable" uni0E49.alt3
EndChar
StartChar: uni0E4A.alt1
Encoding: 63239 63239 107
Width: 0
VWidth: 3198
Flags: W
HStem: 1823 118<-770.567 -702.566>
VStem: -1206 138<1632.11 1748.07> -678 119<1669.85 1787.83> -492 162<1862.14 1948.94 1948.94 1971>
Fore
-330 1938 m 1,0,1
 -330 1883 -330 1883 -344 1831 c 128,-1,2
 -358 1779 -358 1779 -378 1730 c 0,3,4
 -425 1605 -425 1605 -519.5 1556 c 128,-1,5
 -614 1507 -614 1507 -736 1484 c 1,6,-1
 -736 1571 l 1,7,8
 -704 1605 -704 1605 -691 1632.5 c 128,-1,9
 -678 1660 -678 1660 -678 1705 c 0,10,11
 -678 1740 -678 1740 -691 1781.5 c 128,-1,12
 -704 1823 -704 1823 -757 1823 c 0,13,14
 -771 1823 -771 1823 -785.5 1810.5 c 128,-1,15
 -800 1798 -800 1798 -814 1781.5 c 128,-1,16
 -828 1765 -828 1765 -841 1752.5 c 128,-1,17
 -854 1740 -854 1740 -864 1740 c 256,18,19
 -873 1740 -873 1740 -888 1752.5 c 128,-1,20
 -903 1765 -903 1765 -918.5 1779.5 c 128,-1,21
 -934 1794 -934 1794 -949.5 1806.5 c 128,-1,22
 -965 1819 -965 1819 -976 1819 c 0,23,24
 -1023 1819 -1023 1819 -1045.5 1779.5 c 128,-1,25
 -1068 1740 -1068 1740 -1068 1698 c 0,26,27
 -1068 1660 -1068 1660 -1042.5 1625 c 128,-1,28
 -1017 1590 -1017 1590 -982 1577 c 1,29,30
 -985 1587 -985 1587 -988.5 1598 c 128,-1,31
 -992 1609 -992 1609 -992 1618 c 0,32,33
 -992 1657 -992 1657 -964.5 1674 c 128,-1,34
 -937 1691 -937 1691 -903 1691 c 256,35,36
 -867 1691 -867 1691 -844 1664.5 c 128,-1,37
 -821 1638 -821 1638 -821 1602 c 0,38,39
 -821 1574 -821 1574 -839 1551.5 c 128,-1,40
 -857 1529 -857 1529 -881.5 1516.5 c 128,-1,41
 -906 1504 -906 1504 -935.5 1497 c 128,-1,42
 -965 1490 -965 1490 -989 1490 c 0,43,44
 -1081 1490 -1081 1490 -1143.5 1547.5 c 128,-1,45
 -1206 1605 -1206 1605 -1206 1698 c 0,46,47
 -1206 1749 -1206 1749 -1183 1793 c 128,-1,48
 -1160 1837 -1160 1837 -1126.5 1866.5 c 128,-1,49
 -1093 1896 -1093 1896 -1055 1915.5 c 128,-1,50
 -1017 1935 -1017 1935 -982 1941 c 1,51,-1
 -864 1849 l 1,52,53
 -857 1855 -857 1855 -841 1869 c 128,-1,54
 -825 1883 -825 1883 -807.5 1899.5 c 128,-1,55
 -790 1916 -790 1916 -772 1928.5 c 128,-1,56
 -754 1941 -754 1941 -748 1941 c 0,57,58
 -732 1941 -732 1941 -712.5 1933.5 c 128,-1,59
 -693 1926 -693 1926 -681 1919 c 0,60,61
 -559 1865 -559 1865 -559 1743 c 0,62,63
 -559 1718 -559 1718 -562 1690.5 c 128,-1,64
 -565 1663 -565 1663 -586 1624 c 1,65,66
 -553 1641 -553 1641 -535.5 1671.5 c 128,-1,67
 -518 1702 -518 1702 -508 1740.5 c 128,-1,68
 -498 1779 -498 1779 -495 1817 c 128,-1,69
 -492 1855 -492 1855 -492 1883 c 0,70,71
 -492 1907 -492 1907 -492 1927 c 128,-1,72
 -492 1947 -492 1947 -495 1971 c 1,73,-1
 -330 1971 l 1,74,-1
 -330 1938 l 1,0,1
EndSplineSet
Substitution2: "Single Substitution lookup 22 subtable" uni0E4A.alt3
Substitution2: "Single Substitution lookup 22 subtable" uni0E4A.alt3
EndChar
StartChar: nounicode-3-1-4f
Encoding: 65541 -1 108
Width: 1194
VWidth: 3198
Flags: W
HStem: -550 102<129.749 270.816 739.129 839.463> -372 67<809.934 853.524> -297 99<147.561 240.176> -159 61<783.756 875.323> 0 21G<711.048 956> 361 84<309.522 433.088> 665 77<305.003 432.209> 860 99<259 314.783 314.783 392.781 392.781 527.933> 989 146<854.858 1012.95> 1142 96<362.079 553.885>
VStem: 6 119<-448.549 -320.286> 159 131<485.235 630.355> 668 107<-284.768 -178.453> 854 154.5<-422.972 -372 291.925 325 388.5 483.015> 882 177<520.305 746.191> 892 118<-268.156 -195.833>
Fore
1010 -226 m 2,0,-1
 1010 -305 l 2,1,2
 1010 -333 1010 -333 1008.5 -366.5 c 128,-1,3
 1007 -400 1007 -400 1001 -433.5 c 128,-1,4
 995 -467 995 -467 977 -494.5 c 128,-1,5
 959 -522 959 -522 931 -534 c 0,6,7
 909 -540 909 -540 888 -543.5 c 128,-1,8
 867 -547 867 -547 845 -550 c 1,9,-1
 693 -550 l 1,10,-1
 576 -436 l 1,11,12
 550 -461 550 -461 529.5 -486.5 c 128,-1,13
 509 -512 509 -512 486 -537 c 1,14,-1
 400 -439 l 1,15,16
 381 -486 381 -486 335.5 -521 c 128,-1,17
 290 -556 290 -556 201 -556 c 0,18,19
 106 -556 106 -556 56 -503.5 c 128,-1,20
 6 -451 6 -451 6 -361 c 0,21,22
 6 -278 6 -278 59 -238 c 128,-1,23
 112 -198 112 -198 183 -198 c 0,24,25
 223 -198 223 -198 264 -204.5 c 128,-1,26
 305 -211 305 -211 342 -250 c 1,27,28
 345 -241 345 -241 346.5 -223 c 128,-1,29
 348 -205 348 -205 349.5 -183.5 c 128,-1,30
 351 -162 351 -162 351 -145 c 128,-1,31
 351 -128 351 -128 351 -122 c 1,32,-1
 448 -89 l 1,33,-1
 515 -89 l 1,34,-1
 515 -106 l 2,35,36
 515 -156 515 -156 499 -214 c 128,-1,37
 483 -272 483 -272 454 -314 c 1,38,-1
 503 -364 l 1,39,40
 525 -336 525 -336 539 -322 c 128,-1,41
 553 -308 553 -308 579 -281 c 1,42,43
 589 -290 589 -290 614.5 -317.5 c 128,-1,44
 640 -345 640 -345 668.5 -374 c 128,-1,45
 697 -403 697 -403 721 -425.5 c 128,-1,46
 745 -448 745 -448 754 -448 c 2,47,-1
 803 -448 l 2,48,49
 836 -448 836 -448 845 -436 c 1,50,-1
 854 -372 l 1,51,-1
 836 -372 l 2,52,53
 771 -372 771 -372 719.5 -340 c 128,-1,54
 668 -308 668 -308 668 -234 c 256,55,56
 668 -159 668 -159 711 -128.5 c 128,-1,57
 754 -98 754 -98 821 -98 c 0,58,59
 851 -98 851 -98 884.5 -107 c 128,-1,60
 918 -116 918 -116 945.5 -130 c 128,-1,61
 973 -144 973 -144 991.5 -169.5 c 128,-1,62
 1010 -195 1010 -195 1010 -226 c 2,0,-1
1132 1007 m 1,63,64
 1107 995 1107 995 1078 992 c 128,-1,65
 1049 989 1049 989 1017 989 c 0,66,67
 934 989 934 989 856 1007.5 c 128,-1,68
 778 1026 778 1026 704 1059 c 0,69,70
 672 1074 672 1074 647.5 1089 c 128,-1,71
 623 1104 623 1104 599.5 1116.5 c 128,-1,72
 576 1129 576 1129 547 1135.5 c 128,-1,73
 518 1142 518 1142 479 1142 c 0,74,75
 406 1142 406 1142 345 1082.5 c 128,-1,76
 284 1023 284 1023 259 959 c 1,77,-1
 297 959 l 2,78,79
 378 959 378 959 489.5 956 c 128,-1,80
 601 953 601 953 709.5 935.5 c 128,-1,81
 818 918 818 918 909.5 881.5 c 128,-1,82
 1001 845 1001 845 1037 781 c 0,83,84
 1053 748 1053 748 1056 716 c 128,-1,85
 1059 684 1059 684 1059 650 c 0,86,87
 1059 565 1059 565 1044 485.5 c 128,-1,88
 1029 406 1029 406 1012 325 c 128,-1,89
 995 244 995 244 977 163.5 c 128,-1,90
 959 83 959 83 953 0 c 1,91,-1
 720 0 l 1,92,-1
 515 458 l 1,93,94
 489 419 489 419 452 390 c 128,-1,95
 415 361 415 361 369 361 c 0,96,97
 284 361 284 361 221.5 406 c 128,-1,98
 159 451 159 451 159 543 c 0,99,100
 159 647 159 647 224.5 694.5 c 128,-1,101
 290 742 290 742 387 742 c 0,102,103
 486 742 486 742 539 682.5 c 128,-1,104
 592 623 592 623 626 540 c 2,105,-1
 806 128 l 1,106,107
 836 262 836 262 859 388.5 c 128,-1,108
 882 515 882 515 882 650 c 0,109,110
 882 732 882 732 831 784 c 0,111,112
 806 812 806 812 726.5 827 c 128,-1,113
 647 842 647 842 554 849.5 c 128,-1,114
 461 857 461 857 372.5 858.5 c 128,-1,115
 284 860 284 860 247 860 c 0,116,117
 192 860 192 860 136 857 c 128,-1,118
 80 854 80 854 25 848 c 1,119,120
 80 1034 80 1034 183.5 1136 c 128,-1,121
 287 1238 287 1238 489 1238 c 0,122,123
 547 1238 547 1238 597 1222 c 128,-1,124
 647 1206 647 1206 694.5 1187 c 128,-1,125
 742 1168 742 1168 790.5 1151.5 c 128,-1,126
 839 1135 839 1135 889 1135 c 0,127,128
 953 1135 953 1135 1013.5 1158 c 128,-1,129
 1074 1181 1074 1181 1132 1209 c 1,130,-1
 1132 1007 l 1,63,64
892 -230 m 256,131,132
 892 -205 892 -205 878 -182 c 128,-1,133
 864 -159 864 -159 836 -159 c 0,134,135
 800 -159 800 -159 787.5 -183.5 c 128,-1,136
 775 -208 775 -208 775 -241 c 0,137,138
 775 -265 775 -265 793.5 -285 c 128,-1,139
 812 -305 812 -305 839 -305 c 0,140,141
 867 -305 867 -305 879.5 -280.5 c 128,-1,142
 892 -256 892 -256 892 -230 c 256,131,132
294 -375 m 0,143,144
 294 -339 294 -339 258.5 -318 c 128,-1,145
 223 -297 223 -297 198 -297 c 0,146,147
 166 -297 166 -297 145.5 -318 c 128,-1,148
 125 -339 125 -339 125 -372 c 0,149,150
 125 -454 125 -454 205 -454 c 0,151,152
 250 -454 250 -454 272 -436.5 c 128,-1,153
 294 -419 294 -419 294 -375 c 0,143,144
454 553 m 256,154,155
 454 589 454 589 431.5 627 c 128,-1,156
 409 665 409 665 369 665 c 0,157,158
 323 665 323 665 306.5 628.5 c 128,-1,159
 290 592 290 592 290 556 c 256,160,161
 290 522 290 522 310 483.5 c 128,-1,162
 330 445 330 445 372 445 c 0,163,164
 409 445 409 445 431.5 481.5 c 128,-1,165
 454 518 454 518 454 553 c 256,154,155
EndSplineSet
EndChar
StartChar: uni0E4C.alt1
Encoding: 63241 63241 109
Width: 0
VWidth: 3198
Flags: W
HStem: 1487 615<-697 -262 -262 -262> 1487 58<-760.136 -635.655>
VStem: -909 647<1673 2102 1673 1673> -909 122<1598.5 1751.6> -617 122<1588.67 1747.46> -439 177<1954.45 2102>
Fore
-262 2102 m 1,0,1
 -275 1983 -275 1983 -343.5 1898 c 128,-1,2
 -412 1813 -412 1813 -534 1798 c 1,3,4
 -495 1746 -495 1746 -495 1679 c 0,5,6
 -495 1593 -495 1593 -554.5 1540 c 128,-1,7
 -614 1487 -614 1487 -697 1487 c 256,8,9
 -781 1487 -781 1487 -845 1535.5 c 128,-1,10
 -909 1584 -909 1584 -909 1673 c 0,11,12
 -909 1746 -909 1746 -867 1798 c 0,13,14
 -818 1855 -818 1855 -745 1867.5 c 128,-1,15
 -672 1880 -672 1880 -603 1893.5 c 128,-1,16
 -534 1907 -534 1907 -486.5 1946.5 c 128,-1,17
 -439 1986 -439 1986 -439 2102 c 1,18,-1
 -262 2102 l 1,0,1
-617 1666 m 0,19,20
 -617 1685 -617 1685 -621.5 1707.5 c 128,-1,21
 -626 1730 -626 1730 -636.5 1753 c 128,-1,22
 -647 1776 -647 1776 -662.5 1790 c 128,-1,23
 -678 1804 -678 1804 -701 1804 c 0,24,25
 -745 1804 -745 1804 -766 1754.5 c 128,-1,26
 -787 1705 -787 1705 -787 1669 c 256,27,28
 -787 1635 -787 1635 -761.5 1590 c 128,-1,29
 -736 1545 -736 1545 -693 1545 c 256,30,31
 -653 1545 -653 1545 -635 1590 c 128,-1,32
 -617 1635 -617 1635 -617 1666 c 0,19,20
EndSplineSet
Substitution2: "Single Substitution lookup 22 subtable" uni0E4C.alt3
Substitution2: "Single Substitution lookup 22 subtable" uni0E4C.alt3
EndChar
StartChar: uni0E48.alt2
Encoding: 63242 63242 110
Width: 0
VWidth: 3198
Flags: W
HStem: 1501 412<-361 -176 -361 -176 -361 -361>
VStem: -361 185<1501 1913>
Fore
-361 1501 m 1,0,-1
 -361 1913 l 1,1,-1
 -176 1913 l 1,2,-1
 -176 1501 l 1,3,-1
 -361 1501 l 1,0,-1
EndSplineSet
Substitution2: "Single Substitution lookup 21 subtable" uni0E48.alt3
Substitution2: "Single Substitution lookup 20 subtable" uni0E48
Substitution2: "Single Substitution lookup 22 subtable" uni0E48.alt1
Substitution2: "Single Substitution lookup 21 subtable" uni0E48.alt3
Substitution2: "Single Substitution lookup 20 subtable" uni0E48
Substitution2: "Single Substitution lookup 22 subtable" uni0E48.alt1
EndChar
StartChar: uni0E49.alt2
Encoding: 63243 63243 111
Width: 0
VWidth: 3198
Flags: W
HStem: 1679 54<-667.381 -562.282> 1960 55<-669.785 -534.277>
VStem: -800 113<1776.05 1923.49> -515 112<1777.33 1938.5> -189 195<1903.14 2008>
Fore
6 2008 m 1,0,1
 0 1954 0 1954 -12.5 1901.5 c 128,-1,2
 -25 1849 -25 1849 -52 1801 c 0,3,4
 -95 1712 -95 1712 -171 1652.5 c 128,-1,5
 -247 1593 -247 1593 -334.5 1558 c 128,-1,6
 -422 1523 -422 1523 -519.5 1505 c 128,-1,7
 -617 1487 -617 1487 -707 1480 c 1,8,-1
 -707 1571 l 1,9,10
 -656 1580 -656 1580 -617.5 1605 c 128,-1,11
 -579 1630 -579 1630 -562 1685 c 1,12,13
 -576 1679 -576 1679 -598 1679 c 0,14,15
 -681 1679 -681 1679 -740.5 1718.5 c 128,-1,16
 -800 1758 -800 1758 -800 1849 c 0,17,18
 -800 1932 -800 1932 -736 1973.5 c 128,-1,19
 -672 2015 -672 2015 -598 2015 c 0,20,21
 -509 2015 -509 2015 -456 1967 c 128,-1,22
 -403 1919 -403 1919 -403 1826 c 0,23,24
 -403 1769 -403 1769 -424 1711.5 c 128,-1,25
 -445 1654 -445 1654 -479 1609 c 1,26,27
 -333 1654 -333 1654 -261 1756 c 128,-1,28
 -189 1858 -189 1858 -189 2008 c 1,29,-1
 6 2008 l 1,0,1
-515 1855 m 0,30,31
 -515 1901 -515 1901 -538.5 1930.5 c 128,-1,32
 -562 1960 -562 1960 -608 1960 c 0,33,34
 -650 1960 -650 1960 -668.5 1923.5 c 128,-1,35
 -687 1887 -687 1887 -687 1852 c 256,36,37
 -687 1816 -687 1816 -667 1774.5 c 128,-1,38
 -647 1733 -647 1733 -601 1733 c 256,39,40
 -556 1733 -556 1733 -535.5 1774.5 c 128,-1,41
 -515 1816 -515 1816 -515 1855 c 0,30,31
EndSplineSet
Substitution2: "Single Substitution lookup 21 subtable" uni0E49.alt3
Substitution2: "Single Substitution lookup 20 subtable" uni0E49
Substitution2: "Single Substitution lookup 22 subtable" uni0E49.alt1
Substitution2: "Single Substitution lookup 21 subtable" uni0E49.alt3
Substitution2: "Single Substitution lookup 20 subtable" uni0E49
Substitution2: "Single Substitution lookup 22 subtable" uni0E49.alt1
EndChar
StartChar: uni0E4A.alt2
Encoding: 63244 63244 112
Width: 0
VWidth: 3198
Flags: W
HStem: 1480 491<-415 -176 -154.062 -132>
VStem: -885 134<1619.68 1773.09> -672 174<1585.34 1665.22> -358 117<1671.48 1777.46> -173 164<1863.79 1948.94 1948.94 1971>
Fore
-9 1938 m 1,0,1
 -9 1883 -9 1883 -24 1831 c 128,-1,2
 -39 1779 -39 1779 -58 1730 c 0,3,4
 -106 1605 -106 1605 -200 1556 c 128,-1,5
 -294 1507 -294 1507 -415 1480 c 1,6,-1
 -415 1571 l 1,7,8
 -397 1593 -397 1593 -377.5 1625 c 128,-1,9
 -358 1657 -358 1657 -358 1702 c 0,10,11
 -358 1718 -358 1718 -359.5 1738 c 128,-1,12
 -361 1758 -361 1758 -368 1778 c 128,-1,13
 -375 1798 -375 1798 -389 1810.5 c 128,-1,14
 -403 1823 -403 1823 -428 1823 c 0,15,16
 -442 1823 -442 1823 -456 1812 c 128,-1,17
 -470 1801 -470 1801 -484 1787 c 128,-1,18
 -498 1773 -498 1773 -511.5 1759.5 c 128,-1,19
 -525 1746 -525 1746 -534 1746 c 256,20,21
 -543 1746 -543 1746 -561 1759.5 c 128,-1,22
 -579 1773 -579 1773 -599.5 1787 c 128,-1,23
 -620 1801 -620 1801 -639.5 1813.5 c 128,-1,24
 -659 1826 -659 1826 -668 1826 c 0,25,26
 -693 1826 -693 1826 -709.5 1812 c 128,-1,27
 -726 1798 -726 1798 -735.5 1776.5 c 128,-1,28
 -745 1755 -745 1755 -748 1733.5 c 128,-1,29
 -751 1712 -751 1712 -751 1694 c 0,30,31
 -751 1660 -751 1660 -731 1618.5 c 128,-1,32
 -711 1577 -711 1577 -656 1563 c 1,33,34
 -659 1574 -659 1574 -665.5 1585 c 128,-1,35
 -672 1596 -672 1596 -672 1612 c 2,36,-1
 -672 1618 l 1,37,38
 -665 1657 -665 1657 -641 1674 c 128,-1,39
 -617 1691 -617 1691 -583 1691 c 256,40,41
 -547 1691 -547 1691 -522.5 1666 c 128,-1,42
 -498 1641 -498 1641 -498 1605 c 0,43,44
 -498 1545 -498 1545 -554.5 1516 c 128,-1,45
 -611 1487 -611 1487 -659 1487 c 0,46,47
 -751 1487 -751 1487 -818 1546 c 128,-1,48
 -885 1605 -885 1605 -885 1698 c 0,49,50
 -885 1801 -885 1801 -821 1863.5 c 128,-1,51
 -757 1926 -757 1926 -678 1941 c 1,52,-1
 -540 1852 l 1,53,54
 -534 1858 -534 1858 -518.5 1872.5 c 128,-1,55
 -503 1887 -503 1887 -485 1903 c 128,-1,56
 -467 1919 -467 1919 -451.5 1930 c 128,-1,57
 -436 1941 -436 1941 -428 1941 c 0,58,59
 -412 1941 -412 1941 -393.5 1933.5 c 128,-1,60
 -375 1926 -375 1926 -361 1919 c 0,61,62
 -241 1865 -241 1865 -241 1740 c 0,63,64
 -241 1715 -241 1715 -247 1689 c 128,-1,65
 -253 1663 -253 1663 -262 1638 c 1,66,67
 -234 1654 -234 1654 -216 1683 c 128,-1,68
 -198 1712 -198 1712 -189 1747 c 128,-1,69
 -180 1782 -180 1782 -176.5 1818.5 c 128,-1,70
 -173 1855 -173 1855 -173 1883 c 0,71,72
 -173 1907 -173 1907 -173 1927 c 128,-1,73
 -173 1947 -173 1947 -176 1971 c 1,74,-1
 -9 1971 l 1,75,-1
 -9 1938 l 1,0,1
EndSplineSet
Substitution2: "Single Substitution lookup 21 subtable" uni0E4A.alt3
Substitution2: "Single Substitution lookup 20 subtable" uni0E4A
Substitution2: "Single Substitution lookup 22 subtable" uni0E4A.alt1
Substitution2: "Single Substitution lookup 21 subtable" uni0E4A.alt3
Substitution2: "Single Substitution lookup 20 subtable" uni0E4A
Substitution2: "Single Substitution lookup 22 subtable" uni0E4A.alt1
EndChar
StartChar: uni0E4B.alt2
Encoding: 63245 63245 113
Width: 0
VWidth: 3198
Flags: W
HStem: 1496 21G<-361 -176> 1682 103<-522 -361 -176 -9>
VStem: -361 185<1496 1682 1785 1963>
Fore
-176 1682 m 1,0,-1
 -176 1496 l 1,1,-1
 -361 1496 l 1,2,-1
 -361 1682 l 1,3,-1
 -522 1682 l 1,4,-1
 -522 1785 l 1,5,-1
 -361 1785 l 1,6,-1
 -361 1963 l 1,7,-1
 -176 1963 l 1,8,-1
 -176 1785 l 1,9,-1
 -9 1785 l 1,10,-1
 -9 1682 l 1,11,-1
 -176 1682 l 1,0,-1
EndSplineSet
Substitution2: "Single Substitution lookup 21 subtable" uni0E4B.alt3
Substitution2: "Single Substitution lookup 20 subtable" uni0E4B
Substitution2: "Single Substitution lookup 22 subtable" uni0E4B.alt1
Substitution2: "Single Substitution lookup 21 subtable" uni0E4B.alt3
Substitution2: "Single Substitution lookup 20 subtable" uni0E4B
Substitution2: "Single Substitution lookup 22 subtable" uni0E4B.alt1
EndChar
StartChar: uni0E4C.alt2
Encoding: 63246 63246 114
Width: 0
VWidth: 3198
Flags: W
HStem: 1487 615<-390 45 45 45> 1487 58<-452.322 -328.954>
VStem: -601 646<1673 2102 1673 1673> -601 122<1598.5 1753.13> -311 122<1588.05 1748.29> -131 176<1954.58 2102>
Fore
45 2102 m 1,0,1
 31 1983 31 1983 -37.5 1898 c 128,-1,2
 -106 1813 -106 1813 -226 1798 c 1,3,4
 -189 1746 -189 1746 -189 1679 c 0,5,6
 -189 1593 -189 1593 -248.5 1540 c 128,-1,7
 -308 1487 -308 1487 -390 1487 c 256,8,9
 -473 1487 -473 1487 -537 1535.5 c 128,-1,10
 -601 1584 -601 1584 -601 1673 c 0,11,12
 -601 1746 -601 1746 -559 1798 c 0,13,14
 -512 1855 -512 1855 -438 1867.5 c 128,-1,15
 -364 1880 -364 1880 -295 1893.5 c 128,-1,16
 -226 1907 -226 1907 -178.5 1946.5 c 128,-1,17
 -131 1986 -131 1986 -131 2102 c 1,18,-1
 45 2102 l 1,0,1
-311 1666 m 0,19,20
 -311 1685 -311 1685 -315.5 1707.5 c 128,-1,21
 -320 1730 -320 1730 -329.5 1753 c 128,-1,22
 -339 1776 -339 1776 -355.5 1790 c 128,-1,23
 -372 1804 -372 1804 -394 1804 c 0,24,25
 -439 1804 -439 1804 -459 1754.5 c 128,-1,26
 -479 1705 -479 1705 -479 1669 c 256,27,28
 -479 1635 -479 1635 -453.5 1590 c 128,-1,29
 -428 1545 -428 1545 -387 1545 c 256,30,31
 -345 1545 -345 1545 -328 1590 c 128,-1,32
 -311 1635 -311 1635 -311 1666 c 0,19,20
EndSplineSet
Substitution2: "Single Substitution lookup 21 subtable" uni0E4C.alt3
Substitution2: "Single Substitution lookup 20 subtable" uni0E4C
Substitution2: "Single Substitution lookup 22 subtable" uni0E4C.alt1
Substitution2: "Single Substitution lookup 21 subtable" uni0E4C.alt3
Substitution2: "Single Substitution lookup 20 subtable" uni0E4C
Substitution2: "Single Substitution lookup 22 subtable" uni0E4C.alt1
EndChar
StartChar: uni0E0D.alt1
Encoding: 63247 63247 115
Width: 1777
VWidth: 3198
Flags: W
HStem: -9 79<352.609 493.566> 0 106<1062 1437> 320 83<371.408 489.876> 860 93<156 281> 1126 105<498.112 762.141>
VStem: 137 196<163.75 246.155 375 764.153> 515 122<93.6687 265.587> 867 195<106 1012.9> 1437 193<106 1117>
Fore
867 0 m 1,0,-1
 867 806 l 2,1,2
 867 959 867 959 804.5 1042.5 c 128,-1,3
 742 1126 742 1126 579 1126 c 0,4,5
 528 1126 528 1126 468.5 1113.5 c 128,-1,6
 409 1101 409 1101 351.5 1078.5 c 128,-1,7
 294 1056 294 1056 243 1024 c 128,-1,8
 192 992 192 992 156 953 c 1,9,-1
 483 953 l 1,10,-1
 483 864 l 1,11,12
 409 839 409 839 371 792 c 128,-1,13
 333 745 333 745 333 662 c 2,14,-1
 333 375 l 1,15,16
 358 384 358 384 386.5 393.5 c 128,-1,17
 415 403 415 403 445 403 c 0,18,19
 528 403 528 403 582.5 352 c 128,-1,20
 637 301 637 301 637 217 c 0,21,22
 637 98 637 98 574.5 44.5 c 128,-1,23
 512 -9 512 -9 400 -9 c 0,24,25
 297 -9 297 -9 217 55 c 128,-1,26
 137 119 137 119 137 223 c 2,27,-1
 137 634 l 2,28,29
 137 707 137 707 180 766 c 128,-1,30
 223 825 223 825 281 860 c 1,31,-1
 22 860 l 1,32,-1
 22 1001 l 1,33,34
 86 1043 86 1043 153 1084.5 c 128,-1,35
 220 1126 220 1126 290.5 1158 c 128,-1,36
 361 1190 361 1190 435 1210.5 c 128,-1,37
 509 1231 509 1231 589 1231 c 0,38,39
 803 1231 803 1231 932.5 1124 c 128,-1,40
 1062 1017 1062 1017 1062 793 c 2,41,-1
 1062 106 l 1,42,-1
 1437 106 l 1,43,-1
 1437 1117 l 1,44,-1
 1548 1215 l 1,45,-1
 1630 1215 l 1,46,-1
 1630 0 l 1,47,-1
 867 0 l 1,0,-1
515 180 m 256,48,49
 515 223 515 223 492.5 271.5 c 128,-1,50
 470 320 470 320 415 320 c 0,51,52
 372 320 372 320 347.5 282 c 128,-1,53
 323 244 323 244 323 205 c 256,54,55
 323 166 323 166 350.5 118 c 128,-1,56
 378 70 378 70 422 70 c 256,57,58
 467 70 467 70 491 102 c 128,-1,59
 515 134 515 134 515 180 c 256,48,49
EndSplineSet
EndChar
StartChar: quoteleft
Encoding: 8216 8216 116
Width: 629
VWidth: 3198
Flags: W
HStem: 803 476<333 412 412 412> 803 186<260.249 363.459>
VStem: 170 281<862.299 977.608> 170 89<953.507 1138.25>
Fore
412 1279 m 1,0,-1
 412 1242 l 1,1,2
 259 1151 259 1151 259 1049 c 0,3,4
 259 989 259 989 290 989 c 0,5,6
 301 989 301 989 317 998 c 0,7,8
 339 1007 339 1007 358 1007 c 0,9,10
 400 1007 400 1007 425.5 978.5 c 128,-1,11
 451 950 451 950 451 915 c 0,12,13
 451 854 451 854 414.5 828.5 c 128,-1,14
 378 803 378 803 333 803 c 0,15,16
 259 803 259 803 214.5 860.5 c 128,-1,17
 170 918 170 918 170 985 c 0,18,19
 170 1190 170 1190 412 1279 c 1,0,-1
EndSplineSet
EndChar
StartChar: quoteright
Encoding: 8217 8217 117
Width: 629
VWidth: 3198
Flags: W
HStem: 803 476<220 301 301 301> 1093 186<262.51 370.815>
VStem: 180 278<1136.42 1219.19> 372 86<946.098 1127.99>
Fore
220 803 m 1,0,-1
 220 848 l 1,1,2
 278 876 278 876 325 924.5 c 128,-1,3
 372 973 372 973 372 1034 c 256,4,5
 372 1093 372 1093 339 1093 c 0,6,7
 333 1093 333 1093 311 1084 c 1,8,9
 281 1078 281 1078 272 1078 c 0,10,11
 226 1078 226 1078 203 1108 c 128,-1,12
 180 1138 180 1138 180 1174 c 0,13,14
 180 1212 180 1212 208.5 1245.5 c 128,-1,15
 237 1279 237 1279 301 1279 c 0,16,17
 372 1279 372 1279 415 1221 c 128,-1,18
 458 1163 458 1163 458 1101 c 0,19,20
 458 895 458 895 220 803 c 1,0,-1
EndSplineSet
EndChar
StartChar: quotedblleft
Encoding: 8220 8220 118
Width: 840
VWidth: 3198
Flags: W
HStem: 806 473<147 272 223 301 774.87 865.295> 806 189<592.471 695.838> 806 204<147.491 258.836 212.025 307.356 653.87 744.295>
VStem: 58 726<921 1010 918 989 1462.87 1553.3> 58 89<959.507 1147.15> 506 86<955.007 1148.95>
Fore
301 1279 m 1,0,-1
 301 1245 l 1,1,2
 147 1163 147 1163 147 1056 c 0,3,4
 147 998 147 998 180 998 c 0,5,6
 189 998 189 998 211 1004 c 0,7,8
 244 1010 244 1010 250 1010 c 0,9,10
 290 1010 290 1010 317.5 980 c 128,-1,11
 345 950 345 950 345 915 c 0,12,13
 345 864 345 864 308.5 835 c 128,-1,14
 272 806 272 806 223 806 c 0,15,16
 147 806 147 806 102.5 863.5 c 128,-1,17
 58 921 58 921 58 989 c 0,18,19
 58 1206 58 1206 301 1279 c 1,0,-1
742 1276 m 1,20,-1
 742 1245 l 1,21,22
 592 1154 592 1154 592 1049 c 0,23,24
 592 995 592 995 623 995 c 0,25,26
 626 995 626 995 653 1004 c 0,27,28
 681 1010 681 1010 690 1010 c 0,29,30
 784 1010 784 1010 784 918 c 0,31,32
 784 864 784 864 745.5 835 c 128,-1,33
 707 806 707 806 662 806 c 0,34,35
 601 806 601 806 553.5 860.5 c 128,-1,36
 506 915 506 915 506 989 c 0,37,38
 506 1209 506 1209 742 1276 c 1,20,-1
EndSplineSet
EndChar
StartChar: quotedblright
Encoding: 8221 8221 119
Width: 840
VWidth: 3198
Flags: W
HStem: 803 476<573 690 547 626 540.552 628.475> 1074 205<97.1902 184.266 145.03 258.191 540.552 628.475 589.164 696.277>
VStem: 58 726<1074 1168 1093 1168 1082.55 1170.47> 259 86<961.283 1127.49> 697 87<934.741 1127.49>
Fore
547 803 m 1,0,-1
 547 848 l 1,1,2
 697 918 697 918 697 1029 c 0,3,4
 697 1087 697 1087 668 1087 c 0,5,6
 662 1087 662 1087 637 1084 c 1,7,8
 608 1074 608 1074 601 1074 c 0,9,10
 559 1074 559 1074 532.5 1103 c 128,-1,11
 506 1132 506 1132 506 1174 c 0,12,13
 506 1218 506 1218 539.5 1248.5 c 128,-1,14
 573 1279 573 1279 626 1279 c 0,15,16
 690 1279 690 1279 737 1223.5 c 128,-1,17
 784 1168 784 1168 784 1093 c 0,18,19
 784 876 784 876 547 803 c 1,0,-1
109 803 m 1,20,-1
 109 848 l 1,21,22
 214 906 214 906 236.5 947.5 c 128,-1,23
 259 989 259 989 259 1040 c 0,24,25
 259 1087 259 1087 226 1087 c 0,26,27
 220 1087 220 1087 192 1084 c 1,28,29
 166 1074 166 1074 156 1074 c 0,30,31
 58 1074 58 1074 58 1168 c 0,32,33
 58 1212 58 1212 96 1245.5 c 128,-1,34
 134 1279 134 1279 183 1279 c 0,35,36
 250 1279 250 1279 297.5 1223.5 c 128,-1,37
 345 1168 345 1168 345 1093 c 0,38,39
 345 873 345 873 109 803 c 1,20,-1
EndSplineSet
EndChar
StartChar: bullet
Encoding: 8226 8226 120
Width: 1208
VWidth: 3198
Flags: W
HStem: 464 592<444.718 760.995>
VStem: 308 595<605.164 919.361>
Fore
308 761 m 256,0,1
 308 885 308 885 393.5 970.5 c 128,-1,2
 479 1056 479 1056 604 1056 c 256,3,4
 729 1056 729 1056 816 970.5 c 128,-1,5
 903 885 903 885 903 761 c 256,6,7
 903 637 903 637 814.5 550.5 c 128,-1,8
 726 464 726 464 604 464 c 0,9,10
 479 464 479 464 393.5 550.5 c 128,-1,11
 308 637 308 637 308 761 c 256,0,1
EndSplineSet
EndChar
StartChar: endash
Encoding: 8211 8211 121
Width: 1022
VWidth: 3198
Flags: W
HStem: 476 135<0 1023>
VStem: 0 1023<476 611 476 611 476 476>
Fore
0 611 m 1,0,-1
 1023 611 l 1,1,-1
 1023 476 l 1,2,-1
 0 476 l 1,3,-1
 0 611 l 1,0,-1
EndSplineSet
EndChar
StartChar: emdash
Encoding: 8212 8212 122
Width: 2045
VWidth: 3198
Flags: W
HStem: 476 135<0 2047>
VStem: 0 2047<476 611 476 611 476 476>
Fore
0 611 m 1,0,-1
 2047 611 l 1,1,-1
 2047 476 l 1,2,-1
 0 476 l 1,3,-1
 0 611 l 1,0,-1
EndSplineSet
EndChar
StartChar: uni0E31.alt1
Encoding: 63248 63248 123
Width: 0
VWidth: 3198
Flags: W
HStem: 1492 88<-857 -822.394 -822.394 -698.781> 1833 74<-1055.35 -939.582>
VStem: -1227 153<1657.5 1799.95> -915 140<1689.56 1786.29>
Fore
-208 1874 m 1,0,1
 -256 1794 -256 1794 -315.5 1722.5 c 128,-1,2
 -375 1651 -375 1651 -446.5 1596 c 128,-1,3
 -518 1541 -518 1541 -602.5 1510.5 c 128,-1,4
 -687 1480 -687 1480 -787 1480 c 0,5,6
 -845 1480 -845 1480 -921.5 1492 c 128,-1,7
 -998 1504 -998 1504 -1066.5 1532 c 128,-1,8
 -1135 1560 -1135 1560 -1181 1610 c 128,-1,9
 -1227 1660 -1227 1660 -1227 1737 c 0,10,11
 -1227 1829 -1227 1829 -1158.5 1868 c 128,-1,12
 -1090 1907 -1090 1907 -1007 1907 c 0,13,14
 -970 1907 -970 1907 -929.5 1898.5 c 128,-1,15
 -889 1890 -889 1890 -853.5 1871 c 128,-1,16
 -818 1852 -818 1852 -796.5 1820 c 128,-1,17
 -775 1788 -775 1788 -775 1743 c 256,18,19
 -775 1698 -775 1698 -796.5 1653.5 c 128,-1,20
 -818 1609 -818 1609 -857 1584 c 1,21,-1
 -812 1580 l 2,22,23
 -754 1580 -754 1580 -697 1609 c 128,-1,24
 -640 1638 -640 1638 -588.5 1681 c 128,-1,25
 -537 1724 -537 1724 -497.5 1775 c 128,-1,26
 -458 1826 -458 1826 -431 1874 c 1,27,-1
 -208 1874 l 1,0,1
-915 1740 m 0,28,29
 -915 1779 -915 1779 -934 1806 c 128,-1,30
 -953 1833 -953 1833 -995 1833 c 0,31,32
 -1029 1833 -1029 1833 -1051.5 1803 c 128,-1,33
 -1074 1773 -1074 1773 -1074 1740 c 0,34,35
 -1074 1698 -1074 1698 -1057 1658 c 128,-1,36
 -1040 1618 -1040 1618 -989 1618 c 0,37,38
 -943 1618 -943 1618 -929 1661.5 c 128,-1,39
 -915 1705 -915 1705 -915 1740 c 0,28,29
EndSplineSet
EndChar
StartChar: uni0E4D.alt1
Encoding: 63249 63249 124
Width: 0
VWidth: 3198
Flags: W
HStem: 1416 110<-853.887 -658.631> 1798 115<-852.156 -657.29>
VStem: -1004 112<1564.85 1759.77> -620 111<1565.48 1761.13>
Fore
-509 1666 m 256,0,1
 -509 1563 -509 1563 -581 1489.5 c 128,-1,2
 -653 1416 -653 1416 -754 1416 c 0,3,4
 -860 1416 -860 1416 -932 1488 c 128,-1,5
 -1004 1560 -1004 1560 -1004 1666 c 0,6,7
 -1004 1769 -1004 1769 -930.5 1841 c 128,-1,8
 -857 1913 -857 1913 -754 1913 c 256,9,10
 -653 1913 -653 1913 -581 1841 c 128,-1,11
 -509 1769 -509 1769 -509 1666 c 256,0,1
-620 1663 m 0,12,13
 -620 1721 -620 1721 -658.5 1759.5 c 128,-1,14
 -697 1798 -697 1798 -754 1798 c 0,15,16
 -809 1798 -809 1798 -850.5 1759.5 c 128,-1,17
 -892 1721 -892 1721 -892 1663 c 256,18,19
 -892 1605 -892 1605 -852 1565.5 c 128,-1,20
 -812 1526 -812 1526 -754 1526 c 256,21,22
 -697 1526 -697 1526 -658.5 1567.5 c 128,-1,23
 -620 1609 -620 1609 -620 1663 c 0,12,13
EndSplineSet
EndChar
StartChar: uni0E47.alt1
Encoding: 63250 63250 125
Width: 0
VWidth: 3198
Flags: W
HStem: 1596 106<-954.242 -851.7> 1840 70<-845.718 -643.675>
VStem: -1223.5 144<1641.11 1655.47 1655.47 1687.91 1671.69 1798.84> -687 242<1609.18 1741.15>
Fore
-409 2115 m 1,0,1
 -409 2054 -409 2054 -436 1986 c 0,2,3
 -479 1880 -479 1880 -556.5 1860 c 128,-1,4
 -634 1840 -634 1840 -736 1840 c 2,5,-1
 -915 1849 l 2,6,7
 -979 1849 -979 1849 -1030 1811 c 128,-1,8
 -1081 1773 -1081 1773 -1081 1708 c 0,9,10
 -1081 1685 -1081 1685 -1079.5 1668 c 128,-1,11
 -1078 1651 -1078 1651 -1062 1615 c 1,12,13
 -1026 1638 -1026 1638 -984.5 1670 c 128,-1,14
 -943 1702 -943 1702 -898 1702 c 0,15,16
 -836 1702 -836 1702 -800 1668.5 c 128,-1,17
 -764 1635 -764 1635 -720 1599 c 0,18,19
 -693 1580 -693 1580 -668 1577 c 128,-1,20
 -643 1574 -643 1574 -614 1571 c 1,21,22
 -640 1587 -640 1587 -663.5 1608.5 c 128,-1,23
 -687 1630 -687 1630 -687 1666 c 0,24,25
 -687 1724 -687 1724 -658 1746.5 c 128,-1,26
 -629 1769 -629 1769 -576 1769 c 256,27,28
 -522 1769 -522 1769 -483.5 1742 c 128,-1,29
 -445 1715 -445 1715 -445 1657 c 0,30,31
 -445 1574 -445 1574 -510.5 1527 c 128,-1,32
 -576 1480 -576 1480 -653 1480 c 0,33,34
 -704 1480 -704 1480 -741 1498 c 128,-1,35
 -778 1516 -778 1516 -808.5 1538 c 128,-1,36
 -839 1560 -839 1560 -860.5 1578 c 128,-1,37
 -882 1596 -882 1596 -906 1596 c 0,38,39
 -934 1596 -934 1596 -952 1576.5 c 128,-1,40
 -970 1557 -970 1557 -987 1533.5 c 128,-1,41
 -1004 1510 -1004 1510 -1025 1489 c 128,-1,42
 -1046 1468 -1046 1468 -1074 1468 c 0,43,44
 -1110 1468 -1110 1468 -1140.5 1490.5 c 128,-1,45
 -1171 1513 -1171 1513 -1191.5 1545 c 128,-1,46
 -1212 1577 -1212 1577 -1223.5 1614 c 128,-1,47
 -1235 1651 -1235 1651 -1235 1682 c 0,48,49
 -1235 1746 -1235 1746 -1209.5 1793 c 128,-1,50
 -1184 1840 -1184 1840 -1140 1868 c 128,-1,51
 -1096 1896 -1096 1896 -1042.5 1911 c 128,-1,52
 -989 1926 -989 1926 -931 1926 c 2,53,-1
 -717 1910 l 2,54,55
 -668 1910 -668 1910 -644 1928.5 c 128,-1,56
 -620 1947 -620 1947 -607.5 1976 c 128,-1,57
 -595 2005 -595 2005 -590.5 2042 c 128,-1,58
 -586 2079 -586 2079 -579 2115 c 1,59,-1
 -409 2115 l 1,0,1
EndSplineSet
EndChar
StartChar: uni0E48.alt3
Encoding: 63251 63251 126
Width: 0
VWidth: 3198
Flags: W
HStem: 2051 351<-573 -415 -573 -415 -573 -573>
VStem: -573 158<2051 2402>
Fore
-573 2051 m 1,0,-1
 -573 2402 l 1,1,-1
 -415 2402 l 1,2,-1
 -415 2051 l 1,3,-1
 -573 2051 l 1,0,-1
EndSplineSet
EndChar
StartChar: uni0E49.alt3
Encoding: 63252 63252 127
Width: 0
VWidth: 3198
Flags: W
HStem: 2210 58<-782.071 -701.29> 2444 50<-785.064 -682.342>
VStem: -903 107<2295.05 2419.07> -668 103<2289.49 2416.59>
Fore
-223 2475 m 1,0,1
 -230 2430 -230 2430 -240 2388.5 c 128,-1,2
 -250 2347 -250 2347 -269 2310 c 0,3,4
 -308 2236 -308 2236 -369.5 2186 c 128,-1,5
 -431 2136 -431 2136 -508.5 2104 c 128,-1,6
 -586 2072 -586 2072 -667 2058 c 128,-1,7
 -748 2044 -748 2044 -825 2038 c 1,8,-1
 -825 2115 l 1,9,10
 -784 2124 -784 2124 -747.5 2146.5 c 128,-1,11
 -711 2169 -711 2169 -701 2213 c 1,12,13
 -717 2210 -717 2210 -748 2210 c 0,14,15
 -812 2210 -812 2210 -857.5 2246.5 c 128,-1,16
 -903 2283 -903 2283 -903 2350 c 0,17,18
 -903 2424 -903 2424 -848 2459 c 128,-1,19
 -793 2494 -793 2494 -729 2494 c 0,20,21
 -656 2494 -656 2494 -610.5 2449.5 c 128,-1,22
 -565 2405 -565 2405 -565 2332 c 0,23,24
 -565 2283 -565 2283 -584.5 2234 c 128,-1,25
 -604 2185 -604 2185 -629 2146 c 1,26,27
 -503 2182 -503 2182 -450 2266 c 128,-1,28
 -397 2350 -397 2350 -390 2475 c 1,29,-1
 -223 2475 l 1,0,1
-668 2357 m 256,30,31
 -668 2389 -668 2389 -686 2416.5 c 128,-1,32
 -704 2444 -704 2444 -739 2444 c 0,33,34
 -771 2444 -771 2444 -783.5 2412 c 128,-1,35
 -796 2380 -796 2380 -796 2353 c 0,36,37
 -796 2325 -796 2325 -778.5 2296.5 c 128,-1,38
 -761 2268 -761 2268 -729 2268 c 0,39,40
 -690 2268 -690 2268 -679 2296.5 c 128,-1,41
 -668 2325 -668 2325 -668 2357 c 256,30,31
EndSplineSet
EndChar
StartChar: uni0E4A.alt3
Encoding: 63253 63253 128
Width: 0
VWidth: 3198
Flags: W
HStem: 2341 112<-794.17 -722.17 -577.866 -517.76>
VStem: -943 118<2169.8 2302.91> -503 106<2216.06 2309.79> -342 141<2272.13 2326.7 2326.7 2356 2356 2406.18 2406.18 2472>
Fore
-201 2444 m 1,0,1
 -201 2405 -201 2405 -210.5 2356 c 128,-1,2
 -220 2307 -220 2307 -237 2271 c 0,3,4
 -281 2158 -281 2158 -361.5 2120 c 128,-1,5
 -442 2082 -442 2082 -547 2057 c 1,6,-1
 -547 2130 l 1,7,8
 -531 2149 -531 2149 -517 2182.5 c 128,-1,9
 -503 2216 -503 2216 -503 2243 c 0,10,11
 -503 2271 -503 2271 -512.5 2307.5 c 128,-1,12
 -522 2344 -522 2344 -565 2344 c 0,13,14
 -576 2344 -576 2344 -583 2339 c 0,15,-1
 -608 2317 l 0,16,17
 -626 2300 -626 2300 -638 2288.5 c 128,-1,18
 -650 2277 -650 2277 -656 2277 c 0,19,20
 -678 2277 -678 2277 -699 2309 c 128,-1,21
 -720 2341 -720 2341 -745 2341 c 0,22,23
 -787 2341 -787 2341 -806 2302.5 c 128,-1,24
 -825 2264 -825 2264 -825 2236 c 0,25,26
 -825 2204 -825 2204 -812.5 2178 c 128,-1,27
 -800 2152 -800 2152 -751 2136 c 1,28,29
 -764 2155 -764 2155 -764 2175 c 0,30,31
 -764 2207 -764 2207 -742 2221.5 c 128,-1,32
 -720 2236 -720 2236 -690 2236 c 256,33,34
 -662 2236 -662 2236 -641 2213.5 c 128,-1,35
 -620 2191 -620 2191 -620 2161 c 0,36,37
 -620 2108 -620 2108 -668.5 2087 c 128,-1,38
 -717 2066 -717 2066 -761 2066 c 0,39,40
 -842 2066 -842 2066 -892.5 2112 c 128,-1,41
 -943 2158 -943 2158 -943 2243 c 256,42,43
 -943 2325 -943 2325 -885 2377 c 0,44,45
 -876 2386 -876 2386 -860.5 2398.5 c 128,-1,46
 -845 2411 -845 2411 -825.5 2423 c 128,-1,47
 -806 2435 -806 2435 -787 2444 c 128,-1,48
 -768 2453 -768 2453 -757 2453 c 0,49,50
 -754 2453 -754 2453 -738.5 2441.5 c 128,-1,51
 -723 2430 -723 2430 -705 2416 c 128,-1,52
 -687 2402 -687 2402 -673 2389.5 c 128,-1,53
 -659 2377 -659 2377 -653 2371 c 1,54,55
 -650 2377 -650 2377 -636.5 2389.5 c 128,-1,56
 -623 2402 -623 2402 -607.5 2414.5 c 128,-1,57
 -592 2427 -592 2427 -578.5 2438.5 c 128,-1,58
 -565 2450 -565 2450 -559 2450 c 0,59,60
 -531 2450 -531 2450 -502 2434 c 128,-1,61
 -473 2418 -473 2418 -449 2394.5 c 128,-1,62
 -425 2371 -425 2371 -411 2340.5 c 128,-1,63
 -397 2310 -397 2310 -397 2277 c 0,64,65
 -397 2255 -397 2255 -401.5 2229.5 c 128,-1,66
 -406 2204 -406 2204 -415 2185 c 1,67,68
 -364 2210 -364 2210 -351.5 2267.5 c 128,-1,69
 -339 2325 -339 2325 -339 2386 c 2,70,-1
 -342 2472 l 1,71,-1
 -201 2472 l 1,72,-1
 -201 2444 l 1,0,1
EndSplineSet
EndChar
StartChar: uni0E4B.alt3
Encoding: 63254 63254 129
Width: 0
VWidth: 3198
Flags: W
HStem: 2229 87<-701 -570 -412 -272>
VStem: -570 158<2082 2229 2316 2463>
Fore
-412 2229 m 1,0,-1
 -412 2082 l 1,1,-1
 -570 2082 l 1,2,-1
 -570 2229 l 1,3,-1
 -701 2229 l 1,4,-1
 -701 2316 l 1,5,-1
 -570 2316 l 1,6,-1
 -570 2463 l 1,7,-1
 -412 2463 l 1,8,-1
 -412 2316 l 1,9,-1
 -272 2316 l 1,10,-1
 -272 2229 l 1,11,-1
 -412 2229 l 1,0,-1
EndSplineSet
EndChar
StartChar: uni0E4C.alt3
Encoding: 63255 63255 130
Width: 0
VWidth: 3198
Flags: W
HStem: 1910 44<-544.933 -427.196>
VStem: -662 97<1993.58 2133.25> -409 95<1992.57 2132.63> -265 146<2299.08 2427>
Fore
-119 2427 m 1,0,1
 -128 2325 -128 2325 -186 2256.5 c 128,-1,2
 -244 2188 -244 2188 -345 2172 c 1,3,4
 -314 2130 -314 2130 -314 2072 c 0,5,6
 -314 1999 -314 1999 -361.5 1954.5 c 128,-1,7
 -409 1910 -409 1910 -483 1910 c 256,8,9
 -556 1910 -556 1910 -609 1950 c 128,-1,10
 -662 1990 -662 1990 -662 2066 c 0,11,12
 -662 2124 -662 2124 -626 2169 c 0,13,14
 -586 2219 -586 2219 -523.5 2231 c 128,-1,15
 -461 2243 -461 2243 -403 2253.5 c 128,-1,16
 -345 2264 -345 2264 -305 2298 c 128,-1,17
 -265 2332 -265 2332 -265 2427 c 1,18,-1
 -119 2427 l 1,0,1
-409 2063 m 256,19,20
 -409 2094 -409 2094 -428.5 2133 c 128,-1,21
 -448 2172 -448 2172 -483 2172 c 0,22,23
 -525 2172 -525 2172 -545 2134.5 c 128,-1,24
 -565 2097 -565 2097 -565 2063 c 256,25,26
 -565 2027 -565 2027 -543.5 1990.5 c 128,-1,27
 -522 1954 -522 1954 -483 1954 c 0,28,29
 -448 1954 -448 1954 -428.5 1992 c 128,-1,30
 -409 2030 -409 2030 -409 2063 c 256,19,20
EndSplineSet
EndChar
StartChar: uni0E01
Encoding: 3585 3585 132
Width: 1313
VWidth: 3198
Flags: W
HStem: 0 21G<144 336 973 1074.46> 851 95<156 290> 1132 103<432.202 789.781>
VStem: 144 192<0 760.107> 973 195<141 999.26>
Fore
1059 0 m 1,0,-1
 973 0 l 1,1,-1
 973 825 l 2,2,3
 973 973 973 973 884.5 1052.5 c 128,-1,4
 796 1132 796 1132 653 1132 c 0,5,6
 583 1132 583 1132 514 1126 c 128,-1,7
 445 1120 445 1120 381 1100.5 c 128,-1,8
 317 1081 317 1081 261 1044 c 128,-1,9
 205 1007 205 1007 156 946 c 1,10,-1
 486 946 l 1,11,-1
 486 864 l 1,12,13
 422 828 422 828 379 788 c 128,-1,14
 336 748 336 748 336 665 c 2,15,-1
 336 0 l 1,16,-1
 144 0 l 1,17,-1
 144 653 l 2,18,19
 144 717 144 717 190.5 763 c 128,-1,20
 237 809 237 809 281 845 c 2,21,-1
 290 851 l 1,22,-1
 25 851 l 1,23,-1
 25 995 l 1,24,25
 166 1110 166 1110 304 1172.5 c 128,-1,26
 442 1235 442 1235 626 1235 c 0,27,28
 732 1235 732 1235 830 1212.5 c 128,-1,29
 928 1190 928 1190 1003 1138.5 c 128,-1,30
 1078 1087 1078 1087 1123 1006 c 128,-1,31
 1168 925 1168 925 1168 806 c 2,32,-1
 1168 141 l 1,33,-1
 1059 0 l 1,0,-1
EndSplineSet
EndChar
StartChar: uni0E02
Encoding: 3586 3586 133
Width: 1199
VWidth: 3198
Flags: W
HStem: 0 106<186 301 498 854> 707 61<157.503 303.638> 985 68<184.473 300.546> 1151 76<261.206 455.513>
VStem: 12 122<792.985 963.03> 301 197<106 546.637> 323 113<809.889 944.658> 550 182<801.455 1066.78> 854 199<108.125 549.273 549.273 1084>
Fore
1053 195 m 1,0,1
 1053 95 1053 95 1007.5 47.5 c 128,-1,2
 962 0 962 0 860 0 c 2,3,-1
 186 0 l 1,4,-1
 186 106 l 1,5,-1
 301 106 l 1,6,-1
 301 415 l 2,7,8
 301 489 301 489 339.5 548.5 c 128,-1,9
 378 608 378 608 425.5 668.5 c 128,-1,10
 473 729 473 729 511.5 794.5 c 128,-1,11
 550 860 550 860 550 940 c 0,12,13
 550 1023 550 1023 496 1087 c 128,-1,14
 442 1151 442 1151 355 1151 c 0,15,16
 301 1151 301 1151 238.5 1116 c 128,-1,17
 176 1081 176 1081 156 1026 c 1,18,19
 180 1037 180 1037 205 1045 c 128,-1,20
 230 1053 230 1053 256 1053 c 0,21,22
 330 1053 330 1053 383 1013 c 128,-1,23
 436 973 436 973 436 892 c 0,24,25
 436 800 436 800 376.5 753.5 c 128,-1,26
 317 707 317 707 226 707 c 0,27,28
 144 707 144 707 78 755 c 128,-1,29
 12 803 12 803 12 895 c 0,30,31
 12 970 12 970 39.5 1030 c 128,-1,32
 67 1090 67 1090 113 1134 c 128,-1,33
 159 1178 159 1178 221.5 1202.5 c 128,-1,34
 284 1227 284 1227 355 1227 c 0,35,36
 422 1227 422 1227 489 1210 c 128,-1,37
 556 1193 556 1193 610.5 1155 c 128,-1,38
 665 1117 665 1117 698.5 1060.5 c 128,-1,39
 732 1004 732 1004 732 928 c 0,40,41
 732 864 732 864 695.5 804.5 c 128,-1,42
 659 745 659 745 616 687 c 128,-1,43
 573 629 573 629 535.5 570.5 c 128,-1,44
 498 512 498 512 498 445 c 2,45,-1
 498 106 l 1,46,-1
 854 106 l 1,47,-1
 854 1084 l 1,48,-1
 970 1215 l 1,49,-1
 1049 1215 l 1,50,51
 1049 995 1049 995 1049 772.5 c 128,-1,52
 1049 550 1049 550 1053 326 c 2,53,-1
 1053 195 l 1,0,1
323 885 m 0,54,55
 323 918 323 918 297.5 951.5 c 128,-1,56
 272 985 272 985 230 985 c 0,57,58
 186 985 186 985 160 956.5 c 128,-1,59
 134 928 134 928 134 882 c 0,60,61
 134 831 134 831 161.5 799.5 c 128,-1,62
 189 768 189 768 244 768 c 0,63,64
 284 768 284 768 303.5 809.5 c 128,-1,65
 323 851 323 851 323 885 c 0,54,55
EndSplineSet
EndChar
StartChar: uni0E03
Encoding: 3587 3587 134
Width: 1215
VWidth: 3198
Flags: W
HStem: 0 109<189 314 512 867> 662 58<185.941 315.089> 925 70<208.083 322.846> 1037 181<201 381> 1117 107<501.738 607.61>
VStem: 12 135<950.388 963.454 963.454 1027.78> 314 198<109 384.727 384.727 469.225> 336 100<761.663 896.231> 614 167<845.892 1100.07> 867 195<137.889 1101>
Fore
1062 156 m 1,0,1
 1062 150 1062 150 1057.5 137.5 c 128,-1,2
 1053 125 1053 125 1049 119 c 0,3,4
 1023 64 1023 64 975.5 32 c 128,-1,5
 928 0 928 0 870 0 c 2,6,-1
 189 0 l 1,7,-1
 189 109 l 1,8,-1
 314 109 l 1,9,-1
 314 412 l 2,10,11
 314 483 314 483 360 550 c 128,-1,12
 406 617 406 617 464 689 c 128,-1,13
 522 761 522 761 568 843 c 128,-1,14
 614 925 614 925 614 1026 c 0,15,16
 614 1059 614 1059 606 1088 c 128,-1,17
 598 1117 598 1117 559 1117 c 0,18,19
 540 1117 540 1117 519 1103.5 c 128,-1,20
 498 1090 498 1090 478 1076 c 128,-1,21
 458 1062 458 1062 433.5 1049.5 c 128,-1,22
 409 1037 409 1037 381 1037 c 0,23,24
 336 1037 336 1037 288.5 1066.5 c 128,-1,25
 241 1096 241 1096 214 1132 c 1,26,27
 180 1117 180 1117 163.5 1078.5 c 128,-1,28
 147 1040 147 1040 147 1004 c 0,29,30
 147 992 147 992 147 977 c 128,-1,31
 147 962 147 962 150 950 c 1,32,33
 173 965 173 965 203.5 980 c 128,-1,34
 234 995 234 995 262 995 c 0,35,36
 342 995 342 995 389 953.5 c 128,-1,37
 436 912 436 912 436 831 c 0,38,39
 436 748 436 748 381 705 c 128,-1,40
 326 662 326 662 247 662 c 0,41,42
 183 662 183 662 137.5 688 c 128,-1,43
 92 714 92 714 65.5 757 c 128,-1,44
 39 800 39 800 25.5 854.5 c 128,-1,45
 12 909 12 909 12 962 c 0,46,47
 12 1004 12 1004 24 1048.5 c 128,-1,48
 36 1093 36 1093 58 1132 c 128,-1,49
 80 1171 80 1171 116.5 1194.5 c 128,-1,50
 153 1218 153 1218 201 1218 c 0,51,52
 259 1218 259 1218 302 1186 c 128,-1,53
 345 1154 345 1154 390 1120 c 1,54,55
 425 1154 425 1154 470 1189 c 128,-1,56
 515 1224 515 1224 570 1224 c 0,57,58
 672 1224 672 1224 726.5 1165.5 c 128,-1,59
 781 1107 781 1107 781 1007 c 256,60,61
 781 909 781 909 746 842 c 128,-1,62
 711 775 711 775 665.5 717 c 128,-1,63
 620 659 620 659 578.5 604.5 c 128,-1,64
 537 550 537 550 522 476 c 0,65,66
 515 445 515 445 513.5 414.5 c 128,-1,67
 512 384 512 384 512 355 c 2,68,-1
 512 109 l 1,69,-1
 867 109 l 1,70,-1
 867 1101 l 1,71,-1
 979 1215 l 1,72,-1
 1062 1215 l 1,73,-1
 1062 156 l 1,0,1
336 828 m 256,74,75
 336 864 336 864 320.5 894.5 c 128,-1,76
 305 925 305 925 259 925 c 0,77,78
 220 925 220 925 193 897.5 c 128,-1,79
 166 870 166 870 166 831 c 0,80,81
 166 796 166 796 187 758 c 128,-1,82
 208 720 208 720 250 720 c 256,83,84
 290 720 290 720 313 756.5 c 128,-1,85
 336 793 336 793 336 828 c 256,74,75
EndSplineSet
EndChar
StartChar: uni0E04
Encoding: 3588 3588 135
Width: 1325
VWidth: 3198
Flags: W
HStem: 0 21G<198 384 982 1091.98> 473 74<422.728 561.101> 828 75<409.469 554.424> 1135 89<523.737 784.568>
VStem: 45 121<707.908 887.529> 198 186<0 428.961> 595 125<588.607 770.829> 982 199<119 995.809>
Fore
384 0 m 1,0,-1
 198 0 l 1,1,-1
 198 419 l 2,2,3
 198 422 198 422 174 449 c 128,-1,4
 150 476 150 476 121 523 c 128,-1,5
 92 570 92 570 68.5 635.5 c 128,-1,6
 45 701 45 701 45 781 c 0,7,8
 45 889 45 889 99 972.5 c 128,-1,9
 153 1056 153 1056 236.5 1112 c 128,-1,10
 320 1168 320 1168 421 1196 c 128,-1,11
 522 1224 522 1224 617 1224 c 256,12,13
 714 1224 714 1224 813 1204 c 128,-1,14
 912 1184 912 1184 993 1135.5 c 128,-1,15
 1074 1087 1074 1087 1127.5 1010.5 c 128,-1,16
 1181 934 1181 934 1181 818 c 2,17,-1
 1181 119 l 1,18,-1
 1074 0 l 1,19,-1
 982 0 l 1,20,-1
 982 828 l 2,21,22
 982 982 982 982 884.5 1058.5 c 128,-1,23
 787 1135 787 1135 643 1135 c 0,24,25
 570 1135 570 1135 497.5 1124 c 128,-1,26
 425 1113 425 1113 363 1084.5 c 128,-1,27
 301 1056 301 1056 253 1004.5 c 128,-1,28
 205 953 205 953 180 876 c 0,29,30
 173 854 173 854 169.5 830 c 128,-1,31
 166 806 166 806 166 784 c 0,32,33
 166 742 166 742 180.5 682.5 c 128,-1,34
 195 623 195 623 220 592 c 1,35,36
 230 656 230 656 244.5 712 c 128,-1,37
 259 768 259 768 288 809.5 c 128,-1,38
 317 851 317 851 364.5 877 c 128,-1,39
 412 903 412 903 486 903 c 0,40,41
 528 903 528 903 569.5 889.5 c 128,-1,42
 611 876 611 876 644.5 852 c 128,-1,43
 678 828 678 828 699 791 c 128,-1,44
 720 754 720 754 720 707 c 0,45,46
 720 595 720 595 659 534 c 128,-1,47
 598 473 598 473 495 473 c 0,48,49
 470 473 470 473 439.5 479.5 c 128,-1,50
 409 486 409 486 384 492 c 1,51,-1
 384 0 l 1,0,-1
595 697 m 0,52,53
 595 742 595 742 567.5 785 c 128,-1,54
 540 828 540 828 492 828 c 256,55,56
 445 828 445 828 408.5 783.5 c 128,-1,57
 372 739 372 739 372 690 c 0,58,59
 372 637 372 637 404 592 c 128,-1,60
 436 547 436 547 489 547 c 0,61,62
 537 547 537 547 566 598.5 c 128,-1,63
 595 650 595 650 595 697 c 0,52,53
EndSplineSet
EndChar
StartChar: uni0E05
Encoding: 3589 3589 136
Width: 1358
VWidth: 3198
Flags: W
HStem: 0 21G<287 476 1017 1119.66> 454 68<518.003 647.746> 800 67<510.108 653.52> 1014 106<619.488 706.845> 1081 150<862.584 963.513> 1132 99<331.096 440.783>
VStem: 73 116<709.942 925.27> 287 189<0 458.289> 681 115<562.027 767.427> 1017 195<119 942.907>
Fore
476 0 m 1,0,-1
 287 0 l 1,1,-1
 287 445 l 2,2,3
 287 454 287 454 253.5 488 c 128,-1,4
 220 522 220 522 180.5 572.5 c 128,-1,5
 141 623 141 623 107 685.5 c 128,-1,6
 73 748 73 748 73 818 c 0,7,8
 73 885 73 885 99 959.5 c 128,-1,9
 125 1034 125 1034 171 1092.5 c 128,-1,10
 217 1151 217 1151 279.5 1191 c 128,-1,11
 342 1231 342 1231 415 1231 c 0,12,13
 451 1231 451 1231 483 1213.5 c 128,-1,14
 515 1196 515 1196 544 1175 c 128,-1,15
 573 1154 573 1154 601 1137 c 128,-1,16
 629 1120 629 1120 659 1120 c 0,17,18
 693 1120 693 1120 725 1137 c 128,-1,19
 757 1154 757 1154 787.5 1175 c 128,-1,20
 818 1196 818 1196 848.5 1213.5 c 128,-1,21
 879 1231 879 1231 912 1231 c 0,22,23
 959 1231 959 1231 1010 1206 c 0,24,25
 1123 1151 1123 1151 1167.5 1055 c 128,-1,26
 1212 959 1212 959 1212 842 c 2,27,-1
 1212 119 l 1,28,-1
 1101 0 l 1,29,-1
 1017 0 l 1,30,-1
 1017 876 l 2,31,32
 1017 909 1017 909 1013.5 944 c 128,-1,33
 1010 979 1010 979 999.5 1009.5 c 128,-1,34
 989 1040 989 1040 964.5 1060.5 c 128,-1,35
 940 1081 940 1081 898 1081 c 0,36,37
 867 1081 867 1081 853 1075 c 0,38,-1
 795 1053 l 0,39,40
 751 1037 751 1037 724 1025.5 c 128,-1,41
 697 1014 697 1014 665 1014 c 0,42,43
 623 1014 623 1014 588 1033.5 c 128,-1,44
 553 1053 553 1053 521 1073 c 128,-1,45
 489 1093 489 1093 457 1112.5 c 128,-1,46
 425 1132 425 1132 390 1132 c 0,47,48
 364 1132 364 1132 342 1116.5 c 128,-1,49
 320 1101 320 1101 301 1084 c 0,50,51
 250 1029 250 1029 219.5 963.5 c 128,-1,52
 189 898 189 898 189 825 c 0,53,54
 189 768 189 768 225.5 715 c 128,-1,55
 262 662 262 662 301 617 c 2,56,-1
 311 604 l 1,57,-1
 323 675 l 2,58,59
 330 714 330 714 355.5 749 c 128,-1,60
 381 784 381 784 416 811.5 c 128,-1,61
 451 839 451 839 491 853 c 128,-1,62
 531 867 531 867 570 867 c 0,63,64
 668 867 668 867 732 814 c 128,-1,65
 796 761 796 761 796 675 c 0,66,67
 796 586 796 586 743 520 c 128,-1,68
 690 454 690 454 608 454 c 0,69,70
 576 454 576 454 544 457.5 c 128,-1,71
 512 461 512 461 476 483 c 1,72,-1
 476 0 l 1,0,-1
681 672 m 0,73,74
 681 717 681 717 653.5 758.5 c 128,-1,75
 626 800 626 800 579 800 c 256,76,77
 531 800 531 800 494.5 757 c 128,-1,78
 458 714 458 714 458 665 c 0,79,80
 458 611 458 611 490 566.5 c 128,-1,81
 522 522 522 522 576 522 c 0,82,83
 623 522 623 522 652 572.5 c 128,-1,84
 681 623 681 623 681 672 c 0,73,74
EndSplineSet
EndChar
StartChar: uni0E06
Encoding: 3590 3590 137
Width: 1374
VWidth: 3198
Flags: W
HStem: 0 77<298.645 360.685> 681 64<172.205 305.968> 934 73<161.178 297.25> 1120 101<533.687 631.155>
VStem: 25 128<781.781 926.068> 116 146<137.81 285.796> 314 114<752.146 899.816> 375 184<115.722 358 503 641.109> 643 160<869.005 1095.32> 1029 198<183 1110>
Fore
1046 3 m 1,0,1
 931 103 931 103 806 186 c 128,-1,2
 681 269 681 269 559 358 c 1,3,-1
 559 208 l 2,4,5
 559 92 559 92 503.5 46 c 128,-1,6
 448 0 448 0 336 0 c 256,7,8
 223 0 223 0 169.5 62.5 c 128,-1,9
 116 125 116 125 116 234 c 0,10,11
 116 284 116 284 139 329.5 c 128,-1,12
 162 375 162 375 199.5 410 c 128,-1,13
 237 445 237 445 283.5 468.5 c 128,-1,14
 330 492 330 492 375 503 c 1,15,-1
 375 553 l 2,16,17
 375 598 375 598 416.5 642.5 c 128,-1,18
 458 687 458 687 508.5 743.5 c 128,-1,19
 559 800 559 800 601 868.5 c 128,-1,20
 643 937 643 937 643 1034 c 0,21,22
 643 1056 643 1056 630 1088 c 128,-1,23
 617 1120 617 1120 592 1120 c 256,24,25
 565 1120 565 1120 543.5 1103.5 c 128,-1,26
 522 1087 522 1087 500.5 1070 c 128,-1,27
 479 1053 479 1053 457.5 1036.5 c 128,-1,28
 436 1020 436 1020 406 1020 c 0,29,30
 348 1020 348 1020 300.5 1058 c 128,-1,31
 253 1096 253 1096 195 1123 c 1,32,33
 153 1056 153 1056 147 965 c 1,34,35
 198 1007 198 1007 262 1007 c 0,36,37
 339 1007 339 1007 383.5 969 c 128,-1,38
 428 931 428 931 428 851 c 0,39,40
 428 768 428 768 374 724.5 c 128,-1,41
 320 681 320 681 241 681 c 0,42,43
 137 681 137 681 81 742 c 128,-1,44
 25 803 25 803 25 906 c 0,45,46
 25 959 25 959 32 1015 c 128,-1,47
 39 1071 39 1071 59.5 1117 c 128,-1,48
 80 1163 80 1163 119.5 1193.5 c 128,-1,49
 159 1224 159 1224 226 1224 c 0,50,51
 244 1224 244 1224 267 1213.5 c 128,-1,52
 290 1203 290 1203 317.5 1187 c 128,-1,53
 345 1171 345 1171 369.5 1154.5 c 128,-1,54
 394 1138 394 1138 406 1129 c 1,55,56
 461 1157 461 1157 507 1189 c 128,-1,57
 553 1221 553 1221 617 1221 c 0,58,59
 720 1221 720 1221 761.5 1154 c 128,-1,60
 803 1087 803 1087 803 995 c 0,61,62
 803 925 803 925 766 865.5 c 128,-1,63
 729 806 729 806 684.5 753.5 c 128,-1,64
 640 701 640 701 602.5 652.5 c 128,-1,65
 565 604 565 604 565 550 c 2,66,-1
 565 483 l 1,67,68
 684 409 684 409 801 335.5 c 128,-1,69
 918 262 918 262 1029 183 c 1,70,-1
 1029 1110 l 1,71,-1
 1145 1215 l 1,72,-1
 1227 1215 l 1,73,-1
 1227 3 l 1,74,-1
 1046 3 l 1,0,1
314 836 m 0,75,76
 314 867 314 867 294.5 900.5 c 128,-1,77
 275 934 275 934 241 934 c 0,78,79
 153 934 153 934 153 845 c 0,80,81
 153 812 153 812 174 778.5 c 128,-1,82
 195 745 195 745 230 745 c 0,83,84
 314 745 314 745 314 836 c 0,75,76
375 406 m 1,85,86
 317 394 317 394 289.5 339 c 128,-1,87
 262 284 262 284 262 230 c 0,88,89
 262 211 262 211 265.5 185 c 128,-1,90
 269 159 269 159 276.5 135.5 c 128,-1,91
 284 112 284 112 300.5 94.5 c 128,-1,92
 317 77 317 77 342 77 c 0,93,94
 351 77 351 77 363 104 c 128,-1,95
 375 131 375 131 375 141 c 2,96,-1
 375 406 l 1,85,86
EndSplineSet
EndChar
StartChar: uni0E07
Encoding: 3591 3591 138
Width: 943
VWidth: 3198
Flags: W
HStem: -3 21G<545.114 721.5> 778 67<482.887 573.004> 1171 60<457.22 615.354>
VStem: 36 760<109 620 620 620> 294 128<922.168 1127.77> 604 192<153 787> 643 153<965.451 1072.58>
Fore
796 109 m 1,0,1
 796 98 796 98 787 79.5 c 128,-1,2
 778 61 778 61 766 43 c 128,-1,3
 754 25 754 25 740 11 c 128,-1,4
 726 -3 726 -3 717 -3 c 2,5,-1
 562 -3 l 1,6,-1
 36 620 l 1,7,-1
 189 620 l 1,8,-1
 604 153 l 1,9,-1
 604 787 l 1,10,11
 574 781 l 0,12,13
 559 778 559 778 543 778 c 0,14,15
 436 778 436 778 365 840.5 c 128,-1,16
 294 903 294 903 294 1014 c 256,17,18
 294 1126 294 1126 368 1178.5 c 128,-1,19
 442 1231 442 1231 543 1231 c 256,20,21
 647 1231 647 1231 721.5 1169 c 128,-1,22
 796 1107 796 1107 796 998 c 2,23,-1
 796 109 l 1,0,1
643 1017 m 0,24,25
 643 1065 643 1065 620.5 1118 c 128,-1,26
 598 1171 598 1171 540 1171 c 256,27,28
 483 1171 483 1171 452.5 1119.5 c 128,-1,29
 422 1068 422 1068 422 1017 c 0,30,31
 422 992 422 992 429 961.5 c 128,-1,32
 436 931 436 931 450 905 c 128,-1,33
 464 879 464 879 486.5 862 c 128,-1,34
 509 845 509 845 540 845 c 0,35,36
 570 845 570 845 589 863.5 c 128,-1,37
 608 882 608 882 621 908 c 128,-1,38
 634 934 634 934 638.5 964.5 c 128,-1,39
 643 995 643 995 643 1017 c 0,24,25
EndSplineSet
EndChar
StartChar: uni0E08
Encoding: 3592 3592 139
Width: 1108
VWidth: 3198
Flags: W
HStem: 6 97<701 771> 412 80<272.523 408.625> 757 74<267.207 376.758 19 982 189.22 343.224> 1142 85<337.396 634.711>
VStem: 109 138<546.15 710.734> 789 193<637.374 647.549 642.462 942.736>
Fore
937 6 m 1,0,-1
 573 6 l 1,1,-1
 464 458 l 1,2,3
 403 412 403 412 330 412 c 0,4,5
 226 412 226 412 167.5 470 c 128,-1,6
 109 528 109 528 109 629 c 256,7,8
 109 732 109 732 181 781.5 c 128,-1,9
 253 831 253 831 345 831 c 0,10,11
 403 831 403 831 444.5 812 c 128,-1,12
 486 793 486 793 522 745 c 0,13,14
 547 714 547 714 574 627 c 128,-1,15
 601 540 601 540 625.5 439.5 c 128,-1,16
 650 339 650 339 668.5 244.5 c 128,-1,17
 687 150 687 150 701 103 c 1,18,-1
 771 103 l 1,19,20
 778 275 778 275 789 444.5 c 128,-1,21
 800 614 800 614 800 787 c 0,22,23
 800 867 800 867 787.5 932.5 c 128,-1,24
 775 998 775 998 741 1044 c 128,-1,25
 707 1090 707 1090 649.5 1116 c 128,-1,26
 592 1142 592 1142 503 1142 c 0,27,28
 425 1142 425 1142 356 1114.5 c 128,-1,29
 287 1087 287 1087 228.5 1044 c 128,-1,30
 170 1001 170 1001 118.5 946.5 c 128,-1,31
 67 892 67 892 19 836 c 1,32,-1
 19 1056 l 1,33,34
 131 1148 131 1148 233.5 1187.5 c 128,-1,35
 336 1227 336 1227 483 1227 c 0,36,37
 617 1227 617 1227 713 1207 c 128,-1,38
 809 1187 809 1187 868.5 1134 c 128,-1,39
 928 1081 928 1081 955 989.5 c 128,-1,40
 982 898 982 898 982 757 c 2,41,-1
 937 6 l 1,0,-1
428 604 m 0,42,43
 428 623 428 623 421.5 649 c 128,-1,44
 415 675 415 675 402.5 699 c 128,-1,45
 390 723 390 723 372.5 740 c 128,-1,46
 355 757 355 757 333 757 c 0,47,48
 284 757 284 757 265.5 711 c 128,-1,49
 247 665 247 665 247 626 c 0,50,51
 247 583 247 583 272 537.5 c 128,-1,52
 297 492 297 492 345 492 c 0,53,54
 387 492 387 492 407.5 531 c 128,-1,55
 428 570 428 570 428 604 c 0,42,43
EndSplineSet
EndChar
StartChar: uni0E09
Encoding: 3593 3593 140
Width: 1282
VWidth: 3198
Flags: W
HStem: -6 73<948.036 1056.8> 375 86<214.335 330.352> 687 77<216.49 351.791> 1138 93<434.336 773.152>
VStem: 58 134<502.046 658.226> 342 189<192 390> 369 162<517.404 612.911> 790 141<103.65 205.82 202.764 208.877 208.877 242.749> 940 195<433.002 506 506 1000.64> 1071 138<105.103 259.99>
Fore
1209 180 m 0,0,1
 1209 80 1209 80 1158 37 c 128,-1,2
 1107 -6 1107 -6 1017 -6 c 0,3,4
 895 -6 895 -6 842.5 37 c 128,-1,5
 790 80 790 80 790 195 c 0,6,7
 790 205 790 205 795 223 c 128,-1,8
 800 241 800 241 806 250 c 1,9,10
 775 230 775 230 731 201.5 c 128,-1,11
 687 173 687 173 647.5 141 c 128,-1,12
 608 109 608 109 572.5 72.5 c 128,-1,13
 537 36 537 36 522 0 c 1,14,-1
 342 0 l 1,15,-1
 342 390 l 1,16,17
 308 375 308 375 256 375 c 0,18,19
 183 375 183 375 120.5 421 c 128,-1,20
 58 467 58 467 58 547 c 0,21,22
 58 656 58 656 126.5 710 c 128,-1,23
 195 764 195 764 297 764 c 0,24,25
 431 764 431 764 481 699 c 128,-1,26
 531 634 531 634 531 509 c 2,27,-1
 531 192 l 1,28,29
 576 217 576 217 616 244.5 c 128,-1,30
 656 272 656 272 701 297 c 0,31,32
 729 314 729 314 770.5 332.5 c 128,-1,33
 812 351 812 351 850.5 375.5 c 128,-1,34
 889 400 889 400 914.5 432 c 128,-1,35
 940 464 940 464 940 506 c 2,36,-1
 940 809 l 2,37,38
 940 965 940 965 859 1051.5 c 128,-1,39
 778 1138 778 1138 617 1138 c 0,40,41
 534 1138 534 1138 453 1109.5 c 128,-1,42
 372 1081 372 1081 294.5 1036.5 c 128,-1,43
 217 992 217 992 148.5 934 c 128,-1,44
 80 876 80 876 25 821 c 1,45,-1
 25 1040 l 1,46,47
 147 1132 147 1132 299 1181.5 c 128,-1,48
 451 1231 451 1231 604 1231 c 0,49,50
 717 1231 717 1231 814.5 1215 c 128,-1,51
 912 1199 912 1199 984 1154.5 c 128,-1,52
 1056 1110 1056 1110 1095.5 1028 c 128,-1,53
 1135 946 1135 946 1135 815 c 2,54,-1
 1135 509 l 2,55,56
 1135 464 1135 464 1109.5 429 c 128,-1,57
 1084 394 1084 394 1059 361 c 1,58,59
 1129 345 1129 345 1169 299 c 128,-1,60
 1209 253 1209 253 1209 180 c 0,0,1
1071 189 m 0,61,62
 1071 217 1071 217 1055.5 255.5 c 128,-1,63
 1040 294 1040 294 1004 294 c 0,64,65
 959 294 959 294 945 252.5 c 128,-1,66
 931 211 931 211 931 176 c 0,67,68
 931 147 931 147 948 107 c 128,-1,69
 965 67 965 67 1001 67 c 0,70,71
 1043 67 1043 67 1057 111.5 c 128,-1,72
 1071 156 1071 156 1071 189 c 0,61,62
369 562 m 0,73,74
 369 598 369 598 352.5 642.5 c 128,-1,75
 336 687 336 687 290 687 c 128,-1,76
 244 687 244 687 218 649 c 128,-1,77
 192 611 192 611 192 565 c 0,78,79
 192 531 192 531 216.5 496 c 128,-1,80
 241 461 241 461 278 461 c 0,81,82
 326 461 326 461 347.5 489.5 c 128,-1,83
 369 518 369 518 369 562 c 0,73,74
EndSplineSet
EndChar
StartChar: uni0E0A
Encoding: 3594 3594 141
Width: 1239
VWidth: 3198
Flags: W
HStem: -3 112<201 330 525 903> 690 67<179.885 306.291> 946 91<206.581 304.971> 1151 73<279.415 495.327>
VStem: 19 140<778.949 915.497> 323 122<788.9 913.237> 330 195<109 508.55> 595 150<802.815 1077.86> 903 198<123.447 783.821>
Fore
1227 1270 m 1,0,1
 1163 1163 1163 1163 1086.5 1080.5 c 128,-1,2
 1010 998 1010 998 898 937 c 1,3,4
 982 909 982 909 1041.5 827 c 128,-1,5
 1101 745 1101 745 1101 656 c 2,6,-1
 1101 159 l 2,7,8
 1101 153 1101 153 1098.5 122.5 c 128,-1,9
 1096 92 1096 92 1084 77 c 0,10,11
 1074 64 1074 64 1058.5 50 c 128,-1,12
 1043 36 1043 36 979 9 c 0,13,14
 965 3 965 3 943 0 c 128,-1,15
 921 -3 921 -3 909 -3 c 2,16,-1
 201 -3 l 1,17,-1
 201 109 l 1,18,-1
 330 109 l 1,19,-1
 330 400 l 2,20,21
 330 448 330 448 371 510.5 c 128,-1,22
 412 573 412 573 462 645 c 128,-1,23
 512 717 512 717 553.5 793.5 c 128,-1,24
 595 870 595 870 595 950 c 0,25,26
 595 1034 595 1034 537 1092.5 c 128,-1,27
 479 1151 479 1151 397 1151 c 0,28,29
 323 1151 323 1151 249.5 1108 c 128,-1,30
 176 1065 176 1065 159 989 c 1,31,32
 192 1017 192 1017 224 1027 c 128,-1,33
 256 1037 256 1037 290 1037 c 0,34,35
 364 1037 364 1037 404.5 987 c 128,-1,36
 445 937 445 937 445 867 c 0,37,38
 445 781 445 781 390.5 735.5 c 128,-1,39
 336 690 336 690 253 690 c 0,40,41
 150 690 150 690 84.5 748 c 128,-1,42
 19 806 19 806 19 915 c 0,43,44
 19 989 19 989 51 1046.5 c 128,-1,45
 83 1104 83 1104 134.5 1144 c 128,-1,46
 186 1184 186 1184 251.5 1204 c 128,-1,47
 317 1224 317 1224 384 1224 c 0,48,49
 442 1224 442 1224 506 1210 c 128,-1,50
 570 1196 570 1196 622.5 1165.5 c 128,-1,51
 675 1135 675 1135 710 1086 c 128,-1,52
 745 1037 745 1037 745 970 c 0,53,54
 745 879 745 879 710 807.5 c 128,-1,55
 675 736 675 736 635 667 c 128,-1,56
 595 598 595 598 560 531 c 128,-1,57
 525 464 525 464 525 384 c 2,58,-1
 525 109 l 1,59,-1
 903 109 l 1,60,-1
 903 650 l 2,61,62
 903 732 903 732 878.5 785.5 c 128,-1,63
 854 839 854 839 781 882 c 1,64,-1
 781 979 l 1,65,66
 867 1020 867 1020 935.5 1100.5 c 128,-1,67
 1004 1181 1004 1181 1037 1270 c 1,68,-1
 1227 1270 l 1,0,1
323 851 m 0,69,70
 323 889 323 889 300.5 917.5 c 128,-1,71
 278 946 278 946 237 946 c 0,72,73
 198 946 198 946 178.5 917.5 c 128,-1,74
 159 889 159 889 159 854 c 256,75,76
 159 818 159 818 183.5 787.5 c 128,-1,77
 208 757 208 757 244 757 c 0,78,79
 281 757 281 757 302 786 c 128,-1,80
 323 815 323 815 323 851 c 0,69,70
EndSplineSet
EndChar
StartChar: uni0E0B
Encoding: 3595 3595 142
Width: 1300
VWidth: 3198
Flags: W
HStem: 0 106<226 375 573 949.908> 684 55<213.995 332.559> 925 79<243.533 338.587> 1123 98<196.062 300.009 562.066 642.482>
VStem: 48 138<957.438 998.744 998.744 1031.16 1031.16 1050 1078.5 1121.39> 351 110<772.831 899.65> 375 198<106 541.206> 653 140<870.877 1102.9> 950 195<106.125 813.187>
Fore
241 1123 m 256,0,1
 205 1123 205 1123 195.5 1078.5 c 128,-1,2
 186 1034 186 1034 186 995 c 0,3,4
 186 989 186 989 186 975.5 c 128,-1,5
 186 962 186 962 189 956 c 1,6,7
 208 979 208 979 244.5 991.5 c 128,-1,8
 281 1004 281 1004 311 1004 c 0,9,10
 381 1004 381 1004 421 964.5 c 128,-1,11
 461 925 461 925 461 854 c 0,12,13
 461 771 461 771 403 727.5 c 128,-1,14
 345 684 345 684 269 684 c 0,15,16
 211 684 211 684 169.5 708 c 128,-1,17
 128 732 128 732 100.5 770.5 c 128,-1,18
 73 809 73 809 60.5 859 c 128,-1,19
 48 909 48 909 48 959 c 0,20,21
 48 1004 48 1004 57.5 1050 c 128,-1,22
 67 1096 67 1096 89.5 1135 c 128,-1,23
 112 1174 112 1174 149 1197.5 c 128,-1,24
 186 1221 186 1221 241 1221 c 256,25,26
 294 1221 294 1221 337.5 1186 c 128,-1,27
 381 1151 381 1151 425 1126 c 1,28,29
 451 1135 451 1135 461 1144 c 0,30,-1
 499 1179 l 0,31,32
 528 1206 528 1206 550.5 1216.5 c 128,-1,33
 573 1227 573 1227 604 1227 c 0,34,35
 707 1227 707 1227 750 1168.5 c 128,-1,36
 793 1110 793 1110 793 1017 c 0,37,38
 793 921 793 921 758 841 c 128,-1,39
 723 761 723 761 683 689 c 128,-1,40
 643 617 643 617 608 550 c 128,-1,41
 573 483 573 483 573 419 c 2,42,-1
 573 106 l 1,43,-1
 950 106 l 1,44,-1
 950 697 l 2,45,46
 950 757 950 757 919.5 815 c 128,-1,47
 889 873 889 873 836 903 c 1,48,-1
 836 982 l 1,49,50
 915 1037 915 1037 982 1109 c 128,-1,51
 1049 1181 1049 1181 1087 1270 c 1,52,-1
 1288 1270 l 1,53,54
 1218 1151 1218 1151 1143 1085.5 c 128,-1,55
 1068 1020 1068 1020 956 946 c 1,56,57
 1040 903 1040 903 1092.5 837 c 128,-1,58
 1145 771 1145 771 1145 675 c 2,59,-1
 1145 156 l 2,60,61
 1145 92 1145 92 1097 60 c 128,-1,62
 1049 28 1049 28 995 12 c 0,63,64
 985 9 985 9 970.5 4.5 c 128,-1,65
 956 0 956 0 946 0 c 2,66,-1
 226 0 l 1,67,-1
 226 106 l 1,68,-1
 375 106 l 1,69,-1
 375 409 l 2,70,71
 375 470 375 470 418 543.5 c 128,-1,72
 461 617 461 617 513 699 c 128,-1,73
 565 781 565 781 609 870 c 128,-1,74
 653 959 653 959 653 1049 c 0,75,76
 653 1084 653 1084 636.5 1103.5 c 128,-1,77
 620 1123 620 1123 576 1123 c 0,78,79
 570 1123 570 1123 556.5 1106.5 c 128,-1,80
 543 1090 543 1090 524.5 1073 c 128,-1,81
 506 1056 506 1056 483.5 1039.5 c 128,-1,82
 461 1023 461 1023 431 1023 c 0,83,84
 400 1023 400 1023 380.5 1033 c 128,-1,85
 361 1043 361 1043 336 1062 c 1,86,-1
 326 1071 l 1,87,-1
 320 1078 l 2,88,89
 297 1101 297 1101 286 1112 c 128,-1,90
 275 1123 275 1123 241 1123 c 256,0,1
351 836 m 256,91,92
 351 870 351 870 335.5 897.5 c 128,-1,93
 320 925 320 925 281 925 c 0,94,95
 247 925 247 925 224 899 c 128,-1,96
 201 873 201 873 201 839 c 0,97,98
 201 806 201 806 215.5 772.5 c 128,-1,99
 230 739 230 739 269 739 c 256,100,101
 308 739 308 739 329.5 769.5 c 128,-1,102
 351 800 351 800 351 836 c 256,91,92
EndSplineSet
EndChar
StartChar: uni0E0C
Encoding: 3596 3596 143
Width: 1800
VWidth: 3198
Flags: W
HStem: -9 79<365.097 497.835 874.496 946.413> 320 80<377.637 496.307> 873 83<173 275> 1138 93<433.529 675.253 660.989 689.517 689.517 739 790 832.406>
VStem: 162 168<163.75 246.155> 162 193<375 785.28> 522 121<93.2881 264.94> 707 138<113.088 269.511> 953 179<89.6996 294 442 870 928 1002.88> 1459 195<208 1123>
Fore
1480 3 m 1,0,1
 1407 92 1407 92 1314 157.5 c 128,-1,2
 1221 223 1221 223 1132 294 c 1,3,-1
 1132 147 l 2,4,5
 1132 70 1132 70 1071 31 c 0,6,7
 1014 -6 1014 -6 943 -6 c 0,8,9
 851 -6 851 -6 779 40 c 128,-1,10
 707 86 707 86 707 189 c 0,11,12
 707 244 707 244 726 283.5 c 128,-1,13
 745 323 745 323 777 353.5 c 128,-1,14
 809 384 809 384 850.5 404.5 c 128,-1,15
 892 425 892 425 940 442 c 1,16,-1
 940 870 l 2,17,18
 940 953 940 953 914.5 1004.5 c 128,-1,19
 889 1056 889 1056 844.5 1086.5 c 128,-1,20
 800 1117 800 1117 739 1127.5 c 128,-1,21
 678 1138 678 1138 604 1138 c 0,22,23
 486 1138 486 1138 368 1093.5 c 128,-1,24
 250 1049 250 1049 173 956 c 1,25,-1
 483 956 l 1,26,-1
 483 879 l 1,27,28
 422 870 422 870 388.5 820.5 c 128,-1,29
 355 771 355 771 355 714 c 2,30,-1
 355 375 l 1,31,32
 375 384 375 384 397 392 c 128,-1,33
 419 400 419 400 442 400 c 0,34,35
 534 400 534 400 588.5 347 c 128,-1,36
 643 294 643 294 643 198 c 0,37,38
 643 106 643 106 574.5 48.5 c 128,-1,39
 506 -9 506 -9 419 -9 c 0,40,41
 314 -9 314 -9 238 67.5 c 128,-1,42
 162 144 162 144 162 250 c 2,43,-1
 162 672 l 2,44,45
 162 732 162 732 192.5 787 c 128,-1,46
 223 842 223 842 275 873 c 1,47,-1
 22 873 l 1,48,-1
 22 992 l 1,49,-1
 180 1107 l 2,50,51
 290 1187 290 1187 398 1209 c 128,-1,52
 506 1231 506 1231 629 1231 c 0,53,54
 704 1231 704 1231 790 1218.5 c 128,-1,55
 876 1206 876 1206 952.5 1172 c 128,-1,56
 1029 1138 1029 1138 1080.5 1079 c 128,-1,57
 1132 1020 1132 1020 1132 928 c 2,58,-1
 1132 428 l 1,59,60
 1302 323 1302 323 1459 208 c 1,61,-1
 1459 1123 l 1,62,-1
 1580 1215 l 1,63,-1
 1654 1215 l 1,64,-1
 1654 3 l 1,65,-1
 1480 3 l 1,0,1
953 345 m 1,66,67
 903 330 903 330 874 290 c 128,-1,68
 845 250 845 250 845 195 c 0,69,70
 845 180 845 180 848 157 c 128,-1,71
 851 134 851 134 859 111.5 c 128,-1,72
 867 89 867 89 879.5 75 c 128,-1,73
 892 61 892 61 915 61 c 0,74,75
 934 61 934 61 943.5 83.5 c 128,-1,76
 953 106 953 106 953 122 c 2,77,-1
 953 345 l 1,66,67
522 180 m 256,78,79
 522 223 522 223 499 271.5 c 128,-1,80
 476 320 476 320 422 320 c 0,81,82
 378 320 378 320 354 282 c 128,-1,83
 330 244 330 244 330 205 c 256,84,85
 330 166 330 166 357 118 c 128,-1,86
 384 70 384 70 428 70 c 256,87,88
 473 70 473 70 497.5 102 c 128,-1,89
 522 134 522 134 522 180 c 256,78,79
EndSplineSet
EndChar
StartChar: uni0E0D
Encoding: 3597 3597 144
Width: 1777
VWidth: 3198
Flags: W
HStem: -506 84<1019.43 1163.68 1187 1228.55> -173 61<999.972 1112.88> -9 79<352.609 493.566> 0 106<1062 1437> 320 83<371.408 489.876> 860 93<156 281> 1126 105<498.112 762.141>
VStem: 137 196<163.75 246.155 375 764.153> 515 122<93.6687 265.587> 851 131<-372.875 -217.865> 867 195<106 1012.9> 1123 128<-331.772 -202.013> 1437 193<-249.157 -199.5 -198 -174.788 -174.788 -150 106 1117>
Fore
867 0 m 1,0,-1
 867 806 l 2,1,2
 867 959 867 959 804.5 1042.5 c 128,-1,3
 742 1126 742 1126 579 1126 c 0,4,5
 528 1126 528 1126 468.5 1113.5 c 128,-1,6
 409 1101 409 1101 351.5 1078.5 c 128,-1,7
 294 1056 294 1056 243 1024 c 128,-1,8
 192 992 192 992 156 953 c 1,9,-1
 483 953 l 1,10,-1
 483 864 l 1,11,12
 409 839 409 839 371 792 c 128,-1,13
 333 745 333 745 333 662 c 2,14,-1
 333 375 l 1,15,16
 358 384 358 384 386.5 393.5 c 128,-1,17
 415 403 415 403 445 403 c 0,18,19
 528 403 528 403 582.5 352 c 128,-1,20
 637 301 637 301 637 217 c 0,21,22
 637 98 637 98 574.5 44.5 c 128,-1,23
 512 -9 512 -9 400 -9 c 0,24,25
 297 -9 297 -9 217 55 c 128,-1,26
 137 119 137 119 137 223 c 2,27,-1
 137 634 l 2,28,29
 137 707 137 707 180 766 c 128,-1,30
 223 825 223 825 281 860 c 1,31,-1
 22 860 l 1,32,-1
 22 1001 l 1,33,34
 86 1043 86 1043 153 1084.5 c 128,-1,35
 220 1126 220 1126 290.5 1158 c 128,-1,36
 361 1190 361 1190 435 1210.5 c 128,-1,37
 509 1231 509 1231 589 1231 c 0,38,39
 803 1231 803 1231 932.5 1124 c 128,-1,40
 1062 1017 1062 1017 1062 793 c 2,41,-1
 1062 106 l 1,42,-1
 1437 106 l 1,43,-1
 1437 1117 l 1,44,-1
 1548 1215 l 1,45,-1
 1630 1215 l 1,46,-1
 1630 0 l 1,47,-1
 867 0 l 1,0,-1
1621 -198 m 1,48,49
 1621 -284 1621 -284 1570.5 -343.5 c 128,-1,50
 1520 -403 1520 -403 1446.5 -438 c 128,-1,51
 1373 -473 1373 -473 1286 -489.5 c 128,-1,52
 1199 -506 1199 -506 1132 -506 c 0,53,54
 1087 -506 1087 -506 1038 -496 c 128,-1,55
 989 -486 989 -486 947.5 -462.5 c 128,-1,56
 906 -439 906 -439 878.5 -400 c 128,-1,57
 851 -361 851 -361 851 -308 c 0,58,59
 851 -214 851 -214 903.5 -163 c 128,-1,60
 956 -112 956 -112 1049 -112 c 0,61,62
 1132 -112 1132 -112 1191.5 -146 c 128,-1,63
 1251 -180 1251 -180 1251 -272 c 0,64,65
 1251 -317 1251 -317 1236 -355.5 c 128,-1,66
 1221 -394 1221 -394 1187 -422 c 1,67,-1
 1209 -422 l 2,68,69
 1292 -422 1292 -422 1359 -379 c 128,-1,70
 1426 -336 1426 -336 1443 -250 c 0,71,72
 1449 -223 1449 -223 1447.5 -199.5 c 128,-1,73
 1446 -176 1446 -176 1449 -150 c 1,74,-1
 1621 -150 l 1,75,-1
 1621 -198 l 1,48,49
1123 -287 m 0,76,77
 1123 -259 1123 -259 1113.5 -216 c 128,-1,78
 1104 -173 1104 -173 1062 -173 c 0,79,80
 1017 -173 1017 -173 999.5 -219 c 128,-1,81
 982 -265 982 -265 982 -301 c 0,82,83
 982 -330 982 -330 996 -369.5 c 128,-1,84
 1010 -409 1010 -409 1046 -409 c 0,85,86
 1087 -409 1087 -409 1105 -364.5 c 128,-1,87
 1123 -320 1123 -320 1123 -287 c 0,76,77
515 180 m 256,88,89
 515 223 515 223 492.5 271.5 c 128,-1,90
 470 320 470 320 415 320 c 0,91,92
 372 320 372 320 347.5 282 c 128,-1,93
 323 244 323 244 323 205 c 256,94,95
 323 166 323 166 350.5 118 c 128,-1,96
 378 70 378 70 422 70 c 256,97,98
 467 70 467 70 491 102 c 128,-1,99
 515 134 515 134 515 180 c 256,88,89
EndSplineSet
Substitution2: "Single Substitution lookup 22 subtable" uni0E0D.alt1
Substitution2: "Single Substitution lookup 22 subtable" uni0E0D.alt1
EndChar
StartChar: uni0E0E
Encoding: 3598 3598 145
Width: 1422
VWidth: 3198
Flags: W
HStem: -534 89<478.569 622.409> -269 99<464.657 552.959 544.362 561.557 561.557 585.562> -39 20G<721.869 836> -6 64<180.561 307.178> 311 83<176.067 282.465> 870 92<308 436> 1132 92<570.5 905.139>
VStem: 19 137<108.486 264.327> 290 158<-427.751 -286.37> 320 178<202.55 237.841 369 727.58> 656 180<-194.688 -80> 1081 195<-387 989.767>
Fore
629 962 m 1,0,-1
 629 876 l 1,1,2
 540 842 540 842 519 782.5 c 128,-1,3
 498 723 498 723 498 637 c 2,4,-1
 498 314 l 2,5,6
 498 244 498 244 488.5 186 c 128,-1,7
 479 128 479 128 453.5 85 c 128,-1,8
 428 42 428 42 379 18 c 128,-1,9
 330 -6 330 -6 250 -6 c 0,10,11
 150 -6 150 -6 84.5 35.5 c 128,-1,12
 19 77 19 77 19 189 c 0,13,14
 19 281 19 281 72 337.5 c 128,-1,15
 125 394 125 394 217 394 c 0,16,17
 265 394 265 394 308 369 c 1,18,-1
 308 647 l 2,19,20
 308 720 308 720 343 775.5 c 128,-1,21
 378 831 378 831 436 870 c 1,22,-1
 173 870 l 1,23,-1
 173 995 l 1,24,25
 217 1049 217 1049 282.5 1092 c 128,-1,26
 348 1135 348 1135 425.5 1164 c 128,-1,27
 503 1193 503 1193 581 1208.5 c 128,-1,28
 659 1224 659 1224 726 1224 c 0,29,30
 848 1224 848 1224 948.5 1205.5 c 128,-1,31
 1049 1187 1049 1187 1122.5 1137 c 128,-1,32
 1196 1087 1196 1087 1236 1001 c 128,-1,33
 1276 915 1276 915 1276 778 c 2,34,-1
 1276 -534 l 1,35,-1
 1084 -534 l 1,36,-1
 806 -372 l 1,37,38
 781 -454 781 -454 705 -494 c 128,-1,39
 629 -534 629 -534 547 -534 c 0,40,41
 509 -534 509 -534 464 -524.5 c 128,-1,42
 419 -515 419 -515 380.5 -494 c 128,-1,43
 342 -473 342 -473 316 -439.5 c 128,-1,44
 290 -406 290 -406 290 -358 c 0,45,46
 290 -262 290 -262 357.5 -216 c 128,-1,47
 425 -170 425 -170 518 -170 c 0,48,49
 553 -170 553 -170 586.5 -178 c 128,-1,50
 620 -186 620 -186 656 -195 c 1,51,-1
 656 -80 l 1,52,-1
 754 -19 l 1,53,-1
 836 -19 l 1,54,-1
 836 -131 l 2,55,56
 836 -174 l 0,57,58
 836 -217 836 -217 828 -247 c 1,59,60
 892 -284 892 -284 954.5 -317.5 c 128,-1,61
 1017 -351 1017 -351 1081 -387 c 1,62,-1
 1081 790 l 2,63,64
 1081 953 1081 953 999.5 1042.5 c 128,-1,65
 918 1132 918 1132 751 1132 c 0,66,67
 634 1132 634 1132 506 1087.5 c 128,-1,68
 378 1043 378 1043 308 962 c 1,69,-1
 454 962 l 1,70,-1
 629 962 l 1,0,-1
320 198 m 2,71,72
 320 230 320 230 299 270.5 c 128,-1,73
 278 311 278 311 244 311 c 0,74,75
 195 311 195 311 175.5 265.5 c 128,-1,76
 156 220 156 220 156 183 c 256,77,78
 156 144 156 144 180.5 101 c 128,-1,79
 205 58 205 58 250 58 c 256,80,81
 294 58 294 58 307 97.5 c 128,-1,82
 320 137 320 137 320 173 c 2,83,-1
 320 198 l 2,71,72
643 -317 m 0,84,85
 643 -308 643 -308 628.5 -299 c 128,-1,86
 614 -290 614 -290 595 -282.5 c 128,-1,87
 576 -275 576 -275 558 -272 c 128,-1,88
 540 -269 540 -269 531 -269 c 0,89,90
 495 -269 495 -269 471.5 -293 c 128,-1,91
 448 -317 448 -317 448 -355 c 0,92,93
 448 -397 448 -397 473 -421 c 128,-1,94
 498 -445 498 -445 537 -445 c 0,95,96
 598 -445 598 -445 620.5 -408.5 c 128,-1,97
 643 -372 643 -372 643 -317 c 0,84,85
EndSplineSet
Substitution2: "Single Substitution lookup 22 subtable" uni0E0E.alt1
Substitution2: "Single Substitution lookup 22 subtable" uni0E0E.alt1
EndChar
StartChar: uni0E0F
Encoding: 3599 3599 146
Width: 1416
VWidth: 3198
Flags: W
HStem: -550 99<282.154 426.2> -281 98<258.821 396.101> -6 64<180.516 307.621> 311 86<177.49 253> 867 98<297 412> 1132 103<484.577 829.884>
VStem: 9 147<108.865 263.669> 106 144<-435.366 -289.45> 297 198<381 700.966> 1071 199<-384 915.908>
Fore
297 665 m 2,0,1
 297 729 297 729 329 780 c 128,-1,2
 361 831 361 831 412 867 c 1,3,-1
 170 867 l 1,4,-1
 170 1004 l 1,5,6
 272 1117 272 1117 427.5 1176 c 128,-1,7
 583 1235 583 1235 732 1235 c 0,8,9
 793 1235 793 1235 865 1225 c 128,-1,10
 937 1215 937 1215 1007.5 1193 c 128,-1,11
 1078 1171 1078 1171 1137 1133.5 c 128,-1,12
 1196 1096 1196 1096 1227 1040 c 0,13,14
 1260 985 1260 985 1265 918 c 128,-1,15
 1270 851 1270 851 1270 790 c 2,16,-1
 1270 -528 l 1,17,-1
 1065 -528 l 1,18,-1
 912 -384 l 1,19,-1
 800 -528 l 1,20,-1
 704 -528 l 1,21,22
 681 -498 681 -498 659 -473 c 128,-1,23
 637 -448 637 -448 611 -422 c 1,24,25
 565 -495 565 -495 487 -522.5 c 128,-1,26
 409 -550 409 -550 333 -550 c 0,27,28
 250 -550 250 -550 178 -502 c 128,-1,29
 106 -454 106 -454 106 -361 c 256,30,31
 106 -269 106 -269 170 -226 c 128,-1,32
 234 -183 234 -183 317 -183 c 0,33,34
 372 -183 372 -183 432 -198.5 c 128,-1,35
 492 -214 492 -214 540 -247 c 1,36,-1
 540 -119 l 1,37,-1
 650 -67 l 1,38,-1
 720 -67 l 1,39,-1
 720 -116 l 2,40,41
 720 -162 720 -162 703.5 -224.5 c 128,-1,42
 687 -287 687 -287 662 -330 c 1,43,-1
 720 -387 l 1,44,-1
 879 -205 l 1,45,-1
 1071 -384 l 1,46,-1
 1071 848 l 2,47,48
 1071 925 1071 925 1044 979.5 c 128,-1,49
 1017 1034 1017 1034 969 1067.5 c 128,-1,50
 921 1101 921 1101 858.5 1116.5 c 128,-1,51
 796 1132 796 1132 729 1132 c 0,52,53
 608 1132 608 1132 494.5 1095.5 c 128,-1,54
 381 1059 381 1059 297 965 c 1,55,-1
 623 965 l 1,56,-1
 623 879 l 1,57,58
 543 845 543 845 519 771 c 128,-1,59
 495 697 495 697 495 620 c 2,60,-1
 495 311 l 2,61,62
 495 244 495 244 485.5 186 c 128,-1,63
 476 128 476 128 450.5 85 c 128,-1,64
 425 42 425 42 377.5 18 c 128,-1,65
 330 -6 330 -6 253 -6 c 0,66,67
 159 -6 159 -6 84 44.5 c 128,-1,68
 9 95 9 95 9 201 c 0,69,70
 9 305 9 305 79.5 351 c 128,-1,71
 150 397 150 397 253 397 c 1,72,-1
 297 381 l 1,73,-1
 297 665 l 2,0,1
320 198 m 2,74,75
 320 230 320 230 299 270.5 c 128,-1,76
 278 311 278 311 244 311 c 0,77,78
 195 311 195 311 175.5 265.5 c 128,-1,79
 156 220 156 220 156 183 c 256,80,81
 156 144 156 144 180.5 101 c 128,-1,82
 205 58 205 58 250 58 c 256,83,84
 294 58 294 58 307 97.5 c 128,-1,85
 320 137 320 137 320 173 c 2,86,-1
 320 198 l 2,74,75
512 -348 m 1,87,88
 473 -317 473 -317 431.5 -299 c 128,-1,89
 390 -281 390 -281 339 -281 c 0,90,91
 250 -281 250 -281 250 -372 c 0,92,93
 250 -415 250 -415 282 -433 c 128,-1,94
 314 -451 314 -451 351 -451 c 0,95,96
 409 -451 409 -451 444 -420.5 c 128,-1,97
 479 -390 479 -390 512 -348 c 1,87,88
EndSplineSet
Substitution2: "Single Substitution lookup 22 subtable" uni0E0F.alt1
Substitution2: "Single Substitution lookup 22 subtable" uni0E0F.alt1
EndChar
StartChar: uni0E10
Encoding: 3600 3600 147
Width: 1194
VWidth: 3198
Flags: W
HStem: -540 92<742.781 856.525> -372 67<795.942 858.618 851.281 866.517> -297 96<147.718 231.198> -159 61<786.827 883.627> 0 21G<711.048 956> 361 84<309.522 433.088> 665 77<305.003 432.209> 860 99<259 314.783 314.783 392.781 392.781 527.933> 989 146<854.858 1012.95> 1142 96<362.079 553.885>
VStem: 12 113<-437.835 -319.976> 159 131<485.235 630.355> 665 113<-286.478 -178.635> 882 177<520.305 746.191> 892 115<-269.809 -193.625>
Fore
1132 1007 m 1,0,1
 1107 995 1107 995 1078 992 c 128,-1,2
 1049 989 1049 989 1017 989 c 0,3,4
 934 989 934 989 856 1007.5 c 128,-1,5
 778 1026 778 1026 704 1059 c 0,6,7
 672 1074 672 1074 647.5 1089 c 128,-1,8
 623 1104 623 1104 599.5 1116.5 c 128,-1,9
 576 1129 576 1129 547 1135.5 c 128,-1,10
 518 1142 518 1142 479 1142 c 0,11,12
 406 1142 406 1142 345 1082.5 c 128,-1,13
 284 1023 284 1023 259 959 c 1,14,-1
 297 959 l 2,15,16
 378 959 378 959 489.5 956 c 128,-1,17
 601 953 601 953 709.5 935.5 c 128,-1,18
 818 918 818 918 909.5 881.5 c 128,-1,19
 1001 845 1001 845 1037 781 c 0,20,21
 1053 748 1053 748 1056 716 c 128,-1,22
 1059 684 1059 684 1059 650 c 0,23,24
 1059 565 1059 565 1044 485.5 c 128,-1,25
 1029 406 1029 406 1012 325 c 128,-1,26
 995 244 995 244 977 163.5 c 128,-1,27
 959 83 959 83 953 0 c 1,28,-1
 720 0 l 1,29,-1
 515 458 l 1,30,31
 489 419 489 419 452 390 c 128,-1,32
 415 361 415 361 369 361 c 0,33,34
 284 361 284 361 221.5 406 c 128,-1,35
 159 451 159 451 159 543 c 0,36,37
 159 647 159 647 224.5 694.5 c 128,-1,38
 290 742 290 742 387 742 c 0,39,40
 486 742 486 742 539 682.5 c 128,-1,41
 592 623 592 623 626 540 c 2,42,-1
 806 128 l 1,43,44
 836 262 836 262 859 388.5 c 128,-1,45
 882 515 882 515 882 650 c 0,46,47
 882 732 882 732 831 784 c 0,48,49
 806 812 806 812 726.5 827 c 128,-1,50
 647 842 647 842 554 849.5 c 128,-1,51
 461 857 461 857 372.5 858.5 c 128,-1,52
 284 860 284 860 247 860 c 0,53,54
 192 860 192 860 136 857 c 128,-1,55
 80 854 80 854 25 848 c 1,56,57
 80 1034 80 1034 183.5 1136 c 128,-1,58
 287 1238 287 1238 489 1238 c 0,59,60
 547 1238 547 1238 597 1222 c 128,-1,61
 647 1206 647 1206 694.5 1187 c 128,-1,62
 742 1168 742 1168 790.5 1151.5 c 128,-1,63
 839 1135 839 1135 889 1135 c 0,64,65
 953 1135 953 1135 1013.5 1158 c 128,-1,66
 1074 1181 1074 1181 1132 1209 c 1,67,-1
 1132 1007 l 1,0,1
454 553 m 256,68,69
 454 589 454 589 431.5 627 c 128,-1,70
 409 665 409 665 369 665 c 0,71,72
 323 665 323 665 306.5 628.5 c 128,-1,73
 290 592 290 592 290 556 c 256,74,75
 290 522 290 522 310 483.5 c 128,-1,76
 330 445 330 445 372 445 c 0,77,78
 409 445 409 445 431.5 481.5 c 128,-1,79
 454 518 454 518 454 553 c 256,68,69
1007 -294 m 1,80,81
 1007 -317 1007 -317 1005.5 -352 c 128,-1,82
 1004 -387 1004 -387 998 -424 c 128,-1,83
 992 -461 992 -461 977 -489.5 c 128,-1,84
 962 -518 962 -518 937 -528 c 0,85,86
 918 -534 918 -534 891 -537 c 128,-1,87
 864 -540 864 -540 839 -540 c 2,88,-1
 701 -540 l 1,89,-1
 592 -425 l 1,90,91
 562 -458 562 -458 545 -476.5 c 128,-1,92
 528 -495 528 -495 498 -531 c 1,93,-1
 397 -415 l 1,94,95
 375 -461 375 -461 315.5 -507 c 128,-1,96
 256 -553 256 -553 198 -553 c 0,97,98
 116 -553 116 -553 64 -499 c 128,-1,99
 12 -445 12 -445 12 -361 c 0,100,101
 12 -290 12 -290 59 -245.5 c 128,-1,102
 106 -201 106 -201 176 -201 c 0,103,104
 214 -201 214 -201 261 -215.5 c 128,-1,105
 308 -230 308 -230 333 -259 c 1,106,107
 336 -250 336 -250 337.5 -238 c 128,-1,108
 339 -226 339 -226 342 -217 c 0,109,110
 345 -211 345 -211 345 -205 c 0,111,-1
 345 -173 l 256,112,113
 345 -159 345 -159 348 -147 c 1,114,-1
 448 -89 l 1,115,-1
 509 -89 l 1,116,-1
 509 -106 l 2,117,118
 509 -150 509 -150 483.5 -217 c 128,-1,119
 458 -284 458 -284 436 -326 c 1,120,-1
 483 -375 l 1,121,122
 503 -348 503 -348 526.5 -324.5 c 128,-1,123
 550 -301 550 -301 573 -275 c 1,124,125
 583 -284 583 -284 610 -313 c 128,-1,126
 637 -342 637 -342 667 -371 c 128,-1,127
 697 -400 697 -400 722.5 -424 c 128,-1,128
 748 -448 748 -448 757 -448 c 2,129,-1
 803 -448 l 2,130,131
 842 -448 842 -448 857 -428 c 1,132,-1
 867 -369 l 1,133,134
 860 -369 860 -369 851 -370.5 c 128,-1,135
 842 -372 842 -372 836 -372 c 0,136,137
 771 -372 771 -372 718 -338.5 c 128,-1,138
 665 -305 665 -305 665 -230 c 256,139,140
 665 -156 665 -156 711 -127 c 128,-1,141
 757 -98 757 -98 821 -98 c 0,142,143
 879 -98 879 -98 943 -128.5 c 128,-1,144
 1007 -159 1007 -159 1007 -226 c 2,145,-1
 1007 -294 l 1,80,81
892 -230 m 0,146,147
 892 -205 892 -205 879.5 -182 c 128,-1,148
 867 -159 867 -159 839 -159 c 0,149,150
 803 -159 803 -159 790.5 -183.5 c 128,-1,151
 778 -208 778 -208 778 -241 c 0,152,153
 778 -265 778 -265 795 -285 c 128,-1,154
 812 -305 812 -305 839 -305 c 256,155,156
 864 -305 864 -305 878 -283.5 c 128,-1,157
 892 -262 892 -262 892 -230 c 0,146,147
305 -372 m 0,158,159
 308 -355 308 -355 296 -342.5 c 128,-1,160
 284 -330 284 -330 267 -320.5 c 128,-1,161
 250 -311 250 -311 230.5 -304 c 128,-1,162
 211 -297 211 -297 198 -297 c 0,163,164
 166 -297 166 -297 145.5 -318 c 128,-1,165
 125 -339 125 -339 125 -372 c 0,166,167
 125 -406 125 -406 139 -435 c 128,-1,168
 153 -464 153 -464 205 -461 c 256,169,170
 256 -458 256 -458 276.5 -432 c 128,-1,171
 297 -406 297 -406 305 -372 c 0,158,159
EndSplineSet
Substitution2: "Single Substitution lookup 22 subtable" uni0E10.alt1
Substitution2: "Single Substitution lookup 22 subtable" uni0E10.alt1
EndChar
StartChar: uni0E11
Encoding: 3601 3601 148
Width: 1572
VWidth: 3198
Flags: W
HStem: 0 21G<415 614 1227 1340.81> 662 61<209.187 327.211> 903 76<233.913 325.512> 1007 119<358.002 418.332> 1110 114<540.212 628.425 1057.4 1187>
VStem: 25 122<946.891 992.669 992.669 1082.35> 336 106<746.002 880.251> 415 196<0 27.29 244 605.609> 637 153<870.985 1083.06> 1227 199<106 1074.53>
Fore
889 672 m 0,0,1
 836 537 836 537 789 421 c 128,-1,2
 742 305 742 305 687 180 c 0,3,4
 681 166 681 166 670 141 c 128,-1,5
 659 116 659 116 646.5 88.5 c 128,-1,6
 634 61 634 61 624 35 c 128,-1,7
 614 9 614 9 614 0 c 1,8,-1
 415 0 l 1,9,-1
 415 483 l 2,10,11
 415 547 415 547 450.5 607.5 c 128,-1,12
 486 668 486 668 525.5 730.5 c 128,-1,13
 565 793 565 793 601 859 c 128,-1,14
 637 925 637 925 637 995 c 0,15,16
 637 1023 637 1023 628.5 1066.5 c 128,-1,17
 620 1110 620 1110 583 1110 c 0,18,19
 550 1110 550 1110 528 1094 c 128,-1,20
 506 1078 506 1078 485 1059 c 128,-1,21
 464 1040 464 1040 439.5 1023.5 c 128,-1,22
 415 1007 415 1007 384 1007 c 0,23,24
 361 1007 361 1007 334.5 1022 c 128,-1,25
 308 1037 308 1037 280.5 1055.5 c 128,-1,26
 253 1074 253 1074 227 1093.5 c 128,-1,27
 201 1113 201 1113 183 1126 c 1,28,29
 166 1113 166 1113 156.5 1089 c 128,-1,30
 147 1065 147 1065 147 1046 c 256,31,32
 147 1026 147 1026 147 1012 c 128,-1,33
 147 998 147 998 150 973 c 0,34,35
 150 959 150 959 154.5 946.5 c 128,-1,36
 159 934 159 934 162 921 c 1,37,38
 189 956 189 956 218 967.5 c 128,-1,39
 247 979 247 979 290 979 c 0,40,41
 361 979 361 979 401.5 942.5 c 128,-1,42
 442 906 442 906 442 831 c 0,43,44
 442 662 442 662 272 662 c 0,45,46
 208 662 208 662 162 694 c 128,-1,47
 116 726 116 726 85.5 773.5 c 128,-1,48
 55 821 55 821 40 880.5 c 128,-1,49
 25 940 25 940 25 995 c 0,50,51
 25 1084 25 1084 60 1154 c 128,-1,52
 95 1224 95 1224 198 1224 c 0,53,54
 226 1224 226 1224 255 1208.5 c 128,-1,55
 284 1193 284 1193 308.5 1175 c 128,-1,56
 333 1157 333 1157 352.5 1141.5 c 128,-1,57
 372 1126 372 1126 384 1126 c 0,58,59
 390 1126 390 1126 409 1141.5 c 128,-1,60
 428 1157 428 1157 455.5 1175 c 128,-1,61
 483 1193 483 1193 515 1208.5 c 128,-1,62
 547 1224 547 1224 579 1224 c 0,63,64
 672 1224 672 1224 731 1160 c 128,-1,65
 790 1096 790 1096 790 1001 c 0,66,67
 790 940 790 940 763 879 c 128,-1,68
 736 818 736 818 702 754 c 128,-1,69
 668 690 668 690 639.5 620 c 128,-1,70
 611 550 611 550 611 470 c 2,71,-1
 611 244 l 1,72,73
 647 345 647 345 691.5 444 c 128,-1,74
 736 543 736 543 775 647 c 0,75,76
 815 757 815 757 860.5 869.5 c 128,-1,77
 906 982 906 982 950 1090 c 2,78,-1
 965 1129 l 2,79,80
 989 1174 989 1174 1030 1199 c 128,-1,81
 1071 1224 1071 1224 1123 1224 c 0,82,83
 1178 1224 1178 1224 1231.5 1215 c 128,-1,84
 1285 1206 1285 1206 1329 1181.5 c 128,-1,85
 1373 1157 1373 1157 1399.5 1114 c 128,-1,86
 1426 1071 1426 1071 1426 1007 c 2,87,-1
 1426 106 l 1,88,-1
 1321 0 l 1,89,-1
 1227 0 l 1,90,-1
 1227 985 l 2,91,92
 1227 1029 1227 1029 1195 1076 c 128,-1,93
 1163 1123 1163 1123 1123 1123 c 0,94,95
 1084 1123 1084 1123 1053 1065 c 0,96,97
 1007 976 1007 976 966 866.5 c 128,-1,98
 925 757 925 757 889 672 c 0,0,1
336 815 m 256,99,100
 336 851 336 851 322 877 c 128,-1,101
 308 903 308 903 265 903 c 0,102,103
 237 903 237 903 216 880 c 128,-1,104
 195 857 195 857 195 828 c 0,105,106
 195 793 195 793 210.5 758 c 128,-1,107
 226 723 226 723 269 723 c 0,108,109
 314 723 314 723 325 752 c 128,-1,110
 336 781 336 781 336 815 c 256,99,100
EndSplineSet
EndChar
StartChar: uni0E12
Encoding: 3602 3602 149
Width: 1742
VWidth: 3198
Flags: W
HStem: -16 74<877.818 950> 818 74<479.723 627.268> 985 132<564.2 631.95> 1110 108<274.269 397.216>
VStem: 25 125<732.082 911.932> 198 189<0 273.242> 342 116<620.569 776.316> 650 107<640.527 794.27> 726 125<110.988 277.608> 950 192<164.594 265 419 925.813> 1401 195<189 1110>
Fore
1416 0 m 1,0,-1
 1129 265 l 1,1,2
 1129 214 1129 214 1126 163 c 128,-1,3
 1123 112 1123 112 1106.5 71.5 c 128,-1,4
 1090 31 1090 31 1053.5 7.5 c 128,-1,5
 1017 -16 1017 -16 950 -16 c 0,6,7
 845 -16 845 -16 785.5 24 c 128,-1,8
 726 64 726 64 726 180 c 0,9,10
 726 284 726 284 791.5 339 c 128,-1,11
 857 394 857 394 950 419 c 1,12,-1
 950 854 l 2,13,14
 950 889 950 889 945 927 c 128,-1,15
 940 965 940 965 927.5 999.5 c 128,-1,16
 915 1034 915 1034 889.5 1060.5 c 128,-1,17
 864 1087 864 1087 825 1096 c 1,18,19
 796 1090 796 1090 769 1071.5 c 128,-1,20
 742 1053 742 1053 713 1033.5 c 128,-1,21
 684 1014 684 1014 656.5 999.5 c 128,-1,22
 629 985 629 985 604 985 c 0,23,24
 565 985 565 985 531.5 1004 c 128,-1,25
 498 1023 498 1023 468.5 1047 c 128,-1,26
 439 1071 439 1071 411.5 1090.5 c 128,-1,27
 384 1110 384 1110 355 1110 c 0,28,29
 311 1110 311 1110 272.5 1087.5 c 128,-1,30
 234 1065 234 1065 207 1028.5 c 128,-1,31
 180 992 180 992 165 949 c 128,-1,32
 150 906 150 906 150 864 c 0,33,34
 150 771 150 771 179 712 c 128,-1,35
 208 653 208 653 246 603 c 128,-1,36
 284 553 284 553 317.5 500.5 c 128,-1,37
 351 448 351 448 361 372 c 1,38,-1
 364 372 l 1,39,40
 400 409 400 409 444.5 439.5 c 128,-1,41
 489 470 489 470 515 512 c 1,42,43
 442 518 442 518 392 576 c 128,-1,44
 342 634 342 634 342 704 c 0,45,46
 342 790 342 790 404.5 841 c 128,-1,47
 467 892 467 892 550 892 c 256,48,49
 634 892 634 892 695.5 849 c 128,-1,50
 757 806 757 806 757 714 c 0,51,52
 757 629 757 629 700 554 c 128,-1,53
 643 479 643 479 573 412 c 128,-1,54
 503 345 503 345 445 287.5 c 128,-1,55
 387 230 387 230 387 180 c 2,56,-1
 387 0 l 1,57,-1
 198 0 l 1,58,-1
 198 394 l 2,59,60
 198 409 198 409 184 436.5 c 128,-1,61
 170 464 170 464 150.5 493 c 128,-1,62
 131 522 131 522 113 549 c 128,-1,63
 95 576 95 576 86 595 c 0,64,65
 61 650 61 650 43 707 c 128,-1,66
 25 764 25 764 25 825 c 0,67,68
 25 892 25 892 47.5 963 c 128,-1,69
 70 1034 70 1034 111.5 1091 c 128,-1,70
 153 1148 153 1148 212.5 1183 c 128,-1,71
 272 1218 272 1218 348 1218 c 0,72,73
 394 1218 394 1218 430.5 1202.5 c 128,-1,74
 467 1187 467 1187 499 1167.5 c 128,-1,75
 531 1148 531 1148 555 1132.5 c 128,-1,76
 579 1117 579 1117 595 1117 c 256,77,78
 611 1117 611 1117 636.5 1129.5 c 128,-1,79
 662 1142 662 1142 688 1160 c 128,-1,80
 714 1178 714 1178 737.5 1195 c 128,-1,81
 761 1212 761 1212 775 1221 c 1,82,83
 937 1221 937 1221 1039.5 1120.5 c 128,-1,84
 1142 1020 1142 1020 1142 857 c 2,85,-1
 1142 403 l 1,86,87
 1206 348 1206 348 1271.5 296 c 128,-1,88
 1337 244 1337 244 1401 189 c 1,89,-1
 1401 1110 l 1,90,-1
 1520 1215 l 1,91,-1
 1596 1215 l 1,92,-1
 1596 0 l 1,93,-1
 1416 0 l 1,0,-1
650 714 m 0,94,95
 650 757 650 757 622.5 787.5 c 128,-1,96
 595 818 595 818 550 818 c 256,97,98
 506 818 506 818 482 783 c 128,-1,99
 458 748 458 748 458 707 c 256,100,101
 458 665 458 665 485 628.5 c 128,-1,102
 512 592 512 592 556 592 c 256,103,104
 601 592 601 592 625.5 633.5 c 128,-1,105
 650 675 650 675 650 714 c 0,94,95
950 320 m 1,106,107
 892 294 892 294 871.5 267.5 c 128,-1,108
 851 241 851 241 851 176 c 0,109,110
 851 141 851 141 877 102.5 c 128,-1,111
 903 64 903 64 950 58 c 1,112,-1
 950 320 l 1,106,107
EndSplineSet
EndChar
StartChar: uni0E13
Encoding: 3603 3603 150
Width: 1770
VWidth: 3198
Flags: W
HStem: -6 73<334.595 479.572 1440.63 1553.92> 301 86<357.934 482.066> 870 89<141 269> 1135 100<416.724 730.931>
VStem: 131 174<146.923 267.997> 131 192<361 750.748> 506 128<94.0499 252.246> 876 192<201 1010.62> 1288 132<96.1797 212.618> 1426 192<440.334 1120> 1574 114<98.1481 244.184>
Fore
1688 173 m 0,0,1
 1688 80 1688 80 1632.5 35.5 c 128,-1,2
 1577 -9 1577 -9 1490 -9 c 0,3,4
 1407 -9 1407 -9 1347.5 32 c 128,-1,5
 1288 73 1288 73 1288 162 c 0,6,7
 1288 183 1288 183 1295 214 c 1,8,9
 1267 198 1267 198 1228.5 174 c 128,-1,10
 1190 150 1190 150 1153.5 121 c 128,-1,11
 1117 92 1117 92 1088 61.5 c 128,-1,12
 1059 31 1059 31 1046 0 c 1,13,-1
 876 0 l 1,14,-1
 876 809 l 2,15,16
 876 962 876 962 807.5 1048.5 c 128,-1,17
 739 1135 739 1135 579 1135 c 0,18,19
 454 1135 454 1135 344 1089 c 128,-1,20
 234 1043 234 1043 141 959 c 1,21,-1
 467 959 l 1,22,-1
 467 879 l 1,23,24
 409 845 409 845 366 790.5 c 128,-1,25
 323 736 323 736 323 665 c 2,26,-1
 323 361 l 1,27,28
 348 369 348 369 372.5 378 c 128,-1,29
 397 387 397 387 422 387 c 0,30,31
 522 387 522 387 578 338.5 c 128,-1,32
 634 290 634 290 634 189 c 0,33,34
 634 73 634 73 564.5 33.5 c 128,-1,35
 495 -6 495 -6 397 -6 c 0,36,37
 358 -6 358 -6 311.5 8 c 128,-1,38
 265 22 265 22 225.5 47.5 c 128,-1,39
 186 73 186 73 158.5 110 c 128,-1,40
 131 147 131 147 131 192 c 2,41,-1
 131 601 l 2,42,43
 131 681 131 681 166 753 c 128,-1,44
 201 825 201 825 269 870 c 1,45,-1
 25 870 l 1,46,-1
 25 1017 l 1,47,48
 98 1068 98 1068 164 1108 c 128,-1,49
 230 1148 230 1148 297 1177 c 128,-1,50
 364 1206 364 1206 438 1220.5 c 128,-1,51
 512 1235 512 1235 604 1235 c 256,52,53
 697 1235 697 1235 780.5 1215.5 c 128,-1,54
 864 1196 864 1196 928 1153 c 128,-1,55
 992 1110 992 1110 1030 1037.5 c 128,-1,56
 1068 965 1068 965 1068 864 c 2,57,-1
 1068 201 l 1,58,59
 1117 237 1117 237 1166 265.5 c 128,-1,60
 1215 294 1215 294 1270 320 c 0,61,62
 1298 333 1298 333 1330 345.5 c 128,-1,63
 1362 358 1362 358 1385 381 c 0,64,65
 1410 406 1410 406 1418 436.5 c 128,-1,66
 1426 467 1426 467 1426 503 c 2,67,-1
 1426 1120 l 1,68,-1
 1535 1215 l 1,69,-1
 1618 1215 l 1,70,-1
 1618 464 l 2,71,72
 1618 428 1618 428 1599 401.5 c 128,-1,73
 1580 375 1580 375 1554 351 c 1,74,75
 1688 308 1688 308 1688 173 c 0,0,1
1574 162 m 0,76,77
 1574 195 1574 195 1562.5 235 c 128,-1,78
 1551 275 1551 275 1510 275 c 0,79,80
 1456 275 1456 275 1438 240 c 128,-1,81
 1420 205 1420 205 1420 159 c 0,82,83
 1420 128 1420 128 1442.5 93 c 128,-1,84
 1465 58 1465 58 1501 58 c 0,85,86
 1532 58 1532 58 1553 97.5 c 128,-1,87
 1574 137 1574 137 1574 162 c 0,76,77
506 180 m 0,88,89
 506 217 506 217 482 259 c 128,-1,90
 458 301 458 301 412 301 c 256,91,92
 369 301 369 301 337 269 c 128,-1,93
 305 237 305 237 305 192 c 256,94,95
 305 147 305 147 331.5 107 c 128,-1,96
 358 67 358 67 409 67 c 0,97,98
 454 67 454 67 480 102 c 128,-1,99
 506 137 506 137 506 180 c 0,88,89
EndSplineSet
EndChar
StartChar: uni0E14
Encoding: 3604 3604 151
Width: 1275
VWidth: 3198
Flags: W
HStem: 0 21G<192 381 934 1045.32> 831 67<475.182 623.51> 1132 89<462.166 613.339 602.894 623.784 623.784 695 755 785.922>
VStem: 45 128<721.125 947.605> 192 189<0 264.773> 336 112<618.293 778.782> 643 111<635.84 791.303> 934 195<95 975.634>
Fore
1023 0 m 1,0,-1
 934 0 l 1,1,-1
 934 831 l 2,2,3
 934 918 934 918 902 977.5 c 128,-1,4
 870 1037 870 1037 817 1070.5 c 128,-1,5
 764 1104 764 1104 695 1118 c 128,-1,6
 626 1132 626 1132 550 1132 c 0,7,8
 476 1132 476 1132 409 1111 c 128,-1,9
 342 1090 342 1090 289.5 1050 c 128,-1,10
 237 1010 237 1010 205 949.5 c 128,-1,11
 173 889 173 889 173 812 c 2,12,-1
 173 764 l 2,13,14
 173 723 173 723 201.5 674.5 c 128,-1,15
 230 626 230 626 263.5 578.5 c 128,-1,16
 297 531 297 531 326 483.5 c 128,-1,17
 355 436 355 436 355 394 c 0,18,19
 355 378 355 378 351 369 c 1,20,21
 387 400 387 400 433 436.5 c 128,-1,22
 479 473 479 473 509 512 c 1,23,24
 436 518 436 518 386 577.5 c 128,-1,25
 336 637 336 637 336 707 c 0,26,27
 336 796 336 796 403 847 c 128,-1,28
 470 898 470 898 553 898 c 0,29,30
 640 898 640 898 697 849 c 128,-1,31
 754 800 754 800 754 711 c 0,32,33
 754 629 754 629 695.5 552.5 c 128,-1,34
 637 476 637 476 567.5 407.5 c 128,-1,35
 498 339 498 339 439.5 279.5 c 128,-1,36
 381 220 381 220 381 170 c 2,37,-1
 381 0 l 1,38,-1
 192 0 l 1,39,-1
 192 397 l 2,40,41
 192 412 192 412 179 438 c 128,-1,42
 166 464 166 464 150 491 c 128,-1,43
 134 518 134 518 118.5 544 c 128,-1,44
 103 570 103 570 92 589 c 0,45,46
 70 640 70 640 57.5 694 c 128,-1,47
 45 748 45 748 45 803 c 0,48,49
 45 906 45 906 89.5 984 c 128,-1,50
 134 1062 134 1062 206 1115 c 128,-1,51
 278 1168 278 1168 369.5 1194.5 c 128,-1,52
 461 1221 461 1221 550 1221 c 0,53,54
 653 1221 653 1221 755 1207 c 128,-1,55
 857 1193 857 1193 940 1151.5 c 128,-1,56
 1023 1110 1023 1110 1076 1031.5 c 128,-1,57
 1129 953 1129 953 1129 828 c 2,58,-1
 1129 95 l 1,59,-1
 1023 0 l 1,0,-1
643 714 m 0,60,61
 643 761 643 761 622 796 c 128,-1,62
 601 831 601 831 547 831 c 0,63,64
 503 831 503 831 475.5 789.5 c 128,-1,65
 448 748 448 748 448 707 c 256,66,67
 448 665 448 665 478.5 625.5 c 128,-1,68
 509 586 509 586 553 586 c 256,69,70
 598 586 598 586 620.5 630.5 c 128,-1,71
 643 675 643 675 643 714 c 0,60,61
EndSplineSet
EndChar
StartChar: uni0E15
Encoding: 3605 3605 152
Width: 1336
VWidth: 3198
Flags: W
HStem: 0 21G<237 425 995 1099.75> 831 64<519.177 664.545> 1010 119<619.294 718.248> 1113 102<407.676 471.772>
VStem: 95 119<727.027 983.111> 237 188<0 274.391> 381 111<617.303 778.444> 687 109<636.712 787.71> 995 195<103 916.111>
Fore
1078 0 m 1,0,-1
 995 0 l 1,1,-1
 995 836 l 2,2,3
 995 873 995 873 992 917.5 c 128,-1,4
 989 962 989 962 974 1001 c 128,-1,5
 959 1040 959 1040 931 1065 c 128,-1,6
 903 1090 903 1090 851 1090 c 1,7,-1
 836 1081 l 1,8,9
 825 1071 825 1071 818 1068 c 2,10,-1
 806 1059 l 1,11,12
 771 1040 771 1040 739 1025 c 128,-1,13
 707 1010 707 1010 668 1010 c 0,14,15
 626 1010 626 1010 594 1026.5 c 128,-1,16
 562 1043 562 1043 535.5 1062 c 128,-1,17
 509 1081 509 1081 481.5 1097 c 128,-1,18
 454 1113 454 1113 422 1113 c 0,19,20
 409 1113 409 1113 390.5 1101.5 c 128,-1,21
 372 1090 372 1090 361 1084 c 0,22,23
 305 1043 305 1043 259.5 985.5 c 128,-1,24
 214 928 214 928 214 854 c 0,25,26
 214 761 214 761 239.5 704 c 128,-1,27
 265 647 265 647 297.5 598.5 c 128,-1,28
 330 550 330 550 360 499 c 128,-1,29
 390 448 390 448 400 372 c 1,30,-1
 403 372 l 1,31,32
 415 387 415 387 439.5 406 c 128,-1,33
 464 425 464 425 489.5 444.5 c 128,-1,34
 515 464 515 464 535.5 481 c 128,-1,35
 556 498 556 498 562 512 c 1,36,37
 489 518 489 518 435 576 c 128,-1,38
 381 634 381 634 381 707 c 0,39,40
 381 796 381 796 443.5 845.5 c 128,-1,41
 506 895 506 895 589 895 c 0,42,43
 675 895 675 895 735.5 850.5 c 128,-1,44
 796 806 796 806 796 714 c 0,45,46
 796 634 796 634 738.5 558.5 c 128,-1,47
 681 483 681 483 610.5 415.5 c 128,-1,48
 540 348 540 348 482.5 289 c 128,-1,49
 425 230 425 230 425 180 c 2,50,-1
 425 0 l 1,51,-1
 237 0 l 1,52,-1
 237 397 l 2,53,54
 237 412 237 412 225.5 439.5 c 128,-1,55
 214 467 214 467 200 496 c 128,-1,56
 186 525 186 525 169.5 550.5 c 128,-1,57
 153 576 153 576 147 595 c 0,58,59
 125 650 125 650 110 710.5 c 128,-1,60
 95 771 95 771 95 831 c 0,61,62
 95 953 95 953 172.5 1047.5 c 128,-1,63
 250 1142 250 1142 358 1187 c 0,64,65
 369 1193 369 1193 404 1204 c 128,-1,66
 439 1215 439 1215 445 1215 c 0,67,68
 476 1215 476 1215 503.5 1202.5 c 128,-1,69
 531 1190 531 1190 557 1172 c 128,-1,70
 583 1154 583 1154 608.5 1141.5 c 128,-1,71
 634 1129 634 1129 662 1129 c 0,72,73
 707 1129 707 1129 742.5 1144.5 c 128,-1,74
 778 1160 778 1160 804.5 1181.5 c 128,-1,75
 831 1203 831 1203 852 1219 c 128,-1,76
 873 1235 873 1235 892 1235 c 0,77,78
 918 1235 918 1235 941.5 1225 c 128,-1,79
 965 1215 965 1215 989 1199 c 0,80,81
 1096 1132 1096 1132 1143 1051 c 128,-1,82
 1190 970 1190 970 1190 842 c 2,83,-1
 1190 103 l 1,84,-1
 1078 0 l 1,0,-1
687 714 m 0,85,86
 687 757 687 757 663.5 794 c 128,-1,87
 640 831 640 831 592 831 c 0,88,89
 547 831 547 831 519.5 789.5 c 128,-1,90
 492 748 492 748 492 707 c 256,91,92
 492 665 492 665 521 625.5 c 128,-1,93
 550 586 550 586 595 586 c 256,94,95
 640 586 640 586 663.5 630.5 c 128,-1,96
 687 675 687 675 687 714 c 0,85,86
EndSplineSet
EndChar
StartChar: uni0E16
Encoding: 3606 3606 153
Width: 1329
VWidth: 3198
Flags: W
HStem: -6 73<345.92 497.398> 320 86<349.01 497.036> 851 95<162 281> 1129 106<462.85 737.941>
VStem: 147 192<372 764.465> 518 129<115.695 296.919> 992 192<112 937.08>
Fore
1084 0 m 1,0,-1
 992 0 l 1,1,-1
 992 842 l 2,2,3
 992 915 992 915 964.5 969 c 128,-1,4
 937 1023 937 1023 889.5 1058 c 128,-1,5
 842 1093 842 1093 781 1111 c 128,-1,6
 720 1129 720 1129 653 1129 c 0,7,8
 592 1129 592 1129 523 1119.5 c 128,-1,9
 454 1110 454 1110 387 1089 c 128,-1,10
 320 1068 320 1068 260.5 1033 c 128,-1,11
 201 998 201 998 162 946 c 1,12,-1
 486 946 l 1,13,-1
 486 864 l 1,14,15
 422 825 422 825 380.5 786.5 c 128,-1,16
 339 748 339 748 339 665 c 2,17,-1
 339 372 l 1,18,19
 387 406 387 406 458 406 c 0,20,21
 543 406 543 406 595 345 c 128,-1,22
 647 284 647 284 647 201 c 0,23,24
 647 80 647 80 579.5 37 c 128,-1,25
 512 -6 512 -6 406 -6 c 0,26,27
 358 -6 358 -6 311.5 11 c 128,-1,28
 265 28 265 28 228.5 58.5 c 128,-1,29
 192 89 192 89 169.5 131 c 128,-1,30
 147 173 147 173 147 220 c 2,31,-1
 147 653 l 2,32,33
 147 717 147 717 192 766 c 128,-1,34
 237 815 237 815 281 851 c 1,35,-1
 25 851 l 1,36,-1
 25 998 l 1,37,38
 58 1023 58 1023 87 1047 c 128,-1,39
 116 1071 116 1071 150 1093 c 0,40,41
 253 1157 253 1157 379.5 1196 c 128,-1,42
 506 1235 506 1235 626 1235 c 0,43,44
 690 1235 690 1235 764.5 1225 c 128,-1,45
 839 1215 839 1215 910.5 1194.5 c 128,-1,46
 982 1174 982 1174 1044.5 1135 c 128,-1,47
 1107 1096 1107 1096 1142 1040 c 0,48,49
 1168 995 1168 995 1176 943.5 c 128,-1,50
 1184 892 1184 892 1184 845 c 2,51,-1
 1184 112 l 1,52,-1
 1084 0 l 1,0,-1
518 208 m 0,53,54
 518 256 518 256 494 288 c 128,-1,55
 470 320 470 320 419 320 c 0,56,57
 375 320 375 320 349 278.5 c 128,-1,58
 323 237 323 237 323 195 c 0,59,60
 323 150 323 150 346 108.5 c 128,-1,61
 369 67 369 67 419 67 c 0,62,63
 479 67 479 67 498.5 111.5 c 128,-1,64
 518 156 518 156 518 208 c 0,53,54
EndSplineSet
EndChar
StartChar: uni0E17
Encoding: 3607 3607 154
Width: 1457
VWidth: 3198
Flags: W
HStem: 0 21G<320 554 1117 1228> 803 76<180.446 305.329> 1123 101<979.709 1089.31> 1154 70<179.443 335.73>
VStem: 19 137<928.255 1099.08> 320 192<275 809> 1117 195<125 1050.3>
Fore
1212 0 m 1,0,-1
 1117 0 l 1,1,-1
 1117 998 l 2,2,3
 1117 1040 1117 1040 1099 1081.5 c 128,-1,4
 1081 1123 1081 1123 1026 1123 c 0,5,6
 1001 1123 1001 1123 987 1108 c 128,-1,7
 973 1093 973 1093 962 1078 c 1,8,-1
 962 1074 l 1,9,10
 943 1040 943 1040 934 1016 c 128,-1,11
 925 992 925 992 912 965 c 0,12,13
 879 892 879 892 853.5 830 c 128,-1,14
 828 768 828 768 803 704 c 0,15,16
 729 528 729 528 657.5 355.5 c 128,-1,17
 586 183 586 183 522 0 c 1,18,-1
 320 0 l 1,19,-1
 320 809 l 1,20,21
 305 806 305 806 291.5 804.5 c 128,-1,22
 278 803 278 803 262 803 c 0,23,24
 166 803 166 803 92.5 850.5 c 128,-1,25
 19 898 19 898 19 1007 c 0,26,27
 19 1129 19 1129 101 1176.5 c 128,-1,28
 183 1224 183 1224 287 1224 c 0,29,30
 364 1224 364 1224 409 1196 c 128,-1,31
 454 1168 454 1168 476 1119.5 c 128,-1,32
 498 1071 498 1071 505 1010.5 c 128,-1,33
 512 950 512 950 512 889 c 2,34,-1
 512 275 l 1,35,36
 543 345 543 345 570.5 417 c 128,-1,37
 598 489 598 489 623 556 c 0,38,39
 678 697 678 697 732.5 829.5 c 128,-1,40
 787 962 787 962 845 1107 c 0,41,42
 851 1123 851 1123 863.5 1147 c 128,-1,43
 876 1171 876 1171 882 1178 c 0,44,45
 909 1206 909 1206 944 1215 c 128,-1,46
 979 1224 979 1224 1014 1224 c 0,47,48
 1068 1224 1068 1224 1123 1215 c 128,-1,49
 1178 1206 1178 1206 1219 1180 c 128,-1,50
 1260 1154 1260 1154 1286 1111 c 128,-1,51
 1312 1068 1312 1068 1312 1004 c 2,52,-1
 1312 125 l 1,53,-1
 1212 0 l 1,0,-1
358 1020 m 0,54,55
 358 1065 358 1065 336 1109.5 c 128,-1,56
 314 1154 314 1154 259 1154 c 0,57,58
 198 1154 198 1154 177 1105 c 128,-1,59
 156 1056 156 1056 156 1004 c 0,60,61
 156 962 156 962 180.5 920.5 c 128,-1,62
 205 879 205 879 253 879 c 0,63,64
 311 879 311 879 334.5 926 c 128,-1,65
 358 973 358 973 358 1020 c 0,54,55
EndSplineSet
EndChar
StartChar: uni0E18
Encoding: 3608 3608 155
Width: 1185
VWidth: 3198
Flags: W
HStem: 0 109<326 842> 823 102<223.812 304.019 304.019 361.75 361.75 386.5 482 599.533> 973 156<878.948 1021.73> 1132 92<329.979 498.093 497.669 498.516 498.516 573.343>
VStem: 131 195<109 598> 842 195<109.316 660.686>
Fore
1110 982 m 1,0,1
 1101 979 1101 979 1089.5 976 c 128,-1,2
 1078 973 1078 973 1065 973 c 0,3,4
 962 973 962 973 863 998 c 128,-1,5
 764 1023 764 1023 672 1059 c 0,6,7
 640 1071 640 1071 617.5 1083.5 c 128,-1,8
 595 1096 595 1096 574 1108 c 128,-1,9
 553 1120 553 1120 528 1126 c 128,-1,10
 503 1132 503 1132 467 1132 c 0,11,12
 375 1132 375 1132 309.5 1071 c 128,-1,13
 244 1010 244 1010 223 925 c 1,14,15
 281 925 281 925 386.5 918.5 c 128,-1,16
 492 912 492 912 603 897 c 128,-1,17
 714 882 714 882 811.5 860.5 c 128,-1,18
 909 839 909 839 950 803 c 0,19,20
 1004 761 1004 761 1020.5 707 c 128,-1,21
 1037 653 1037 653 1037 589 c 2,22,-1
 1037 131 l 2,23,24
 1037 106 1037 106 1014.5 82 c 128,-1,25
 992 58 992 58 961.5 40 c 128,-1,26
 931 22 931 22 897.5 11 c 128,-1,27
 864 0 864 0 842 0 c 2,28,-1
 131 0 l 1,29,-1
 131 598 l 1,30,-1
 244 687 l 1,31,-1
 326 687 l 1,32,-1
 326 109 l 1,33,-1
 842 109 l 1,34,-1
 842 570 l 2,35,36
 842 620 842 620 835 662 c 128,-1,37
 828 704 828 704 784 739 c 0,38,39
 751 764 751 764 668.5 782 c 128,-1,40
 586 800 586 800 482 809 c 128,-1,41
 378 818 378 818 274 823 c 128,-1,42
 170 828 170 828 95 828 c 2,43,-1
 25 828 l 1,44,45
 39 1023 39 1023 150.5 1123.5 c 128,-1,46
 262 1224 262 1224 454 1224 c 0,47,48
 518 1224 518 1224 576 1210 c 128,-1,49
 634 1196 634 1196 689.5 1176.5 c 128,-1,50
 745 1157 745 1157 799.5 1143 c 128,-1,51
 854 1129 854 1129 915 1129 c 0,52,53
 962 1129 962 1129 1016.5 1155 c 128,-1,54
 1071 1181 1071 1181 1110 1206 c 1,55,-1
 1110 982 l 1,0,1
EndSplineSet
EndChar
StartChar: uni0E19
Encoding: 3609 3609 156
Width: 1460
VWidth: 3198
Flags: W
HStem: -16 68<1101.85 1216.38> 809 73<190.241 322.325> 1157 67<189.818 345.414>
VStem: 25 141<931.195 1102.35> 345 192<147 831> 369 168<973.062 1048.38> 925 134<108.884 234.343> 1101 194<547.908 611 611 1123> 1242 137<106.184 280.634>
Fore
1379 192 m 0,0,1
 1379 89 1379 89 1324.5 36.5 c 128,-1,2
 1270 -16 1270 -16 1168 -16 c 256,3,4
 1065 -16 1065 -16 995 25.5 c 128,-1,5
 925 67 925 67 925 180 c 0,6,7
 925 217 925 217 940 265 c 1,8,9
 839 198 839 198 731 139 c 128,-1,10
 623 80 623 80 531 0 c 1,11,-1
 345 0 l 1,12,-1
 345 831 l 1,13,14
 294 809 294 809 250 809 c 0,15,16
 147 809 147 809 86 859 c 128,-1,17
 25 909 25 909 25 1014 c 0,18,19
 25 1117 25 1117 99 1170.5 c 128,-1,20
 173 1224 173 1224 265 1224 c 0,21,22
 361 1224 361 1224 439 1187 c 0,23,24
 512 1145 512 1145 524.5 1081 c 128,-1,25
 537 1017 537 1017 537 943 c 2,26,-1
 537 147 l 1,27,28
 659 223 659 223 778 290 c 0,29,30
 803 305 803 305 846 328 c 128,-1,31
 889 351 889 351 934 378.5 c 128,-1,32
 979 406 979 406 1017.5 435 c 128,-1,33
 1056 464 1056 464 1068 483 c 0,34,35
 1090 518 1090 518 1095.5 547 c 128,-1,36
 1101 576 1101 576 1101 611 c 2,37,-1
 1101 1123 l 1,38,-1
 1218 1215 l 1,39,-1
 1295 1215 l 1,40,-1
 1295 614 l 2,41,42
 1295 559 1295 559 1261 513 c 128,-1,43
 1227 467 1227 467 1196 425 c 1,44,45
 1279 406 1279 406 1329 342 c 128,-1,46
 1379 278 1379 278 1379 192 c 0,0,1
1242 186 m 0,47,48
 1242 208 1242 208 1236.5 236.5 c 128,-1,49
 1231 265 1231 265 1220 291 c 128,-1,50
 1209 317 1209 317 1188.5 334 c 128,-1,51
 1168 351 1168 351 1138 351 c 0,52,53
 1113 351 1113 351 1097 332.5 c 128,-1,54
 1081 314 1081 314 1073 288 c 128,-1,55
 1065 262 1065 262 1062 233.5 c 128,-1,56
 1059 205 1059 205 1059 186 c 0,57,58
 1059 170 1059 170 1065 146 c 128,-1,59
 1071 122 1071 122 1082 101 c 128,-1,60
 1093 80 1093 80 1109.5 66 c 128,-1,61
 1126 52 1126 52 1145 52 c 0,62,63
 1193 52 1193 52 1217.5 98 c 128,-1,64
 1242 144 1242 144 1242 186 c 0,47,48
369 1023 m 0,65,66
 369 1068 369 1068 346 1112.5 c 128,-1,67
 323 1157 323 1157 269 1157 c 0,68,69
 208 1157 208 1157 187 1108 c 128,-1,70
 166 1059 166 1059 166 1007 c 0,71,72
 166 965 166 965 190 923.5 c 128,-1,73
 214 882 214 882 262 882 c 0,74,75
 320 882 320 882 344.5 929 c 128,-1,76
 369 976 369 976 369 1023 c 0,65,66
EndSplineSet
EndChar
StartChar: uni0E1A
Encoding: 3610 3610 157
Width: 1450
VWidth: 3198
Flags: W
HStem: 3 109<217 342 537 1110> 818 91<189.344 341.226> 1154 67<205.243 348.901>
VStem: 25 137<934.79 1095.61> 342 195<112 842> 369 168<989.121 1078.7> 1110 196<128.281 1113>
Fore
1306 144 m 1,0,1
 1306 137 1306 137 1300.5 128 c 128,-1,2
 1295 119 1295 119 1292 112 c 0,3,4
 1267 67 1267 67 1238 49 c 128,-1,5
 1209 31 1209 31 1163 16 c 0,6,7
 1157 12 1157 12 1137 7.5 c 128,-1,8
 1117 3 1117 3 1110 3 c 2,9,-1
 217 3 l 1,10,-1
 217 112 l 1,11,-1
 342 112 l 1,12,-1
 342 842 l 1,13,14
 308 818 308 818 253 818 c 0,15,16
 159 818 159 818 92 871.5 c 128,-1,17
 25 925 25 925 25 1023 c 0,18,19
 25 1074 25 1074 47.5 1112.5 c 128,-1,20
 70 1151 70 1151 107 1175 c 128,-1,21
 144 1199 144 1199 189 1210 c 128,-1,22
 234 1221 234 1221 278 1221 c 0,23,24
 387 1221 387 1221 462 1164 c 128,-1,25
 537 1107 537 1107 537 992 c 2,26,-1
 537 112 l 1,27,-1
 1110 112 l 1,28,-1
 1110 1113 l 1,29,-1
 1215 1215 l 1,30,-1
 1306 1215 l 1,31,-1
 1306 144 l 1,0,1
369 1029 m 0,32,33
 369 1071 369 1071 349.5 1112.5 c 128,-1,34
 330 1154 330 1154 278 1154 c 0,35,36
 223 1154 223 1154 192.5 1116 c 128,-1,37
 162 1078 162 1078 162 1023 c 256,38,39
 162 970 162 970 194 939.5 c 128,-1,40
 226 909 226 909 281 909 c 0,41,42
 323 909 323 909 346 952 c 128,-1,43
 369 995 369 995 369 1029 c 0,32,33
EndSplineSet
EndChar
StartChar: uni0E1B
Encoding: 3611 3611 158
Width: 1450
VWidth: 3198
Flags: W
HStem: 3 109<217 342 537 1110> 818 91<189.344 341.226> 1154 67<205.243 348.901>
VStem: 25 137<934.79 1095.61> 342 195<112 842> 369 168<989.121 1078.7> 1110 196<130.343 1560>
Fore
1306 147 m 1,0,1
 1306 141 1306 141 1300.5 130 c 128,-1,2
 1295 119 1295 119 1292 112 c 0,3,4
 1267 70 1267 70 1215 36.5 c 128,-1,5
 1163 3 1163 3 1117 3 c 2,6,-1
 217 3 l 1,7,-1
 217 112 l 1,8,-1
 342 112 l 1,9,-1
 342 842 l 1,10,11
 308 818 308 818 253 818 c 0,12,13
 159 818 159 818 92 871.5 c 128,-1,14
 25 925 25 925 25 1023 c 0,15,16
 25 1074 25 1074 47.5 1112.5 c 128,-1,17
 70 1151 70 1151 107 1175 c 128,-1,18
 144 1199 144 1199 189 1210 c 128,-1,19
 234 1221 234 1221 278 1221 c 0,20,21
 387 1221 387 1221 462 1164 c 128,-1,22
 537 1107 537 1107 537 992 c 2,23,-1
 537 112 l 1,24,-1
 1110 112 l 1,25,-1
 1110 1560 l 1,26,-1
 1215 1663 l 1,27,-1
 1306 1663 l 1,28,-1
 1306 147 l 1,0,1
369 1029 m 0,29,30
 369 1071 369 1071 349.5 1112.5 c 128,-1,31
 330 1154 330 1154 278 1154 c 0,32,33
 223 1154 223 1154 192.5 1116 c 128,-1,34
 162 1078 162 1078 162 1023 c 256,35,36
 162 970 162 970 194 939.5 c 128,-1,37
 226 909 226 909 281 909 c 0,38,39
 323 909 323 909 346 952 c 128,-1,40
 369 995 369 995 369 1029 c 0,29,30
EndSplineSet
EndChar
StartChar: uni0E1C
Encoding: 3612 3612 159
Width: 1333
VWidth: 3198
Flags: W
HStem: 0 21G<77 365 900.245 1187> 812 77<277.616 439.826> 1142 79<283.522 440.746>
VStem: 77 195<103 836> 77 176<928.19 1070.76> 464 134<917.723 1114.82> 1001 186<122 1117>
Fore
912 0 m 1,0,-1
 634 473 l 1,1,2
 556 355 556 355 478 238.5 c 128,-1,3
 400 122 400 122 330 0 c 1,4,-1
 77 0 l 1,5,-1
 77 1010 l 2,6,7
 77 1062 77 1062 104 1100 c 128,-1,8
 131 1138 131 1138 172.5 1165.5 c 128,-1,9
 214 1193 214 1193 264 1207 c 128,-1,10
 314 1221 314 1221 355 1221 c 0,11,12
 458 1221 458 1221 528 1173.5 c 128,-1,13
 598 1126 598 1126 598 1014 c 0,14,15
 598 906 598 906 529.5 859 c 128,-1,16
 461 812 461 812 361 812 c 0,17,18
 308 812 308 812 272 836 c 1,19,-1
 272 103 l 1,20,21
 355 237 355 237 441.5 363 c 128,-1,22
 528 489 528 489 611 623 c 1,23,-1
 704 623 l 1,24,-1
 1001 122 l 1,25,-1
 1001 1117 l 1,26,-1
 1104 1212 l 1,27,-1
 1187 1212 l 1,28,-1
 1187 0 l 1,29,-1
 912 0 l 1,0,-1
464 1017 m 0,30,31
 464 1071 464 1071 438 1106.5 c 128,-1,32
 412 1142 412 1142 355 1142 c 0,33,34
 294 1142 294 1142 273.5 1105 c 128,-1,35
 253 1068 253 1068 253 1014 c 0,36,37
 253 965 253 965 279 927 c 128,-1,38
 305 889 305 889 358 889 c 256,39,40
 412 889 412 889 438 927 c 128,-1,41
 464 965 464 965 464 1017 c 0,30,31
EndSplineSet
EndChar
StartChar: uni0E1D
Encoding: 3613 3613 160
Width: 1333
VWidth: 3198
Flags: W
HStem: 815 77<277.616 438.475> 1145 79<283.522 440.746>
VStem: 77 195<106 839> 77 176<932.221 1073.76> 464 134<922.367 1117.82> 1001 186<125 1609>
Fore
912 3 m 1,0,-1
 634 476 l 1,1,2
 556 358 556 358 478 241.5 c 128,-1,3
 400 125 400 125 330 3 c 1,4,-1
 77 3 l 1,5,-1
 77 1014 l 2,6,7
 77 1065 77 1065 104 1103.5 c 128,-1,8
 131 1142 131 1142 172.5 1169 c 128,-1,9
 214 1196 214 1196 264 1210 c 128,-1,10
 314 1224 314 1224 355 1224 c 0,11,12
 458 1224 458 1224 528 1176.5 c 128,-1,13
 598 1129 598 1129 598 1017 c 0,14,15
 598 909 598 909 529.5 862 c 128,-1,16
 461 815 461 815 361 815 c 0,17,18
 308 815 308 815 272 839 c 1,19,-1
 272 106 l 1,20,21
 355 241 355 241 441.5 366.5 c 128,-1,22
 528 492 528 492 611 626 c 1,23,-1
 701 626 l 1,24,-1
 1001 125 l 1,25,-1
 1001 1609 l 1,26,-1
 1104 1705 l 1,27,-1
 1187 1705 l 1,28,-1
 1187 3 l 1,29,-1
 912 3 l 1,0,-1
464 1020 m 0,30,31
 464 1074 464 1074 438 1109.5 c 128,-1,32
 412 1145 412 1145 355 1145 c 0,33,34
 294 1145 294 1145 273.5 1108 c 128,-1,35
 253 1071 253 1071 253 1017 c 0,36,37
 253 970 253 970 279 931 c 128,-1,38
 305 892 305 892 358 892 c 256,39,40
 412 892 412 892 438 931 c 128,-1,41
 464 970 464 970 464 1020 c 0,30,31
EndSplineSet
EndChar
StartChar: uni0E1E
Encoding: 3614 3614 161
Width: 1611
VWidth: 3198
Flags: W
HStem: 815 80<194.968 330.648> 1157 67<209.952 327.832>
VStem: 25 145<924.61 1097.29> 336 192<253 825> 369 159<955.242 1052.64> 1276 189<183 1113>
Fore
1171 3 m 1,0,-1
 867 1001 l 1,1,2
 787 751 787 751 705 503.5 c 128,-1,3
 623 256 623 256 550 3 c 1,4,-1
 336 3 l 1,5,-1
 336 825 l 1,6,7
 305 815 305 815 265 815 c 0,8,9
 162 815 162 815 93.5 863.5 c 128,-1,10
 25 912 25 912 25 1023 c 0,11,12
 25 1081 25 1081 47.5 1119 c 128,-1,13
 70 1157 70 1157 107 1181.5 c 128,-1,14
 144 1206 144 1206 192.5 1215 c 128,-1,15
 241 1224 241 1224 287 1224 c 0,16,17
 400 1224 400 1224 464 1154 c 128,-1,18
 528 1084 528 1084 528 973 c 2,19,-1
 528 253 l 1,20,21
 601 486 601 486 679 716 c 128,-1,22
 757 946 757 946 828 1184 c 1,23,-1
 953 1184 l 1,24,-1
 1276 183 l 1,25,-1
 1276 1113 l 1,26,-1
 1388 1215 l 1,27,-1
 1465 1215 l 1,28,-1
 1465 3 l 1,29,-1
 1171 3 l 1,0,-1
369 1007 m 0,30,31
 369 1026 369 1026 363.5 1053.5 c 128,-1,32
 358 1081 358 1081 348.5 1103.5 c 128,-1,33
 339 1126 339 1126 323.5 1141.5 c 128,-1,34
 308 1157 308 1157 281 1157 c 0,35,36
 223 1157 223 1157 196.5 1114 c 128,-1,37
 170 1071 170 1071 170 1020 c 256,38,39
 170 970 170 970 196.5 932.5 c 128,-1,40
 223 895 223 895 278 895 c 256,41,42
 333 895 333 895 351 928.5 c 128,-1,43
 369 962 369 962 369 1007 c 0,30,31
EndSplineSet
EndChar
StartChar: uni0E1F
Encoding: 3615 3615 162
Width: 1611
VWidth: 3198
Flags: W
HStem: 815 80<194.968 330.648> 1157 67<209.952 327.832>
VStem: 25 145<924.61 1097.29> 336 192<253 825> 369 159<955.242 1052.64> 1276 189<180 1563>
Fore
1171 3 m 1,0,-1
 867 998 l 1,1,2
 787 748 787 748 705 500.5 c 128,-1,3
 623 253 623 253 550 3 c 1,4,-1
 336 3 l 1,5,-1
 336 825 l 1,6,7
 305 815 305 815 265 815 c 0,8,9
 162 815 162 815 93.5 863.5 c 128,-1,10
 25 912 25 912 25 1023 c 0,11,12
 25 1081 25 1081 47.5 1119 c 128,-1,13
 70 1157 70 1157 107 1181.5 c 128,-1,14
 144 1206 144 1206 192.5 1215 c 128,-1,15
 241 1224 241 1224 287 1224 c 0,16,17
 400 1224 400 1224 464 1154 c 128,-1,18
 528 1084 528 1084 528 973 c 2,19,-1
 528 253 l 1,20,21
 601 486 601 486 679 714.5 c 128,-1,22
 757 943 757 943 828 1181 c 1,23,-1
 953 1181 l 1,24,-1
 1276 180 l 1,25,-1
 1276 1563 l 1,26,-1
 1388 1666 l 1,27,-1
 1465 1666 l 1,28,-1
 1465 3 l 1,29,-1
 1171 3 l 1,0,-1
369 1007 m 0,30,31
 369 1026 369 1026 363.5 1053.5 c 128,-1,32
 358 1081 358 1081 348.5 1103.5 c 128,-1,33
 339 1126 339 1126 323.5 1141.5 c 128,-1,34
 308 1157 308 1157 281 1157 c 0,35,36
 223 1157 223 1157 196.5 1114 c 128,-1,37
 170 1071 170 1071 170 1020 c 256,38,39
 170 970 170 970 196.5 932.5 c 128,-1,40
 223 895 223 895 278 895 c 256,41,42
 333 895 333 895 351 928.5 c 128,-1,43
 369 962 369 962 369 1007 c 0,30,31
EndSplineSet
EndChar
StartChar: uni0E20
Encoding: 3616 3616 163
Width: 1457
VWidth: 3198
Flags: W
HStem: -3 67<191.216 331.576> 317 80<191.641 303.958> 873 89<317 451> 1138 93<570.162 860.668>
VStem: 39 131<110.125 268.827> 317 189<381 779.186> 351 155<139.983 242.544> 1117 195<103 888.638>
Fore
1218 0 m 1,0,-1
 1117 0 l 1,1,-1
 1117 812 l 2,2,3
 1117 940 1117 940 1080 1010.5 c 128,-1,4
 1043 1081 1043 1081 915 1117 c 0,5,6
 845 1138 845 1138 761 1138 c 0,7,8
 711 1138 711 1138 645 1130.5 c 128,-1,9
 579 1123 579 1123 515 1102 c 128,-1,10
 451 1081 451 1081 398 1047.5 c 128,-1,11
 345 1014 345 1014 317 962 c 1,12,-1
 640 962 l 1,13,-1
 640 882 l 1,14,15
 506 809 506 809 506 662 c 2,16,-1
 506 220 l 2,17,18
 506 112 506 112 442 54.5 c 128,-1,19
 378 -3 378 -3 272 -3 c 0,20,21
 170 -3 170 -3 104.5 43 c 128,-1,22
 39 89 39 89 39 201 c 0,23,24
 39 297 39 297 97.5 347 c 128,-1,25
 156 397 156 397 250 397 c 0,26,27
 278 397 278 397 317 381 c 1,28,-1
 317 659 l 2,29,30
 317 723 317 723 358.5 781 c 128,-1,31
 400 839 400 839 451 873 c 1,32,-1
 186 873 l 1,33,-1
 186 995 l 1,34,35
 290 1113 290 1113 447 1172 c 128,-1,36
 604 1231 604 1231 764 1231 c 0,37,38
 818 1231 818 1231 887 1221.5 c 128,-1,39
 956 1212 956 1212 1024.5 1191.5 c 128,-1,40
 1093 1171 1093 1171 1154 1139 c 128,-1,41
 1215 1107 1215 1107 1248 1062 c 0,42,43
 1292 998 1292 998 1302 914.5 c 128,-1,44
 1312 831 1312 831 1312 757 c 2,45,-1
 1312 103 l 1,46,-1
 1218 0 l 1,0,-1
351 189 m 0,47,48
 351 234 351 234 332.5 275.5 c 128,-1,49
 314 317 314 317 259 317 c 0,50,51
 211 317 211 317 190.5 271.5 c 128,-1,52
 170 226 170 226 170 189 c 0,53,54
 170 144 170 144 192 104 c 128,-1,55
 214 64 214 64 269 64 c 0,56,57
 314 64 314 64 332.5 107 c 128,-1,58
 351 150 351 150 351 189 c 0,47,48
EndSplineSet
EndChar
